<?xml version="1.0" encoding="UTF-8" standalone="no"?>
<!DOCTYPE svg PUBLIC "-//W3C//DTD SVG 1.1//EN" "http://www.w3.org/Graphics/SVG/1.1/DTD/svg11.dtd">
<svg xmlns="http://www.w3.org/2000/svg" xmlns:xlink="http://www.w3.org/1999/xlink" version="1.1" width="433.015pt" height="222.334pt" viewBox="0 0 433.015 222.334">
<g enable-background="new">
<g id="Layer-1" data-name="Capa 1">
<clipPath id="cp0">
<path transform="matrix(1,0,0,-1,0,222.334)" d="M 0 222.334 L 433.015 222.334 L 433.015 0 L 0 0 Z "/>
</clipPath>
<g clip-path="url(#cp0)">
<path transform="matrix(1,0,0,-1,70.0601,94.013797)" d="M 0 0 C 0 -2.468 -2 -4.468 -4.468 -4.468 C -6.936 -4.468 -8.937 -2.468 -8.937 0 C -8.937 2.468 -6.936 4.468 -4.468 4.468 C -2 4.468 0 2.468 0 0 " fill="#ffffff"/>
<path transform="matrix(1,0,0,-1,70.0601,94.013797)" stroke-width="1" stroke-linecap="butt" stroke-miterlimit="10" stroke-linejoin="miter" fill="none" stroke="#a8aaad" d="M 0 0 C 0 -2.468 -2 -4.468 -4.468 -4.468 C -6.936 -4.468 -8.937 -2.468 -8.937 0 C -8.937 2.468 -6.936 4.468 -4.468 4.468 C -2 4.468 0 2.468 0 0 Z "/>
<path transform="matrix(1,0,0,-1,57.8408,99.986499)" d="M 0 0 C 0 -2.468 -2 -4.468 -4.468 -4.468 C -6.936 -4.468 -8.937 -2.468 -8.937 0 C -8.937 2.468 -6.936 4.468 -4.468 4.468 C -2 4.468 0 2.468 0 0 " fill="#ffffff"/>
<path transform="matrix(1,0,0,-1,57.8408,99.986499)" stroke-width="1" stroke-linecap="butt" stroke-miterlimit="10" stroke-linejoin="miter" fill="none" stroke="#a8aaad" d="M 0 0 C 0 -2.468 -2 -4.468 -4.468 -4.468 C -6.936 -4.468 -8.937 -2.468 -8.937 0 C -8.937 2.468 -6.936 4.468 -4.468 4.468 C -2 4.468 0 2.468 0 0 Z "/>
<path transform="matrix(1,0,0,-1,45.6211,96.247699)" d="M 0 0 C 0 -2.468 -2 -4.468 -4.468 -4.468 C -6.936 -4.468 -8.937 -2.468 -8.937 0 C -8.937 2.468 -6.936 4.468 -4.468 4.468 C -2 4.468 0 2.468 0 0 " fill="#ffffff"/>
<path transform="matrix(1,0,0,-1,45.6211,96.247699)" stroke-width="1" stroke-linecap="butt" stroke-miterlimit="10" stroke-linejoin="miter" fill="none" stroke="#a8aaad" d="M 0 0 C 0 -2.468 -2 -4.468 -4.468 -4.468 C -6.936 -4.468 -8.937 -2.468 -8.937 0 C -8.937 2.468 -6.936 4.468 -4.468 4.468 C -2 4.468 0 2.468 0 0 Z "/>
<path transform="matrix(1,0,0,-1,55.4697,87.3112)" d="M 0 0 C 0 -2.468 -2 -4.468 -4.468 -4.468 C -6.936 -4.468 -8.937 -2.468 -8.937 0 C -8.937 2.468 -6.936 4.468 -4.468 4.468 C -2 4.468 0 2.468 0 0 " fill="#ffffff"/>
<path transform="matrix(1,0,0,-1,55.4697,87.3112)" stroke-width="1" stroke-linecap="butt" stroke-miterlimit="10" stroke-linejoin="miter" fill="none" stroke="#a8aaad" d="M 0 0 C 0 -2.468 -2 -4.468 -4.468 -4.468 C -6.936 -4.468 -8.937 -2.468 -8.937 0 C -8.937 2.468 -6.936 4.468 -4.468 4.468 C -2 4.468 0 2.468 0 0 Z "/>
<path transform="matrix(1,0,0,-1,68.875,82.842899)" d="M 0 0 C 0 -2.468 -2.001 -4.468 -4.469 -4.468 C -6.937 -4.468 -8.937 -2.468 -8.937 0 C -8.937 2.468 -6.937 4.468 -4.469 4.468 C -2.001 4.468 0 2.468 0 0 " fill="#ffffff"/>
<path transform="matrix(1,0,0,-1,68.875,82.842899)" stroke-width="1" stroke-linecap="butt" stroke-miterlimit="10" stroke-linejoin="miter" fill="none" stroke="#a8aaad" d="M 0 0 C 0 -2.468 -2.001 -4.468 -4.469 -4.468 C -6.937 -4.468 -8.937 -2.468 -8.937 0 C -8.937 2.468 -6.937 4.468 -4.469 4.468 C -2.001 4.468 0 2.468 0 0 Z "/>
<path transform="matrix(1,0,0,-1,39.9673,82.842899)" d="M 0 0 C 0 -2.468 -2 -4.468 -4.468 -4.468 C -6.936 -4.468 -8.937 -2.468 -8.937 0 C -8.937 2.468 -6.936 4.468 -4.468 4.468 C -2 4.468 0 2.468 0 0 " fill="#ffffff"/>
<path transform="matrix(1,0,0,-1,39.9673,82.842899)" stroke-width="1" stroke-linecap="butt" stroke-miterlimit="10" stroke-linejoin="miter" fill="none" stroke="#a8aaad" d="M 0 0 C 0 -2.468 -2 -4.468 -4.468 -4.468 C -6.936 -4.468 -8.937 -2.468 -8.937 0 C -8.937 2.468 -6.936 4.468 -4.468 4.468 C -2 4.468 0 2.468 0 0 Z "/>
<path transform="matrix(1,0,0,-1,52.187,74.635898)" d="M 0 0 C 0 -2.468 -2 -4.468 -4.468 -4.468 C -6.936 -4.468 -8.937 -2.468 -8.937 0 C -8.937 2.468 -6.936 4.468 -4.468 4.468 C -2 4.468 0 2.468 0 0 " fill="#ffffff"/>
<path transform="matrix(1,0,0,-1,52.187,74.635898)" stroke-width="1" stroke-linecap="butt" stroke-miterlimit="10" stroke-linejoin="miter" fill="none" stroke="#a8aaad" d="M 0 0 C 0 -2.468 -2 -4.468 -4.468 -4.468 C -6.936 -4.468 -8.937 -2.468 -8.937 0 C -8.937 2.468 -6.936 4.468 -4.468 4.468 C -2 4.468 0 2.468 0 0 Z "/>
<path transform="matrix(1,0,0,-1,43.2505,67.9787)" d="M 0 0 C 0 -2.468 -2 -4.469 -4.468 -4.469 C -6.936 -4.469 -8.937 -2.468 -8.937 0 C -8.937 2.468 -6.936 4.468 -4.468 4.468 C -2 4.468 0 2.468 0 0 " fill="#ffffff"/>
<path transform="matrix(1,0,0,-1,43.2505,67.9787)" stroke-width="1" stroke-linecap="butt" stroke-miterlimit="10" stroke-linejoin="miter" fill="none" stroke="#a8aaad" d="M 0 0 C 0 -2.468 -2 -4.469 -4.468 -4.469 C -6.936 -4.469 -8.937 -2.468 -8.937 0 C -8.937 2.468 -6.936 4.468 -4.468 4.468 C -2 4.468 0 2.468 0 0 Z "/>
<path transform="matrix(1,0,0,-1,53.3726,62.5988)" d="M 0 0 C 0 -2.468 -2 -4.468 -4.468 -4.468 C -6.936 -4.468 -8.937 -2.468 -8.937 0 C -8.937 2.468 -6.936 4.468 -4.468 4.468 C -2 4.468 0 2.468 0 0 " fill="#ffffff"/>
<path transform="matrix(1,0,0,-1,53.3726,62.5988)" stroke-width="1" stroke-linecap="butt" stroke-miterlimit="10" stroke-linejoin="miter" fill="none" stroke="#a8aaad" d="M 0 0 C 0 -2.468 -2 -4.468 -4.468 -4.468 C -6.936 -4.468 -8.937 -2.468 -8.937 0 C -8.937 2.468 -6.936 4.468 -4.468 4.468 C -2 4.468 0 2.468 0 0 Z "/>
<path transform="matrix(1,0,0,-1,81.7324,98.4821)" d="M 0 0 C 0 -2.468 -2 -4.468 -4.468 -4.468 C -6.936 -4.468 -8.937 -2.468 -8.937 0 C -8.937 2.468 -6.936 4.468 -4.468 4.468 C -2 4.468 0 2.468 0 0 " fill="#ffffff"/>
<path transform="matrix(1,0,0,-1,81.7324,98.4821)" stroke-width="1" stroke-linecap="butt" stroke-miterlimit="10" stroke-linejoin="miter" fill="none" stroke="#a8aaad" d="M 0 0 C 0 -2.468 -2 -4.468 -4.468 -4.468 C -6.936 -4.468 -8.937 -2.468 -8.937 0 C -8.937 2.468 -6.936 4.468 -4.468 4.468 C -2 4.468 0 2.468 0 0 Z "/>
<path transform="matrix(1,0,0,-1,70.5864,106.8259)" d="M 0 0 C 0 -2.468 -2 -4.468 -4.468 -4.468 C -6.936 -4.468 -8.937 -2.468 -8.937 0 C -8.937 2.468 -6.936 4.468 -4.468 4.468 C -2 4.468 0 2.468 0 0 " fill="#ffffff"/>
<path transform="matrix(1,0,0,-1,70.5864,106.8259)" stroke-width="1" stroke-linecap="butt" stroke-miterlimit="10" stroke-linejoin="miter" fill="none" stroke="#a8aaad" d="M 0 0 C 0 -2.468 -2 -4.468 -4.468 -4.468 C -6.936 -4.468 -8.937 -2.468 -8.937 0 C -8.937 2.468 -6.936 4.468 -4.468 4.468 C -2 4.468 0 2.468 0 0 Z "/>
<path transform="matrix(1,0,0,-1,66.1182,46.817598)" d="M 0 0 C 0 -2.468 -2 -4.468 -4.468 -4.468 C -6.936 -4.468 -8.937 -2.468 -8.937 0 C -8.937 2.468 -6.936 4.468 -4.468 4.468 C -2 4.468 0 2.468 0 0 " fill="#ffffff"/>
<path transform="matrix(1,0,0,-1,66.1182,46.817598)" stroke-width="1" stroke-linecap="butt" stroke-miterlimit="10" stroke-linejoin="miter" fill="none" stroke="#a8aaad" d="M 0 0 C 0 -2.468 -2 -4.468 -4.468 -4.468 C -6.936 -4.468 -8.937 -2.468 -8.937 0 C -8.937 2.468 -6.936 4.468 -4.468 4.468 C -2 4.468 0 2.468 0 0 Z "/>
</g>
<symbol id="font_1_2">
<path d="M .41500003 0 L .41500003 .07300001 L .12300001 .07300001 L .12300001 .075 L .17500001 .123 C .31200005 .25500003 .39900006 .35200004 .39900006 .47200004 C .39900006 .565 .34000004 .661 .2 .661 C .125 .661 .061000006 .633 .016000003 .595 L .044 .53300008 C .074 .558 .12300001 .588 .18200001 .588 C .27899999 .588 .311 .527 .311 .46100004 C .31 .363 .235 .279 .069000009 .12100001 L 0 .054 L 0 0 L .41500003 0 Z "/>
</symbol>
<use xlink:href="#font_1_2" transform="matrix(7.6578,0,0,-7.6578,60.0306,49.462404)" fill="#828486"/>
<clipPath id="cp2">
<path transform="matrix(1,0,0,-1,0,222.334)" d="M 0 222.334 L 433.015 222.334 L 433.015 0 L 0 0 Z "/>
</clipPath>
<g clip-path="url(#cp2)">
<path transform="matrix(1,0,0,-1,55.4697,50.561708)" d="M 0 0 C 0 -2.468 -2 -4.468 -4.468 -4.468 C -6.936 -4.468 -8.937 -2.468 -8.937 0 C -8.937 2.468 -6.936 4.468 -4.468 4.468 C -2 4.468 0 2.468 0 0 " fill="#ffffff"/>
<path transform="matrix(1,0,0,-1,55.4697,50.561708)" stroke-width="1" stroke-linecap="butt" stroke-miterlimit="10" stroke-linejoin="miter" fill="none" stroke="#a8aaad" d="M 0 0 C 0 -2.468 -2 -4.468 -4.468 -4.468 C -6.936 -4.468 -8.937 -2.468 -8.937 0 C -8.937 2.468 -6.936 4.468 -4.468 4.468 C -2 4.468 0 2.468 0 0 Z "/>
</g>
<symbol id="font_1_1">
<path d="M .13200002 0 L .21700001 0 L .21700001 .65000006 L .142 .65000006 L 0 .574 L .017000005 .507 L .13000001 .568 L .13200002 .568 L .13200002 0 Z "/>
</symbol>
<use xlink:href="#font_1_1" transform="matrix(7.6578,0,0,-7.6578,49.83401,53.206605)" fill="#828486"/>
<clipPath id="cp3">
<path transform="matrix(1,0,0,-1,0,222.334)" d="M 0 222.334 L 433.015 222.334 L 433.015 0 L 0 0 Z "/>
</clipPath>
<g clip-path="url(#cp3)">
<path transform="matrix(1,0,0,-1,57.8408,38.615404)" d="M 0 0 C 0 -2.468 -2 -4.468 -4.468 -4.468 C -6.936 -4.468 -8.937 -2.468 -8.937 0 C -8.937 2.468 -6.936 4.468 -4.468 4.468 C -2 4.468 0 2.468 0 0 " fill="#ffffff"/>
<path transform="matrix(1,0,0,-1,57.8408,38.615404)" stroke-width="1" stroke-linecap="butt" stroke-miterlimit="10" stroke-linejoin="miter" fill="none" stroke="#a8aaad" d="M 0 0 C 0 -2.468 -2 -4.468 -4.468 -4.468 C -6.936 -4.468 -8.937 -2.468 -8.937 0 C -8.937 2.468 -6.936 4.468 -4.468 4.468 C -2 4.468 0 2.468 0 0 Z "/>
</g>
<symbol id="font_1_3">
<path d="M .385 0 L .385 .177 L .476 .177 L .476 .246 L .385 .246 L .385 .65000006 L .29000003 .65000006 L 0 .23500002 L 0 .177 L .302 .177 L .302 0 L .385 0 M .089 .246 L .089 .24800001 L .24800001 .469 C .26600004 .499 .282 .527 .302 .565 L .305 .565 C .30300004 .531 .302 .497 .302 .46300004 L .302 .246 L .089 .246 Z "/>
</symbol>
<use xlink:href="#font_1_3" transform="matrix(7.6578,0,0,-7.6578,51.523569,40.862794)" fill="#828486"/>
<clipPath id="cp4">
<path transform="matrix(1,0,0,-1,0,222.334)" d="M 0 222.334 L 433.015 222.334 L 433.015 0 L 0 0 Z "/>
</clipPath>
<g clip-path="url(#cp4)">
<path transform="matrix(1,0,0,-1,45.6211,44.719896)" d="M 0 0 C 0 -2.468 -2 -4.468 -4.468 -4.468 C -6.936 -4.468 -8.937 -2.468 -8.937 0 C -8.937 2.468 -6.936 4.468 -4.468 4.468 C -2 4.468 0 2.468 0 0 " fill="#ffffff"/>
<path transform="matrix(1,0,0,-1,45.6211,44.719896)" stroke-width="1" stroke-linecap="butt" stroke-miterlimit="10" stroke-linejoin="miter" fill="none" stroke="#a8aaad" d="M 0 0 C 0 -2.468 -2 -4.468 -4.468 -4.468 C -6.936 -4.468 -8.937 -2.468 -8.937 0 C -8.937 2.468 -6.936 4.468 -4.468 4.468 C -2 4.468 0 2.468 0 0 Z "/>
</g>
<use xlink:href="#font_1_2" transform="matrix(7.6578,0,0,-7.6578,39.5336,46.8179)" fill="#828486"/>
<clipPath id="cp5">
<path transform="matrix(1,0,0,-1,0,222.334)" d="M 0 222.334 L 433.015 222.334 L 433.015 0 L 0 0 Z "/>
</clipPath>
<g clip-path="url(#cp5)">
<path transform="matrix(1,0,0,-1,42.3208,56.349306)" d="M 0 0 C 0 -2.468 -2 -4.468 -4.468 -4.468 C -6.936 -4.468 -8.937 -2.468 -8.937 0 C -8.937 2.468 -6.936 4.468 -4.468 4.468 C -2 4.468 0 2.468 0 0 " fill="#ffffff"/>
<path transform="matrix(1,0,0,-1,42.3208,56.349306)" stroke-width="1" stroke-linecap="butt" stroke-miterlimit="10" stroke-linejoin="miter" fill="none" stroke="#a8aaad" d="M 0 0 C 0 -2.468 -2 -4.468 -4.468 -4.468 C -6.936 -4.468 -8.937 -2.468 -8.937 0 C -8.937 2.468 -6.936 4.468 -4.468 4.468 C -2 4.468 0 2.468 0 0 Z "/>
</g>
<use xlink:href="#font_1_2" transform="matrix(7.6578,0,0,-7.6578,36.2338,58.5972)" fill="#828486"/>
<symbol id="font_6_35">
<path d="M .176 .72800007 C .25266669 .728 .31533335 .71166679 .36400003 .679 C .4133334 .6463334 .43800006 .59833338 .43800006 .535 C .43800006 .443 .39200006 .38000003 .3 .34600003 C .34800003 .31933335 .38266669 .2786667 .404 .224 C .426 .17 .444 .09533334 .45800004 0 L .39800004 0 C .3706667 .21733333 .30366669 .326 .19700003 .326 L .060000004 .326 L .060000004 0 L 0 0 L 0 .711 C .05800001 .7223334 .116666678 .728 .176 .72800007 M .19300002 .37600003 C .24900002 .37600003 .2936667 .38866673 .32700003 .41400004 C .36100004 .43933336 .37800003 .477 .37800003 .527 C .37800003 .6276667 .31066669 .67800006 .176 .67800006 C .120666678 .67800006 .08200001 .6746667 .060000004 .66800007 L .060000004 .37600003 L .19300002 .37600003 Z "/>
</symbol>
<symbol id="font_6_48">
<path d="M .060000004 .26500003 C .062000004 .20033336 .08133334 .14833334 .11800001 .109000008 C .15533333 .069666679 .205 .05 .26700003 .050000006 C .32500003 .05 .38466669 .062000008 .446 .086 L .451 .037000006 C .39166669 .012333336 .32833336 .0000000009313226 .261 .0000000009313226 C .18433333 .0000000009313226 .12166667 .023666667 .07300001 .071 C .024333336 .11900001 0 .18066669 0 .256 C 0 .33666668 .023333336 .40333335 .07000001 .45600004 C .11733333 .5093334 .179 .536 .255 .536 C .39833335 .536 .4716667 .44566668 .47500003 .26500003 L .060000004 .26500003 M .41500003 .31500004 C .4136667 .367 .3976667 .40833334 .367 .439 C .337 .47033335 .29733334 .48600004 .248 .48600004 C .19866665 .48600004 .15733333 .4696667 .124000009 .437 C .090666677 .405 .07033333 .36433337 .063 .31500004 L .41500003 .31500004 Z "/>
</symbol>
<symbol id="font_6_44">
<path d="M .163 .0000000009313226 C .11766666 .0000000009313226 .079 .013000001 .047000003 .039 C .015666668 .06566667 0 .1 0 .142 C 0 .26933334 .11333334 .333 .34 .333 C .34 .38166667 .32833336 .41933335 .305 .446 C .28166668 .4726667 .24733335 .48600004 .202 .48600004 C .16533333 .48600004 .111 .47466669 .039 .45200003 L .032 .50900009 C .088 .527 .146 .536 .206 .536 C .33533336 .536 .4 .4646667 .4 .32200004 L .4 .139 C .4 .097 .40600003 .055333336 .418 .014000001 L .36600004 .0030000006 L .345 .086 C .29900003 .028666668 .23833335 .0000000009313226 .163 .0000000009313226 M .060000007 .15200001 C .060000007 .120666678 .069666679 .09566667 .089 .077 C .10833333 .059000005 .13366668 .05 .165 .050000006 C .205 .05 .244 .062333336 .282 .087000008 C .32066668 .11233335 .34 .143 .34 .179 L .34 .28300003 C .15333334 .28300003 .060000007 .23933335 .060000007 .15200001 Z "/>
</symbol>
<symbol id="font_6_47">
<path d="M 0 .27600003 C 0 .35066668 .020666667 .41266669 .062 .462 C .104 .51133337 .16000001 .536 .23000002 .536 C .3146667 .536 .37900005 .5 .42300005 .42800004 L .42300005 .77400007 L .48300005 .77400007 L .48300005 .139 C .48300005 .079 .48433338 .037333337 .48700006 .014000001 L .43200005 .014000001 C .43000005 .040000004 .42900003 .07 .42900003 .104 C .38166667 .03466667 .31833337 .0000000009313226 .23900002 .0000000009313226 C .16433335 .0000000009313226 .10566667 .025666668 .063 .077 C .021 .129 0 .19533335 0 .27600003 M .24700001 .050000006 C .29633335 .05 .33800004 .06600001 .37200005 .098000008 C .40600006 .13066668 .423 .171 .42300005 .21900001 L .42300005 .30400003 C .423 .35533334 .40533338 .39833335 .37000004 .43300004 C .33533336 .46833337 .29233337 .48600004 .24100003 .48600004 C .18300002 .48600004 .13833334 .46633337 .107 .42700003 C .075666669 .38766668 .060000004 .33666668 .060000004 .27400003 C .060000004 .12466667 .12233334 .05 .24700001 .050000006 Z "/>
</symbol>
<symbol id="font_6_56">
<path d="M .17700002 .48600004 C .149 .48600004 .12566668 .47800002 .10700001 .462 C .08833333 .4466667 .078999999 .42633335 .078999999 .40100003 C .078999999 .38233338 .08866667 .364 .10800001 .34600003 C .128 .328 .15600002 .31266669 .19200002 .3 C .28333337 .26866669 .32900004 .21833335 .32900004 .149 C .32900004 .10233334 .31133337 .06566667 .27600003 .039 C .24133335 .013000001 .19733334 .0000000009313226 .14400001 .0000000009313226 C .09466668 .0000000009313226 .04666667 .013666667 0 .041 L .021999997 .089 C .07000001 .063 .112333338 .05 .149 .050000006 C .22900002 .05 .26900003 .08166667 .26900003 .14500001 C .26900003 .16833334 .25933335 .18933334 .24000001 .208 C .22133334 .22733335 .19333335 .24266668 .156 .254 C .064666669 .282 .018999998 .32833336 .018999998 .393 C .018999998 .43633334 .035 .47100006 .067 .497 C .09966668 .523 .14 .536 .18800001 .536 C .24066669 .536 .28266669 .52433338 .314 .50100007 L .29000003 .45000003 C .26000003 .474 .22233336 .48600004 .17700002 .48600004 Z "/>
</symbol>
<use xlink:href="#font_6_35" transform="matrix(11.3584,0,0,-11.3584,42.10463,24.712906)" fill="#a8aaad"/>
<use xlink:href="#font_6_48" transform="matrix(11.3584,0,0,-11.3584,48.124586,24.871924)" fill="#a8aaad"/>
<use xlink:href="#font_6_44" transform="matrix(11.3584,0,0,-11.3584,54.48529,24.871924)" fill="#a8aaad"/>
<use xlink:href="#font_6_47" transform="matrix(11.3584,0,0,-11.3584,60.39166,24.871924)" fill="#a8aaad"/>
<use xlink:href="#font_6_56" transform="matrix(11.3584,0,0,-11.3584,67.26349,24.871924)" fill="#a8aaad"/>
<clipPath id="cp7">
<path transform="matrix(1,0,0,-1,0,222.334)" d="M 0 222.334 L 433.015 222.334 L 433.015 0 L 0 0 Z "/>
</clipPath>
<g clip-path="url(#cp7)">
<path transform="matrix(1,0,0,-1,297.1841,29.450394)" stroke-width=".75" stroke-linecap="butt" stroke-miterlimit="10" stroke-linejoin="miter" fill="none" stroke="#a8aaad" d="M 0 0 L 0 -80.841 "/>
<path transform="matrix(1,0,0,-1,389.5,110.2917)" stroke-width=".75" stroke-linecap="butt" stroke-miterlimit="10" stroke-linejoin="miter" fill="none" stroke="#a8aaad" d="M 0 0 L -92.316 0 "/>
<path transform="matrix(1,0,0,-1,0,222.334)" d="M 347.935 138.755 L 334.819 138.755 L 334.819 112.04201 L 347.935 112.04201 Z " fill="#9384be"/>
<path transform="matrix(1,0,0,-1,0,222.334)" d="M 333.296 118.721 L 320.18 118.721 L 320.18 112.043 L 333.296 112.043 Z " fill="#9384be"/>
<path transform="matrix(1,0,0,-1,0,222.334)" d="M 318.657 181.471 L 305.54103 181.471 L 305.54103 112.04199 L 318.657 112.04199 Z " fill="#9384be"/>
<path transform="matrix(1,0,0,-1,0,222.334)" d="M 377.212 118.721 L 364.096 118.721 L 364.096 112.043 L 377.212 112.043 Z " fill="#9384be"/>
<path transform="matrix(1,0,0,-1,297.1841,29.450394)" stroke-width=".75" stroke-linecap="butt" stroke-miterlimit="10" stroke-linejoin="miter" fill="none" stroke="#a8aaad" d="M 0 0 L 0 -80.841 "/>
<path transform="matrix(1,0,0,-1,389.5,110.2917)" stroke-width=".75" stroke-linecap="butt" stroke-miterlimit="10" stroke-linejoin="miter" fill="none" stroke="#a8aaad" d="M 0 0 L -92.316 0 "/>
<path transform="matrix(1,0,0,-1,0,222.334)" d="M 347.935 138.755 L 334.819 138.755 L 334.819 112.04201 L 347.935 112.04201 Z " fill="#9384be"/>
<path transform="matrix(1,0,0,-1,0,222.334)" d="M 333.296 118.721 L 320.18 118.721 L 320.18 112.043 L 333.296 112.043 Z " fill="#9384be"/>
<path transform="matrix(1,0,0,-1,0,222.334)" d="M 318.657 190.407 L 305.54103 190.407 L 305.54103 112.043 L 318.657 112.043 Z " fill="#9384be"/>
<path transform="matrix(1,0,0,-1,0,222.334)" d="M 377.212 118.721 L 364.096 118.721 L 364.096 112.043 L 377.212 112.043 Z " fill="#9384be"/>
</g>
<symbol id="font_6_16">
<path d="M .266 .453 C .3186667 .45299999 .36100004 .43433333 .39300005 .397 C .4256667 .35966669 .44200004 .31366668 .44200004 .259 C .44200004 .18233335 .41533337 .120000008 .36200003 .072000008 C .30933336 .024000003 .24300003 .0000000009313226 .16300002 .0000000009313226 C .09566668 .0000000009313226 .041333338 .01866667 0 .056000007 L .026000005 .092 C .06266667 .064 .11133333 .05 .172 .050000006 C .22733335 .05 .27600003 .07066667 .31800003 .112 C .36066667 .15333335 .38200007 .20133335 .38200004 .256 C .38200007 .296 .3696667 .33033336 .34500004 .35900004 C .321 .38833336 .29066668 .40300004 .254 .40300004 C .21066667 .40300004 .17733336 .39133335 .15400002 .368 L .12500002 .41300003 L .23900002 .50100007 C .2936667 .54366669 .321 .58133336 .321 .614 C .321 .66600009 .28833334 .6920001 .22300002 .69200006 C .149 .6920001 .09266666 .65300008 .054 .57500007 L .011999998 .59800007 C .027333335 .63933339 .05433334 .6736667 .09300001 .70100006 C .13166668 .7283334 .17633336 .74200007 .22700003 .74200007 C .26900003 .74200007 .30500005 .7303333 .335 .707 C .36566667 .6843333 .381 .65400007 .381 .61600008 C .381 .57000008 .3396667 .5156667 .25700004 .453 L .266 .453 Z "/>
</symbol>
<symbol id="font_6_15">
<path d="M .25300003 .72800007 C .3076667 .728 .35366667 .7106667 .391 .67600008 C .42833338 .642 .44700004 .59866669 .44700004 .546 C .44700004 .46333338 .3866667 .3646667 .266 .25 C .15733333 .14733334 .09566667 .08066667 .081 .05 L .465 .05 L .453 0 L 0 0 C .0040000008 .026 .011000001 .05466667 .021000002 .086 C .059000005 .12466667 .10666668 .17166668 .164 .22700002 C .21266668 .27366669 .27100004 .33733336 .33900003 .418 C .37100003 .45533336 .387 .4996667 .38700003 .551 C .387 .58966669 .37433336 .6203334 .349 .643 C .3236667 .6663334 .291 .67800006 .25100003 .67800006 C .16166668 .67800006 .11066667 .63100007 .098000008 .537 L .044000005 .55200007 C .049333339 .6066667 .07033334 .6496667 .10700001 .68100008 C .14366667 .7123334 .19233334 .728 .25300003 .72800007 Z "/>
</symbol>
<symbol id="font_6_14">
<path d="M .319 0 L .033000009 0 L .033000009 .05 L .146 .05 L .146 .63600006 L .033000009 .53800007 L 0 .57600006 L .17300001 .72800007 C .19500001 .728 .20600002 .70900008 .206 .671 L .206 .05 L .319 .05 L .319 0 Z "/>
</symbol>
<symbol id="font_6_13">
<path d="M .22500001 .74200007 C .2636667 .74200007 .2976667 .7306667 .32700003 .708 C .35700003 .68600007 .3803334 .656 .39700005 .61800006 C .41433338 .5806667 .42733336 .54 .43600003 .49600003 C .4446667 .45266668 .44900004 .40733338 .44900004 .36 C .44900004 .30200003 .441 .24633335 .42500005 .193 C .40900005 .13966668 .38333337 .094000007 .34800003 .056000007 C .31333337 .01866667 .27233336 .0000000009313226 .22500001 .0000000009313226 C .17766667 .0000000009313226 .13633333 .01866667 .100999999 .056000007 C .06566667 .093333337 .040000004 .13866668 .024 .192 C .008 .24533336 0 .30133335 0 .36 C 0 .40666668 .0043333338 .45200003 .013 .49600003 C .02166667 .54 .034666674 .5806667 .052000006 .61800006 C .06933333 .65533336 .092999998 .6853333 .122999999 .708 C .153 .7306667 .18699999 .74200007 .22500001 .74200007 M .22500001 .69200006 C .18566668 .6920001 .15300001 .674 .127 .638 C .101 .60200008 .083333339 .5603334 .074 .513 C .064666669 .46633337 .060000007 .416 .060000007 .36200003 C .060000007 .32733334 .06333334 .29233334 .07000001 .25700004 C .07666667 .2216667 .086333338 .18833335 .09900001 .157 C .11166667 .12566667 .12900001 .1 .15100001 .08 C .173 .060000004 .19766666 .05 .22500001 .050000006 C .25233338 .05 .2766667 .060000004 .29800005 .08 C .32000003 .1 .33733336 .12566667 .35000003 .157 C .3626667 .18900001 .37233339 .22233336 .37900005 .25700004 C .3856667 .29233334 .38900004 .32733334 .38900004 .36200003 C .38900004 .40066669 .38600005 .43833337 .38000003 .47500003 C .3746667 .5116667 .36600004 .5466667 .35400004 .58000007 C .342 .614 .3246667 .64100006 .30200003 .661 C .28 .6816667 .25433336 .6920001 .22500001 .69200006 Z "/>
</symbol>
<symbol id="font_6_17">
<path d="M .30400003 .21700001 L .30400003 .651 C .2386667 .619 .18233335 .56133338 .13500002 .47800002 C .088333349 .39466668 .06500001 .3076667 .06500001 .21700001 L .30400003 .21700001 M .36400003 .21700001 L .47100006 .21700001 L .46300004 .16700001 L .36400003 .16700001 L .36400003 0 L .30400003 0 L .30400003 .16700001 L .0000000037252905 .16700001 C .0000000037252905 .31100003 .032666677 .43466673 .09800002 .53800007 C .16333336 .642 .252 .7053334 .36400003 .72800007 L .36400003 .21700001 Z "/>
</symbol>
<use xlink:href="#font_6_16" transform="matrix(9.3305,0,0,-9.3305,353.76197,120.63553)" fill="#a8aaad"/>
<use xlink:href="#font_6_15" transform="matrix(9.3305,0,0,-9.3305,338.82383,120.5049)" fill="#a8aaad"/>
<use xlink:href="#font_6_14" transform="matrix(9.3305,0,0,-9.3305,324.6881,120.5049)" fill="#a8aaad"/>
<use xlink:href="#font_6_13" transform="matrix(9.3305,0,0,-9.3305,309.24613,120.63553)" fill="#a8aaad"/>
<use xlink:href="#font_6_17" transform="matrix(9.3305,0,0,-9.3305,368.56947,120.5049)" fill="#a8aaad"/>
<clipPath id="cp8">
<path transform="matrix(1,0,0,-1,0,222.334)" d="M 0 222.334 L 433.015 222.334 L 433.015 0 L 0 0 Z "/>
</clipPath>
<g clip-path="url(#cp8)">
<path transform="matrix(1,0,0,-1,146.5913,29.450394)" stroke-width=".75" stroke-linecap="butt" stroke-miterlimit="10" stroke-linejoin="miter" fill="none" stroke="#a8aaad" d="M 0 0 L 0 -80.841 "/>
<path transform="matrix(1,0,0,-1,238.9072,110.2917)" stroke-width=".75" stroke-linecap="butt" stroke-miterlimit="10" stroke-linejoin="miter" fill="none" stroke="#a8aaad" d="M 0 0 L -92.316 0 "/>
<path transform="matrix(1,0,0,-1,0,222.334)" d="M 197.342 138.755 L 184.226 138.755 L 184.226 112.04201 L 197.342 112.04201 Z " fill="#ebaa51"/>
<path transform="matrix(1,0,0,-1,0,222.334)" d="M 182.703 118.721 L 169.587 118.721 L 169.587 112.043 L 182.703 112.043 Z " fill="#ebaa51"/>
<path transform="matrix(1,0,0,-1,0,222.334)" d="M 226.619 118.721 L 213.503 118.721 L 213.503 112.043 L 226.619 112.043 Z " fill="#ebaa51"/>
</g>
<use xlink:href="#font_6_16" transform="matrix(9.3305,0,0,-9.3305,203.16967,120.63553)" fill="#a8aaad"/>
<use xlink:href="#font_6_15" transform="matrix(9.3305,0,0,-9.3305,188.23154,120.5049)" fill="#a8aaad"/>
<use xlink:href="#font_6_14" transform="matrix(9.3305,0,0,-9.3305,174.09583,120.5049)" fill="#a8aaad"/>
<use xlink:href="#font_6_13" transform="matrix(9.3305,0,0,-9.3305,158.65384,120.63553)" fill="#a8aaad"/>
<use xlink:href="#font_6_17" transform="matrix(9.3305,0,0,-9.3305,217.97714,120.5049)" fill="#a8aaad"/>
<symbol id="font_6_3">
<path d="M 0 0 Z "/>
</symbol>
<symbol id="font_6_5a">
<path d="M .758 .51100006 L .57400009 0 L .523 0 L .37600003 .45100004 L .22100002 0 L .16600001 0 L 0 .51100006 L .061 .51100006 L .19700001 .069000009 L .35000003 .51100006 L .40600003 .51100006 L .55 .069000009 L .69900009 .51100006 L .758 .51100006 Z "/>
</symbol>
<symbol id="font_6_5d">
<path d="M .43 0 L 0 0 L 0 .038000004 L .361 .46100004 L .018 .46100004 L .026999999 .51100006 L .43400003 .51100006 L .43300004 .469 L .073 .05 L .44200004 .05 L .43 0 Z "/>
</symbol>
<symbol id="font_6_55">
<path d="M .25000004 .47000004 C .246 .47133336 .24000001 .47200004 .23200003 .47200004 C .18800001 .47200004 .15066667 .45400004 .12000001 .418 C .09000001 .38266669 .07500001 .335 .07500001 .275 L .07500001 0 L .015000001 0 L .015000001 .344 C .015000001 .41933335 .010000001 .47500003 0 .51100006 L .051000008 .51100006 C .06166668 .4896667 .06700001 .4556667 .06700001 .409 C .09900001 .48433338 .15033335 .522 .22100002 .522 C .23033335 .522 .24000001 .521 .25000004 .51900008 L .25000004 .47000004 Z "/>
</symbol>
<symbol id="font_6_52">
<path d="M .51600006 .268 C .51600006 .19199999 .4916667 .12833333 .44300003 .077 C .395 .025666668 .33333335 .0000000009313226 .25800003 .0000000009313226 C .182 .0000000009313226 .12 .025333336 .072000008 .076000008 C .024000003 .12733335 0 .19133334 0 .268 C 0 .344 .024333336 .40766669 .07300001 .45900003 C .12166667 .51033338 .18333334 .536 .25800003 .536 C .33333335 .536 .395 .51033338 .44300003 .45900003 C .4916667 .40766669 .51600006 .344 .51600006 .268 M .25800003 .050000006 C .316 .05 .36333335 .071 .4 .113000009 C .43733336 .155 .456 .20666667 .456 .268 C .456 .32933335 .43766666 .381 .40100003 .423 C .36433337 .46500004 .3166667 .48600004 .25800003 .48600004 C .2 .48600004 .15233334 .46500004 .115 .423 C .07833334 .381 .060000004 .32933335 .060000004 .268 C .060000004 .20666667 .07833334 .155 .115 .113000009 C .15233334 .071 .2 .05 .25800003 .050000006 Z "/>
</symbol>
<symbol id="font_6_12">
<path d="M .44500003 .7860001 L .057000005 0 L 0 0 L .38300003 .7860001 L .44500003 .7860001 Z "/>
</symbol>
<use xlink:href="#font_6_35" transform="matrix(11.3584,0,0,-11.3584,307.84684,19.878907)" fill="#a8aaad"/>
<use xlink:href="#font_6_48" transform="matrix(11.3584,0,0,-11.3584,313.86677,20.037924)" fill="#a8aaad"/>
<use xlink:href="#font_6_44" transform="matrix(11.3584,0,0,-11.3584,320.22746,20.037924)" fill="#a8aaad"/>
<use xlink:href="#font_6_47" transform="matrix(11.3584,0,0,-11.3584,326.13383,20.037924)" fill="#a8aaad"/>
<use xlink:href="#font_6_56" transform="matrix(11.3584,0,0,-11.3584,333.00566,20.037924)" fill="#a8aaad"/>
<use xlink:href="#font_6_3" transform="matrix(11.3584,0,0,-11.3584,337.32185,19.878907)" fill="#a8aaad"/>
<use xlink:href="#font_6_5a" transform="matrix(11.3584,0,0,-11.3584,341.05876,19.878907)" fill="#a8aaad"/>
<use xlink:href="#font_6_3" transform="matrix(11.3584,0,0,-11.3584,349.65705,19.878907)" fill="#a8aaad"/>
<use xlink:href="#font_6_5d" transform="matrix(11.3584,0,0,-11.3584,353.5984,19.878907)" fill="#a8aaad"/>
<use xlink:href="#font_6_48" transform="matrix(11.3584,0,0,-11.3584,359.27763,20.037924)" fill="#a8aaad"/>
<use xlink:href="#font_6_55" transform="matrix(11.3584,0,0,-11.3584,365.91093,19.878907)" fill="#a8aaad"/>
<use xlink:href="#font_6_52" transform="matrix(11.3584,0,0,-11.3584,369.3639,20.037924)" fill="#a8aaad"/>
<use xlink:href="#font_6_56" transform="matrix(11.3584,0,0,-11.3584,376.19029,20.037924)" fill="#a8aaad"/>
<use xlink:href="#font_6_35" transform="matrix(11.3584,0,0,-11.3584,151.65746,19.878907)" fill="#a8aaad"/>
<use xlink:href="#font_6_48" transform="matrix(11.3584,0,0,-11.3584,157.67742,20.037924)" fill="#a8aaad"/>
<use xlink:href="#font_6_44" transform="matrix(11.3584,0,0,-11.3584,164.03812,20.037924)" fill="#a8aaad"/>
<use xlink:href="#font_6_47" transform="matrix(11.3584,0,0,-11.3584,169.94449,20.037924)" fill="#a8aaad"/>
<use xlink:href="#font_6_56" transform="matrix(11.3584,0,0,-11.3584,176.81633,20.037924)" fill="#a8aaad"/>
<use xlink:href="#font_6_3" transform="matrix(11.3584,0,0,-11.3584,181.13253,19.878907)" fill="#a8aaad"/>
<use xlink:href="#font_6_5a" transform="matrix(11.3584,0,0,-11.3584,184.86943,19.878907)" fill="#a8aaad"/>
<use xlink:href="#font_6_12" transform="matrix(11.3584,0,0,-11.3584,193.16107,20.378676)" fill="#a8aaad"/>
<use xlink:href="#font_6_52" transform="matrix(11.3584,0,0,-11.3584,198.54496,20.037924)" fill="#a8aaad"/>
<use xlink:href="#font_6_3" transform="matrix(11.3584,0,0,-11.3584,204.87158,19.878907)" fill="#a8aaad"/>
<use xlink:href="#font_6_5d" transform="matrix(11.3584,0,0,-11.3584,208.81295,19.878907)" fill="#a8aaad"/>
<use xlink:href="#font_6_48" transform="matrix(11.3584,0,0,-11.3584,214.49214,20.037924)" fill="#a8aaad"/>
<use xlink:href="#font_6_55" transform="matrix(11.3584,0,0,-11.3584,221.12545,19.878907)" fill="#a8aaad"/>
<use xlink:href="#font_6_52" transform="matrix(11.3584,0,0,-11.3584,224.5784,20.037924)" fill="#a8aaad"/>
<use xlink:href="#font_6_56" transform="matrix(11.3584,0,0,-11.3584,231.4048,20.037924)" fill="#a8aaad"/>
<symbol id="font_6_e">
<path d="M .50400009 .24800001 L .278 .24800001 L .278 0 L .22600001 0 L .22600001 .24800001 L 0 .24800001 L 0 .298 L .22600001 .298 L .22600001 .537 L .278 .537 L .278 .298 L .50400009 .298 L .50400009 .24800001 Z "/>
</symbol>
<symbol id="font_6_5b">
<path d="M .47800002 0 L .409 0 L .238 .22100002 L .068 0 L 0 0 L .208 .26000003 L .014 .51100006 L .080000009 .51100006 L .24200002 .30400003 L .40300004 .51100006 L .46800003 .51100006 L .272 .26200003 L .47800002 0 Z "/>
</symbol>
<use xlink:href="#font_6_e" transform="matrix(18.5646,0,0,-18.5646,242.37609,74.6358)" fill="#a8aaad"/>
<use xlink:href="#font_6_3" transform="matrix(18.5646,0,0,-18.5646,252.79084,74.6358)" fill="#a8aaad"/>
<use xlink:href="#font_6_15" transform="matrix(18.5646,0,0,-18.5646,259.5298,74.6358)" fill="#a8aaad"/>
<use xlink:href="#font_6_3" transform="matrix(18.5646,0,0,-18.5646,268.9049,74.6358)" fill="#a8aaad"/>
<use xlink:href="#font_6_5b" transform="matrix(18.5646,0,0,-18.5646,274.91984,74.6358)" fill="#a8aaad"/>
<symbol id="font_1_4">
<path d="M .114 .076000008 L .33100004 .33800004 L .125 .59800007 L .125 .60200008 L .46600003 .60200008 L .46600003 .674 L .013 .674 L .013 .615 L .23400003 .335 L 0 .052 L 0 0 L .49800007 0 L .49800007 .07300001 L .114 .07300001 L .114 .076000008 Z "/>
</symbol>
<use xlink:href="#font_1_4" transform="matrix(12,0,0,-12,21.7261,149.5664)" fill="#a8aaad"/>
<symbol id="font_6_20">
<path d="M .45200003 .246 L .45200003 .196 L 0 .196 L 0 .246 L .45200003 .246 M .45200003 .049999998 L .45200003 0 L 0 0 L 0 .049999998 L .45200003 .049999998 Z "/>
</symbol>
<symbol id="font_6_1d">
<path d="M .051 .10400001 C .065 .10400001 .07733333 .098666679 .088 .08800001 C .09866667 .07733334 .104 .065000008 .104 .051000004 C .104 .037 .09866667 .025 .088 .015000001 C .07733333 .0050000005 .065 0 .051 0 C .037 0 .025 .0050000005 .015000001 .015000001 C .0050000005 .025 0 .037 0 .051000004 C 0 .065000008 .0050000005 .07733334 .015000001 .08800001 C .025 .098666679 .037 .10400001 .051 .10400001 M .051 .48700003 C .065 .48700003 .07733333 .48166669 .088 .47100003 C .09866667 .46100006 .104 .44900004 .104 .43500004 C .104 .42100004 .09866667 .40900005 .088 .39900003 C .07733333 .38900004 .065 .38400004 .051 .38400004 C .037 .38400004 .025 .38900004 .015000001 .39900003 C .0050000005 .40900005 0 .42100004 0 .43500004 C 0 .44900004 .0050000005 .46100006 .015000001 .47100003 C .025 .48166669 .037 .48700003 .051 .48700003 Z "/>
</symbol>
<use xlink:href="#font_6_3" transform="matrix(12,0,0,-12,28.038102,149.5664)" fill="#a8aaad"/>
<use xlink:href="#font_6_20" transform="matrix(12,0,0,-12,32.9221,147.73041)" fill="#a8aaad"/>
<use xlink:href="#font_6_3" transform="matrix(12,0,0,-12,39.342103,149.5664)" fill="#a8aaad"/>
<use xlink:href="#font_6_13" transform="matrix(12,0,0,-12,43.7941,149.7344)" fill="#a8aaad"/>
<use xlink:href="#font_6_3" transform="matrix(12,0,0,-12,49.758104,149.5664)" fill="#a8aaad"/>
<use xlink:href="#font_6_1d" transform="matrix(12,0,0,-12,54.474103,149.67441)" fill="#a8aaad"/>
<use xlink:href="#font_6_3" transform="matrix(12,0,0,-12,56.562105,149.5664)" fill="#a8aaad"/>
<symbol id="font_9_b">
<path d="M .17800002 0 C .05933334 .12400001 0 .26933337 0 .43600003 C 0 .5926667 .05766667 .7406667 .17300001 .88000008 L .28400005 .88000008 C .15666668 .7406667 .09300002 .5926667 .09300001 .43600003 C .09300002 .28666667 .15633334 .14133334 .283 0 L .17800002 0 Z "/>
</symbol>
<symbol id="font_9_3b">
<path d="M .646 0 L .533 0 L .32500003 .29000003 L .115 0 L 0 0 L .26700003 .367 L .011000001 .716 L .127 .716 L .32500003 .43600003 L .519 .716 L .637 .716 L .381 .367 L .646 0 Z "/>
</symbol>
<symbol id="font_9_3">
<path d="M 0 0 Z "/>
</symbol>
<symbol id="font_9_e">
<path d="M .31700004 0 L .222 0 L .222 .23600002 L 0 .23600002 L 0 .319 L .222 .319 L .222 .546 L .31700004 .546 L .31700004 .319 L .54 .319 L .54 .23600002 L .31700004 .23600002 L .31700004 0 Z "/>
</symbol>
<symbol id="font_9_13">
<path d="M .48300005 .367 C .48300005 .30366669 .47466669 .245 .458 .191 C .442 .13766666 .41500006 .09233334 .37700004 .055000005 C .33900003 .018333337 .293 .0000000009313226 .23900002 .0000000009313226 C .18633335 .0000000009313226 .14133333 .01866667 .10400001 .056000007 C .06666667 .094000007 .04 .13966668 .023999997 .193 C .0079999989 .24700003 0 .30500005 0 .367 C 0 .42900003 .0079999989 .487 .023999997 .541 C .04 .595 .06666667 .6406667 .10400001 .67800006 C .14133333 .716 .18633335 .73499998 .23900002 .735 C .28033338 .73499998 .31700004 .72433337 .34900005 .703 C .38100005 .6816667 .40633337 .65300008 .425 .61700007 C .44433335 .5816667 .4586667 .5426667 .46800006 .50000008 C .47800005 .45800004 .48300005 .4136667 .48300005 .367 M .38700003 .367 C .387 .40233336 .38466669 .43566669 .38000003 .467 C .37533335 .49833334 .3676667 .52833339 .35700003 .55700007 C .347 .58633336 .33200003 .60933336 .312 .62600007 C .29266668 .6433334 .26933337 .652 .24200002 .652 C .21400003 .652 .19000001 .6436667 .17000002 .62700006 C .15000002 .6103334 .13466668 .5873334 .124000009 .558 C .114 .52933338 .10666668 .49933339 .102000009 .46800003 C .09800001 .4366667 .09600001 .403 .09600001 .367 C .09600001 .331 .09800001 .29733337 .102000009 .266 C .10666668 .23533334 .114 .20533335 .124000009 .176 C .13466668 .14733334 .15000002 .12466667 .17000002 .108 C .19000001 .09133334 .21366668 .083000008 .24100003 .083000008 C .26900003 .083000008 .293 .09133334 .31300003 .108 C .33300004 .12466667 .34800003 .14733334 .358 .176 C .36866669 .20466668 .37600003 .23466666 .38000003 .266 C .38466669 .29733337 .387 .331 .38700003 .367 Z "/>
</symbol>
<symbol id="font_9_c">
<path d="M .28200004 .441 C .28200004 .27566669 .22300004 .12866669 .105000007 0 L .0010000002 0 C .12633334 .14933335 .18900001 .29633335 .18900001 .441 C .18900001 .58633336 .126 .73266676 0 .88000008 L .103 .88000008 C .22233336 .7526667 .28200004 .6063333 .28200004 .441 Z "/>
</symbol>
<use xlink:href="#font_9_b" transform="matrix(12,0,0,-12,61.242105,150.56241)" fill="#a8aaad"/>
<use xlink:href="#font_9_3b" transform="matrix(12,0,0,-12,64.8301,149.5664)" fill="#a8aaad"/>
<use xlink:href="#font_9_3" transform="matrix(12,0,0,-12,72.5341,149.5664)" fill="#a8aaad"/>
<use xlink:href="#font_9_e" transform="matrix(12,0,0,-12,77.130107,149.5664)" fill="#a8aaad"/>
<use xlink:href="#font_9_3" transform="matrix(12,0,0,-12,84.12611,149.5664)" fill="#a8aaad"/>
<use xlink:href="#font_9_13" transform="matrix(12,0,0,-12,88.698108,149.7344)" fill="#a8aaad"/>
<use xlink:href="#font_9_3" transform="matrix(12,0,0,-12,95.01011,149.5664)" fill="#a8aaad"/>
<use xlink:href="#font_9_e" transform="matrix(12,0,0,-12,99.60611,149.5664)" fill="#a8aaad"/>
<use xlink:href="#font_9_3" transform="matrix(12,0,0,-12,106.60211,149.5664)" fill="#a8aaad"/>
<use xlink:href="#font_9_13" transform="matrix(12,0,0,-12,111.17411,149.7344)" fill="#a8aaad"/>
<use xlink:href="#font_9_c" transform="matrix(12,0,0,-12,117.69012,150.56241)" fill="#a8aaad"/>
<symbol id="font_6_79">
<path d="M .051 .104 C .065 .104 .07733333 .09866667 .088 .088 C .09866667 .07733333 .104 .065 .104 .051 C .104 .037 .09866667 .025 .088 .015000001 C .07733333 .0050000005 .065 0 .051 0 C .037 0 .025 .0050000005 .015000001 .015000001 C .0050000005 .025 0 .037 0 .051 C 0 .065 .0050000005 .07733333 .015000001 .088 C .025 .09866667 .037 .104 .051 .104 Z "/>
</symbol>
<symbol id="font_6_d">
<path d="M .375 .14700002 L .22000002 .16100002 L .316 .032000007 L .266 0 L .18700002 .14899999 L .108 0 L .059 .032000007 L .15500002 .16100002 L 0 .14700002 L 0 .20500005 L .15500002 .194 L .059 .32200004 L .116000007 .35500003 L .18800001 .21700001 L .259 .35500003 L .316 .32200004 L .22000002 .194 L .375 .20500005 L .375 .14700002 Z "/>
</symbol>
<use xlink:href="#font_6_3" transform="matrix(12,0,0,-12,121.890117,149.5664)" fill="#a8aaad"/>
<use xlink:href="#font_6_13" transform="matrix(12,0,0,-12,126.34212,149.7344)" fill="#a8aaad"/>
<use xlink:href="#font_6_3" transform="matrix(12,0,0,-12,132.30612,149.5664)" fill="#a8aaad"/>
<use xlink:href="#font_6_79" transform="matrix(12,0,0,-12,137.02213,146.91442)" fill="#a8aaad"/>
<use xlink:href="#font_6_3" transform="matrix(12,0,0,-12,139.11013,149.5664)" fill="#a8aaad"/>
<use xlink:href="#font_6_14" transform="matrix(12,0,0,-12,144.35413,149.5664)" fill="#a8aaad"/>
<use xlink:href="#font_6_14" transform="matrix(12,0,0,-12,150.88213,149.5664)" fill="#a8aaad"/>
<use xlink:href="#font_6_3" transform="matrix(12,0,0,-12,156.05413,149.5664)" fill="#a8aaad"/>
<use xlink:href="#font_6_79" transform="matrix(12,0,0,-12,160.77013,146.91442)" fill="#a8aaad"/>
<use xlink:href="#font_6_3" transform="matrix(12,0,0,-12,162.85813,149.5664)" fill="#a8aaad"/>
<use xlink:href="#font_6_14" transform="matrix(12,0,0,-12,168.10213,149.5664)" fill="#a8aaad"/>
<use xlink:href="#font_6_14" transform="matrix(12,0,0,-12,174.63013,149.5664)" fill="#a8aaad"/>
<use xlink:href="#font_6_d" transform="matrix(12,0,0,-12,180.12613,144.9104)" fill="#a8aaad"/>
<use xlink:href="#font_6_3" transform="matrix(12,0,0,-12,184.93813,149.5664)" fill="#a8aaad"/>
<use xlink:href="#font_6_3" transform="matrix(12,0,0,-12,188.82613,149.5664)" fill="#a8aaad"/>
<symbol id="font_a_1">
<path d="M .28 0 L .55300006 .265 L .55300006 .269 L .28 .53400006 L .23800002 .48800005 L .438 .301 L 0 .301 L 0 .23300001 L .438 .23300001 L .23800002 .046000005 L .28 0 Z "/>
</symbol>
<use xlink:href="#font_a_1" transform="matrix(12,0,0,-12,193.06214,149.7464)" fill="#a8aaad"/>
<use xlink:href="#font_6_3" transform="matrix(12,0,0,-12,199.91413,149.5664)" fill="#a8aaad"/>
<use xlink:href="#font_6_3" transform="matrix(12,0,0,-12,203.80213,149.5664)" fill="#a8aaad"/>
<use xlink:href="#font_6_13" transform="matrix(12,0,0,-12,208.25412,149.7344)" fill="#a8aaad"/>
<use xlink:href="#font_1_4" transform="matrix(12,0,0,-12,21.7261,163.9664)" fill="#a8aaad"/>
<use xlink:href="#font_6_3" transform="matrix(12,0,0,-12,28.038102,163.9664)" fill="#a8aaad"/>
<use xlink:href="#font_6_20" transform="matrix(12,0,0,-12,32.9221,162.1304)" fill="#a8aaad"/>
<use xlink:href="#font_6_3" transform="matrix(12,0,0,-12,39.342103,163.9664)" fill="#a8aaad"/>
<use xlink:href="#font_6_14" transform="matrix(12,0,0,-12,44.5861,163.9664)" fill="#a8aaad"/>
<use xlink:href="#font_6_3" transform="matrix(12,0,0,-12,49.758104,163.9664)" fill="#a8aaad"/>
<use xlink:href="#font_6_1d" transform="matrix(12,0,0,-12,54.474103,164.0744)" fill="#a8aaad"/>
<use xlink:href="#font_6_3" transform="matrix(12,0,0,-12,56.562105,163.9664)" fill="#a8aaad"/>
<symbol id="font_9_14">
<path d="M .357 0 L .039000006 0 L .039000006 .07700001 L .15100001 .07700001 L .15100001 .57600006 L .05600001 .49600003 L 0 .558 L .191 .71900007 C .22833336 .71900007 .24700003 .695 .24700003 .647 L .24700003 .07700001 L .357 .07700001 L .357 0 Z "/>
</symbol>
<use xlink:href="#font_9_b" transform="matrix(12,0,0,-12,61.242105,164.9624)" fill="#a8aaad"/>
<use xlink:href="#font_9_14" transform="matrix(12,0,0,-12,66.114109,163.9664)" fill="#a8aaad"/>
<use xlink:href="#font_9_3" transform="matrix(12,0,0,-12,71.670108,163.9664)" fill="#a8aaad"/>
<use xlink:href="#font_9_e" transform="matrix(12,0,0,-12,76.266109,163.9664)" fill="#a8aaad"/>
<use xlink:href="#font_9_3" transform="matrix(12,0,0,-12,83.26211,163.9664)" fill="#a8aaad"/>
<use xlink:href="#font_9_13" transform="matrix(12,0,0,-12,87.83411,164.1344)" fill="#a8aaad"/>
<use xlink:href="#font_9_3" transform="matrix(12,0,0,-12,94.14611,163.9664)" fill="#a8aaad"/>
<use xlink:href="#font_9_e" transform="matrix(12,0,0,-12,98.74211,163.9664)" fill="#a8aaad"/>
<use xlink:href="#font_9_3" transform="matrix(12,0,0,-12,105.73811,163.9664)" fill="#a8aaad"/>
<use xlink:href="#font_9_13" transform="matrix(12,0,0,-12,110.31011,164.1344)" fill="#a8aaad"/>
<use xlink:href="#font_9_c" transform="matrix(12,0,0,-12,116.82612,164.9624)" fill="#a8aaad"/>
<use xlink:href="#font_6_3" transform="matrix(12,0,0,-12,121.026119,163.9664)" fill="#a8aaad"/>
<use xlink:href="#font_6_14" transform="matrix(12,0,0,-12,126.27012,163.9664)" fill="#a8aaad"/>
<use xlink:href="#font_6_3" transform="matrix(12,0,0,-12,131.44213,163.9664)" fill="#a8aaad"/>
<use xlink:href="#font_6_79" transform="matrix(12,0,0,-12,136.15813,161.3144)" fill="#a8aaad"/>
<use xlink:href="#font_6_3" transform="matrix(12,0,0,-12,138.24613,163.9664)" fill="#a8aaad"/>
<use xlink:href="#font_6_14" transform="matrix(12,0,0,-12,143.49013,163.9664)" fill="#a8aaad"/>
<use xlink:href="#font_6_14" transform="matrix(12,0,0,-12,150.01813,163.9664)" fill="#a8aaad"/>
<use xlink:href="#font_6_3" transform="matrix(12,0,0,-12,155.19013,163.9664)" fill="#a8aaad"/>
<use xlink:href="#font_6_79" transform="matrix(12,0,0,-12,159.90613,161.3144)" fill="#a8aaad"/>
<use xlink:href="#font_6_3" transform="matrix(12,0,0,-12,161.99413,163.9664)" fill="#a8aaad"/>
<use xlink:href="#font_6_14" transform="matrix(12,0,0,-12,167.23813,163.9664)" fill="#a8aaad"/>
<use xlink:href="#font_6_14" transform="matrix(12,0,0,-12,173.76613,163.9664)" fill="#a8aaad"/>
<use xlink:href="#font_6_d" transform="matrix(12,0,0,-12,179.26213,159.3104)" fill="#a8aaad"/>
<use xlink:href="#font_6_3" transform="matrix(12,0,0,-12,184.07413,163.9664)" fill="#a8aaad"/>
<use xlink:href="#font_6_3" transform="matrix(12,0,0,-12,187.96213,163.9664)" fill="#a8aaad"/>
<use xlink:href="#font_a_1" transform="matrix(12,0,0,-12,192.19814,164.1464)" fill="#a8aaad"/>
<use xlink:href="#font_6_3" transform="matrix(12,0,0,-12,199.05013,163.9664)" fill="#a8aaad"/>
<use xlink:href="#font_6_3" transform="matrix(12,0,0,-12,202.93813,163.9664)" fill="#a8aaad"/>
<use xlink:href="#font_6_14" transform="matrix(12,0,0,-12,208.18213,163.9664)" fill="#a8aaad"/>
<use xlink:href="#font_6_15" transform="matrix(12,0,0,-12,213.82213,163.9664)" fill="#a8aaad"/>
<use xlink:href="#font_6_14" transform="matrix(12,0,0,-12,221.23813,163.9664)" fill="#a8aaad"/>
<use xlink:href="#font_1_4" transform="matrix(12,0,0,-12,21.7261,178.3664)" fill="#a8aaad"/>
<use xlink:href="#font_6_3" transform="matrix(12,0,0,-12,28.038102,178.3664)" fill="#a8aaad"/>
<use xlink:href="#font_6_20" transform="matrix(12,0,0,-12,32.9221,176.5304)" fill="#a8aaad"/>
<use xlink:href="#font_6_3" transform="matrix(12,0,0,-12,39.342103,178.3664)" fill="#a8aaad"/>
<use xlink:href="#font_6_15" transform="matrix(12,0,0,-12,43.6981,178.3664)" fill="#a8aaad"/>
<use xlink:href="#font_6_3" transform="matrix(12,0,0,-12,49.758104,178.3664)" fill="#a8aaad"/>
<use xlink:href="#font_6_1d" transform="matrix(12,0,0,-12,54.474103,178.4744)" fill="#a8aaad"/>
<use xlink:href="#font_6_3" transform="matrix(12,0,0,-12,56.562105,178.3664)" fill="#a8aaad"/>
<symbol id="font_9_15">
<path d="M .272 .71900007 C .33200003 .71900007 .38233338 .70133337 .423 .666 C .46366669 .6306667 .48400007 .58466669 .48400004 .528 C .48400007 .4786667 .45800004 .423 .40600003 .36100004 C .37399999 .3236667 .32033334 .272 .24500002 .20600002 C .17833334 .14733334 .13733335 .10666668 .12200001 .08400001 L .50600007 .08400001 L .487 0 L 0 0 C .007333333 .041333338 .016 .07733334 .026 .108 C .05 .13733335 .12966667 .2156667 .26500003 .34300003 C .347 .41966669 .388 .4826667 .388 .532 C .388 .59866669 .349 .632 .271 .632 C .19366668 .632 .14733334 .5873334 .13200002 .49800004 L .044000005 .52000007 C .051333339 .5813334 .07500001 .62966677 .11500001 .665 C .15500002 .70100006 .20733334 .71900007 .272 .71900007 Z "/>
</symbol>
<use xlink:href="#font_9_b" transform="matrix(12,0,0,-12,61.242105,179.3624)" fill="#a8aaad"/>
<use xlink:href="#font_9_15" transform="matrix(12,0,0,-12,65.2861,178.3664)" fill="#a8aaad"/>
<use xlink:href="#font_9_3" transform="matrix(12,0,0,-12,71.670108,178.3664)" fill="#a8aaad"/>
<use xlink:href="#font_9_e" transform="matrix(12,0,0,-12,76.266109,178.3664)" fill="#a8aaad"/>
<use xlink:href="#font_9_3" transform="matrix(12,0,0,-12,83.26211,178.3664)" fill="#a8aaad"/>
<use xlink:href="#font_9_13" transform="matrix(12,0,0,-12,87.83411,178.5344)" fill="#a8aaad"/>
<use xlink:href="#font_9_3" transform="matrix(12,0,0,-12,94.14611,178.3664)" fill="#a8aaad"/>
<use xlink:href="#font_9_e" transform="matrix(12,0,0,-12,98.74211,178.3664)" fill="#a8aaad"/>
<use xlink:href="#font_9_3" transform="matrix(12,0,0,-12,105.73811,178.3664)" fill="#a8aaad"/>
<use xlink:href="#font_9_13" transform="matrix(12,0,0,-12,110.31011,178.5344)" fill="#a8aaad"/>
<use xlink:href="#font_9_c" transform="matrix(12,0,0,-12,116.82612,179.3624)" fill="#a8aaad"/>
<use xlink:href="#font_6_3" transform="matrix(12,0,0,-12,121.026119,178.3664)" fill="#a8aaad"/>
<use xlink:href="#font_6_16" transform="matrix(12,0,0,-12,125.526119,178.5344)" fill="#a8aaad"/>
<use xlink:href="#font_6_3" transform="matrix(12,0,0,-12,131.44213,178.3664)" fill="#a8aaad"/>
<use xlink:href="#font_6_79" transform="matrix(12,0,0,-12,136.15813,175.7144)" fill="#a8aaad"/>
<use xlink:href="#font_6_3" transform="matrix(12,0,0,-12,138.24613,178.3664)" fill="#a8aaad"/>
<use xlink:href="#font_6_14" transform="matrix(12,0,0,-12,143.49013,178.3664)" fill="#a8aaad"/>
<use xlink:href="#font_6_14" transform="matrix(12,0,0,-12,150.01813,178.3664)" fill="#a8aaad"/>
<use xlink:href="#font_6_3" transform="matrix(12,0,0,-12,155.19013,178.3664)" fill="#a8aaad"/>
<use xlink:href="#font_6_79" transform="matrix(12,0,0,-12,159.90613,175.7144)" fill="#a8aaad"/>
<use xlink:href="#font_6_3" transform="matrix(12,0,0,-12,161.99413,178.3664)" fill="#a8aaad"/>
<use xlink:href="#font_6_14" transform="matrix(12,0,0,-12,167.23813,178.3664)" fill="#a8aaad"/>
<use xlink:href="#font_6_14" transform="matrix(12,0,0,-12,173.76613,178.3664)" fill="#a8aaad"/>
<use xlink:href="#font_6_d" transform="matrix(12,0,0,-12,179.26213,173.71039)" fill="#a8aaad"/>
<use xlink:href="#font_6_3" transform="matrix(12,0,0,-12,184.07413,178.3664)" fill="#a8aaad"/>
<use xlink:href="#font_6_3" transform="matrix(12,0,0,-12,187.96213,178.3664)" fill="#a8aaad"/>
<use xlink:href="#font_a_1" transform="matrix(12,0,0,-12,192.19814,178.54639)" fill="#a8aaad"/>
<symbol id="font_6_19">
<path d="M .223 .0000000009313226 C .15433334 .0000000009313226 .1 .025 .060000007 .075 C .020000006 .125 .0000000037252905 .18833335 .0000000037252905 .26500003 C .0000000037252905 .38300003 .036666674 .48666669 .110000018 .57600006 C .18333335 .66600009 .273 .7213333 .379 .74200007 L .384 .698 C .31066669 .67733338 .24566669 .6383334 .18900001 .58100005 C .13233336 .5236667 .09333334 .45800004 .07200001 .384 C .07866668 .40600003 .09800001 .42433334 .13000001 .439 C .16266668 .45433335 .19500001 .462 .22700002 .462 C .285 .462 .33266668 .43933336 .37 .39400003 C .408 .34866668 .42700003 .29466669 .42700003 .23200001 C .42700003 .16600001 .40833334 .11066667 .37100003 .066 C .33433334 .022 .285 .0000000009313226 .223 .0000000009313226 M .367 .23200001 C .367 .28333334 .35333336 .326 .326 .36 C .2986667 .39466668 .2616667 .41200004 .21500002 .41200004 C .17100002 .41200004 .13400002 .39400003 .10400002 .358 C .07466668 .32200004 .060000007 .28 .060000007 .23200001 C .060000007 .18466668 .07466668 .14233333 .10400002 .105000007 C .13400002 .068333338 .17100002 .05 .21500002 .050000006 C .261 .05 .29766668 .06766667 .32500003 .103 C .35300002 .139 .367 .182 .367 .23200001 Z "/>
</symbol>
<use xlink:href="#font_6_3" transform="matrix(12,0,0,-12,199.05013,178.3664)" fill="#a8aaad"/>
<use xlink:href="#font_6_3" transform="matrix(12,0,0,-12,202.93813,178.3664)" fill="#a8aaad"/>
<use xlink:href="#font_6_16" transform="matrix(12,0,0,-12,207.43813,178.5344)" fill="#a8aaad"/>
<use xlink:href="#font_6_19" transform="matrix(12,0,0,-12,214.03813,178.5344)" fill="#a8aaad"/>
<use xlink:href="#font_6_16" transform="matrix(12,0,0,-12,220.49413,178.5344)" fill="#a8aaad"/>
<use xlink:href="#font_1_4" transform="matrix(12,0,0,-12,21.7261,192.7664)" fill="#a8aaad"/>
<use xlink:href="#font_6_3" transform="matrix(12,0,0,-12,28.038102,192.7664)" fill="#a8aaad"/>
<use xlink:href="#font_6_20" transform="matrix(12,0,0,-12,32.9221,190.9304)" fill="#a8aaad"/>
<use xlink:href="#font_6_3" transform="matrix(12,0,0,-12,39.342103,192.7664)" fill="#a8aaad"/>
<use xlink:href="#font_6_16" transform="matrix(12,0,0,-12,43.842103,192.9344)" fill="#a8aaad"/>
<use xlink:href="#font_6_3" transform="matrix(12,0,0,-12,49.758104,192.7664)" fill="#a8aaad"/>
<use xlink:href="#font_6_1d" transform="matrix(12,0,0,-12,54.474103,192.8744)" fill="#a8aaad"/>
<use xlink:href="#font_6_3" transform="matrix(12,0,0,-12,56.562105,192.7664)" fill="#a8aaad"/>
<use xlink:href="#font_9_b" transform="matrix(12,0,0,-12,61.242105,193.7624)" fill="#a8aaad"/>
<use xlink:href="#font_9_14" transform="matrix(12,0,0,-12,66.114109,192.7664)" fill="#a8aaad"/>
<use xlink:href="#font_9_3" transform="matrix(12,0,0,-12,71.670108,192.7664)" fill="#a8aaad"/>
<use xlink:href="#font_9_e" transform="matrix(12,0,0,-12,76.266109,192.7664)" fill="#a8aaad"/>
<use xlink:href="#font_9_3" transform="matrix(12,0,0,-12,83.26211,192.7664)" fill="#a8aaad"/>
<use xlink:href="#font_9_15" transform="matrix(12,0,0,-12,87.76211,192.7664)" fill="#a8aaad"/>
<use xlink:href="#font_9_3" transform="matrix(12,0,0,-12,94.14611,192.7664)" fill="#a8aaad"/>
<use xlink:href="#font_9_e" transform="matrix(12,0,0,-12,98.74211,192.7664)" fill="#a8aaad"/>
<use xlink:href="#font_9_3" transform="matrix(12,0,0,-12,105.73811,192.7664)" fill="#a8aaad"/>
<use xlink:href="#font_9_13" transform="matrix(12,0,0,-12,110.31011,192.9344)" fill="#a8aaad"/>
<use xlink:href="#font_9_c" transform="matrix(12,0,0,-12,116.82612,193.7624)" fill="#a8aaad"/>
<use xlink:href="#font_6_3" transform="matrix(12,0,0,-12,121.026119,192.7664)" fill="#a8aaad"/>
<use xlink:href="#font_6_14" transform="matrix(12,0,0,-12,126.27012,192.7664)" fill="#a8aaad"/>
<use xlink:href="#font_6_3" transform="matrix(12,0,0,-12,131.44213,192.7664)" fill="#a8aaad"/>
<use xlink:href="#font_6_79" transform="matrix(12,0,0,-12,136.15813,190.11441)" fill="#a8aaad"/>
<use xlink:href="#font_6_3" transform="matrix(12,0,0,-12,138.24613,192.7664)" fill="#a8aaad"/>
<use xlink:href="#font_6_16" transform="matrix(12,0,0,-12,142.74613,192.9344)" fill="#a8aaad"/>
<use xlink:href="#font_6_3" transform="matrix(12,0,0,-12,148.66213,192.7664)" fill="#a8aaad"/>
<use xlink:href="#font_6_79" transform="matrix(12,0,0,-12,153.37813,190.11441)" fill="#a8aaad"/>
<use xlink:href="#font_6_3" transform="matrix(12,0,0,-12,155.46613,192.7664)" fill="#a8aaad"/>
<use xlink:href="#font_6_14" transform="matrix(12,0,0,-12,160.71013,192.7664)" fill="#a8aaad"/>
<use xlink:href="#font_6_14" transform="matrix(12,0,0,-12,167.23813,192.7664)" fill="#a8aaad"/>
<use xlink:href="#font_6_3" transform="matrix(12,0,0,-12,172.41013,192.7664)" fill="#a8aaad"/>
<use xlink:href="#font_6_3" transform="matrix(12,0,0,-12,176.29813,192.7664)" fill="#a8aaad"/>
<use xlink:href="#font_a_1" transform="matrix(12,0,0,-12,180.53414,192.9464)" fill="#a8aaad"/>
<use xlink:href="#font_6_3" transform="matrix(12,0,0,-12,187.38613,192.7664)" fill="#a8aaad"/>
<use xlink:href="#font_6_3" transform="matrix(12,0,0,-12,191.27413,192.7664)" fill="#a8aaad"/>
<use xlink:href="#font_6_16" transform="matrix(12,0,0,-12,195.77413,192.9344)" fill="#a8aaad"/>
<use xlink:href="#font_6_16" transform="matrix(12,0,0,-12,202.30213,192.9344)" fill="#a8aaad"/>
<use xlink:href="#font_1_4" transform="matrix(12,0,0,-12,21.7261,207.1664)" fill="#a8aaad"/>
<use xlink:href="#font_6_3" transform="matrix(12,0,0,-12,28.038102,207.1664)" fill="#a8aaad"/>
<use xlink:href="#font_6_20" transform="matrix(12,0,0,-12,32.9221,205.3304)" fill="#a8aaad"/>
<use xlink:href="#font_6_3" transform="matrix(12,0,0,-12,39.342103,207.1664)" fill="#a8aaad"/>
<use xlink:href="#font_6_17" transform="matrix(12,0,0,-12,43.806104,207.1664)" fill="#a8aaad"/>
<use xlink:href="#font_6_3" transform="matrix(12,0,0,-12,49.758104,207.1664)" fill="#a8aaad"/>
<use xlink:href="#font_6_1d" transform="matrix(12,0,0,-12,54.474103,207.2744)" fill="#a8aaad"/>
<use xlink:href="#font_6_3" transform="matrix(12,0,0,-12,56.562105,207.1664)" fill="#a8aaad"/>
<symbol id="font_9_17">
<path d="M .30200003 .24100001 L .30200003 .60800006 C .2546667 .5773334 .21133335 .5266667 .17200002 .45600004 C .134 .388 .10833334 .31633333 .095000009 .24100001 L .30200003 .24100001 M .39900003 0 L .30200003 0 L .30200003 .15900001 L 0 .15900001 C 0 .2836667 .03966667 .4086667 .11900001 .53400006 C .19833334 .6593334 .29166667 .72666677 .39900003 .73600009 L .39900003 .24100001 L .495 .24100001 L .48400004 .15900001 L .39900003 .15900001 L .39900003 0 Z "/>
</symbol>
<use xlink:href="#font_9_b" transform="matrix(12,0,0,-12,61.242105,208.1624)" fill="#a8aaad"/>
<use xlink:href="#font_9_17" transform="matrix(12,0,0,-12,65.3581,207.1664)" fill="#a8aaad"/>
<use xlink:href="#font_9_3" transform="matrix(12,0,0,-12,71.670108,207.1664)" fill="#a8aaad"/>
<use xlink:href="#font_9_e" transform="matrix(12,0,0,-12,76.266109,207.1664)" fill="#a8aaad"/>
<use xlink:href="#font_9_3" transform="matrix(12,0,0,-12,83.26211,207.1664)" fill="#a8aaad"/>
<use xlink:href="#font_9_13" transform="matrix(12,0,0,-12,87.83411,207.3344)" fill="#a8aaad"/>
<use xlink:href="#font_9_3" transform="matrix(12,0,0,-12,94.14611,207.1664)" fill="#a8aaad"/>
<use xlink:href="#font_9_e" transform="matrix(12,0,0,-12,98.74211,207.1664)" fill="#a8aaad"/>
<use xlink:href="#font_9_3" transform="matrix(12,0,0,-12,105.73811,207.1664)" fill="#a8aaad"/>
<use xlink:href="#font_9_13" transform="matrix(12,0,0,-12,110.31011,207.3344)" fill="#a8aaad"/>
<use xlink:href="#font_9_c" transform="matrix(12,0,0,-12,116.82612,208.1624)" fill="#a8aaad"/>
<use xlink:href="#font_9_3" transform="matrix(12,0,0,-12,121.026119,207.1664)" fill="#a8aaad"/>
<use xlink:href="#font_6_14" transform="matrix(12,0,0,-12,126.45012,207.1664)" fill="#a8aaad"/>
<use xlink:href="#font_6_3" transform="matrix(12,0,0,-12,131.62212,207.1664)" fill="#a8aaad"/>
<use xlink:href="#font_6_79" transform="matrix(12,0,0,-12,136.33812,204.5144)" fill="#a8aaad"/>
<use xlink:href="#font_6_3" transform="matrix(12,0,0,-12,138.42612,207.1664)" fill="#a8aaad"/>
<use xlink:href="#font_6_14" transform="matrix(12,0,0,-12,143.67012,207.1664)" fill="#a8aaad"/>
<use xlink:href="#font_6_14" transform="matrix(12,0,0,-12,150.19812,207.1664)" fill="#a8aaad"/>
<use xlink:href="#font_6_3" transform="matrix(12,0,0,-12,155.37012,207.1664)" fill="#a8aaad"/>
<use xlink:href="#font_6_79" transform="matrix(12,0,0,-12,160.08612,204.5144)" fill="#a8aaad"/>
<use xlink:href="#font_6_3" transform="matrix(12,0,0,-12,162.17412,207.1664)" fill="#a8aaad"/>
<use xlink:href="#font_6_14" transform="matrix(12,0,0,-12,167.41812,207.1664)" fill="#a8aaad"/>
<use xlink:href="#font_6_14" transform="matrix(12,0,0,-12,173.94612,207.1664)" fill="#a8aaad"/>
<use xlink:href="#font_6_d" transform="matrix(12,0,0,-12,179.44213,202.51039)" fill="#a8aaad"/>
<use xlink:href="#font_6_3" transform="matrix(12,0,0,-12,184.25412,207.1664)" fill="#a8aaad"/>
<use xlink:href="#font_6_e" transform="matrix(12,0,0,-12,188.82613,207.1664)" fill="#a8aaad"/>
<use xlink:href="#font_6_3" transform="matrix(12,0,0,-12,195.55812,207.1664)" fill="#a8aaad"/>
<use xlink:href="#font_9_b" transform="matrix(12,0,0,-12,200.23813,208.1624)" fill="#a8aaad"/>
<use xlink:href="#font_9_15" transform="matrix(12,0,0,-12,204.28214,207.1664)" fill="#a8aaad"/>
<use xlink:href="#font_9_3" transform="matrix(12,0,0,-12,210.66613,207.1664)" fill="#a8aaad"/>
<use xlink:href="#font_9_e" transform="matrix(12,0,0,-12,215.26212,207.1664)" fill="#a8aaad"/>
<use xlink:href="#font_9_3" transform="matrix(12,0,0,-12,222.25812,207.1664)" fill="#a8aaad"/>
<use xlink:href="#font_9_15" transform="matrix(12,0,0,-12,226.75812,207.1664)" fill="#a8aaad"/>
<use xlink:href="#font_9_3" transform="matrix(12,0,0,-12,233.1421,207.1664)" fill="#a8aaad"/>
<use xlink:href="#font_9_e" transform="matrix(12,0,0,-12,237.7381,207.1664)" fill="#a8aaad"/>
<use xlink:href="#font_9_3" transform="matrix(12,0,0,-12,244.7341,207.1664)" fill="#a8aaad"/>
<use xlink:href="#font_9_13" transform="matrix(12,0,0,-12,249.30609,207.3344)" fill="#a8aaad"/>
<use xlink:href="#font_9_c" transform="matrix(12,0,0,-12,255.82209,208.1624)" fill="#a8aaad"/>
<use xlink:href="#font_9_3" transform="matrix(12,0,0,-12,260.0221,207.1664)" fill="#a8aaad"/>
<use xlink:href="#font_6_16" transform="matrix(12,0,0,-12,264.7021,207.3344)" fill="#a8aaad"/>
<use xlink:href="#font_6_3" transform="matrix(12,0,0,-12,270.6181,207.1664)" fill="#a8aaad"/>
<use xlink:href="#font_6_79" transform="matrix(12,0,0,-12,275.3341,204.5144)" fill="#a8aaad"/>
<use xlink:href="#font_6_3" transform="matrix(12,0,0,-12,277.4221,207.1664)" fill="#a8aaad"/>
<use xlink:href="#font_6_16" transform="matrix(12,0,0,-12,281.9221,207.3344)" fill="#a8aaad"/>
<use xlink:href="#font_6_d" transform="matrix(12,0,0,-12,288.1621,202.51039)" fill="#a8aaad"/>
<use xlink:href="#font_6_3" transform="matrix(12,0,0,-12,292.9741,207.1664)" fill="#a8aaad"/>
<use xlink:href="#font_6_79" transform="matrix(12,0,0,-12,297.6901,204.5144)" fill="#a8aaad"/>
<use xlink:href="#font_6_3" transform="matrix(12,0,0,-12,299.77809,207.1664)" fill="#a8aaad"/>
<use xlink:href="#font_6_14" transform="matrix(12,0,0,-12,305.02207,207.1664)" fill="#a8aaad"/>
<use xlink:href="#font_6_14" transform="matrix(12,0,0,-12,311.55009,207.1664)" fill="#a8aaad"/>
<use xlink:href="#font_6_3" transform="matrix(12,0,0,-12,316.7221,207.1664)" fill="#a8aaad"/>
<use xlink:href="#font_6_3" transform="matrix(12,0,0,-12,320.6101,207.1664)" fill="#a8aaad"/>
<use xlink:href="#font_a_1" transform="matrix(12,0,0,-12,324.8461,207.34639)" fill="#a8aaad"/>
<symbol id="font_6_1c">
<path d="M .20500003 .74200007 C .27366669 .74200007 .32766668 .717 .367 .66700008 C .40700004 .61700007 .42700003 .554 .42700003 .47800002 C .42700003 .35600005 .3906667 .25100003 .31800003 .163 C .24533336 .075 .15533334 .020666669 .048000006 0 L .044000005 .044 C .117333348 .064666669 .18200003 .10366666 .23800002 .161 C .29466669 .219 .33366669 .2846667 .35500003 .358 C .34833337 .336 .329 .31733335 .297 .30200003 C .26500003 .28733335 .23266669 .28 .2 .28 C .14133334 .28 .09333334 .30266667 .056000007 .34800003 C .018666672 .39333336 .0000000037252905 .44766668 .0000000037252905 .51100006 C .0000000037252905 .577 .018333337 .632 .055000005 .67600008 C .09233335 .72 .14233335 .74200007 .20500003 .74200007 M .21200003 .33 C .256 .33 .29266668 .34833337 .322 .38500003 C .352 .4216667 .367 .46400003 .367 .512 C .367 .56 .352 .60200008 .322 .638 C .29266668 .674 .256 .6920001 .21200003 .69200006 C .16533335 .6920001 .12833335 .6746667 .10100001 .64000007 C .07366667 .6053333 .060000007 .56266668 .060000007 .512 C .060000007 .462 .07366667 .419 .10100001 .38300003 C .12900001 .34766666 .16600001 .33 .21200003 .33 Z "/>
</symbol>
<use xlink:href="#font_6_3" transform="matrix(12,0,0,-12,331.69813,207.1664)" fill="#a8aaad"/>
<use xlink:href="#font_6_3" transform="matrix(12,0,0,-12,335.58613,207.1664)" fill="#a8aaad"/>
<use xlink:href="#font_6_14" transform="matrix(12,0,0,-12,340.8301,207.1664)" fill="#a8aaad"/>
<use xlink:href="#font_6_15" transform="matrix(12,0,0,-12,346.47013,207.1664)" fill="#a8aaad"/>
<use xlink:href="#font_6_14" transform="matrix(12,0,0,-12,353.88615,207.1664)" fill="#a8aaad"/>
<use xlink:href="#font_6_3" transform="matrix(12,0,0,-12,359.05818,207.1664)" fill="#a8aaad"/>
<use xlink:href="#font_6_e" transform="matrix(12,0,0,-12,363.63017,207.1664)" fill="#a8aaad"/>
<use xlink:href="#font_6_3" transform="matrix(12,0,0,-12,370.36219,207.1664)" fill="#a8aaad"/>
<use xlink:href="#font_6_1c" transform="matrix(12,0,0,-12,374.93418,207.3344)" fill="#a8aaad"/>
<use xlink:href="#font_6_1c" transform="matrix(12,0,0,-12,381.4622,207.3344)" fill="#a8aaad"/>
<use xlink:href="#font_6_3" transform="matrix(12,0,0,-12,387.3062,207.1664)" fill="#a8aaad"/>
<use xlink:href="#font_6_20" transform="matrix(12,0,0,-12,392.19023,205.3304)" fill="#a8aaad"/>
<use xlink:href="#font_6_3" transform="matrix(12,0,0,-12,398.61024,207.1664)" fill="#a8aaad"/>
<use xlink:href="#font_6_15" transform="matrix(12,0,0,-12,402.96623,207.1664)" fill="#a8aaad"/>
<use xlink:href="#font_6_15" transform="matrix(12,0,0,-12,409.49424,207.1664)" fill="#a8aaad"/>
<use xlink:href="#font_6_13" transform="matrix(12,0,0,-12,416.11827,207.3344)" fill="#a8aaad"/>
</g>
</g>
</svg>
