<?xml version="1.0" encoding="UTF-8" standalone="no"?>
<!DOCTYPE svg PUBLIC "-//W3C//DTD SVG 1.1//EN" "http://www.w3.org/Graphics/SVG/1.1/DTD/svg11.dtd">
<svg xmlns="http://www.w3.org/2000/svg" xmlns:xlink="http://www.w3.org/1999/xlink" version="1.1" width="639.821pt" height="274.895pt" viewBox="0 0 639.821 274.895">
<g enable-background="new">
<g id="Layer-1" data-name="Capa 1">
<clipPath id="cp0">
<path transform="matrix(1,0,0,-1,0,274.895)" d="M 0 274.895 L 639.821 274.895 L 639.821 0 L 0 0 Z "/>
</clipPath>
<g clip-path="url(#cp0)">
<path transform="matrix(1,0,0,-1,96.1289,159.84459)" d="M 0 0 C 0 -5.199 -4.214 -9.414 -9.414 -9.414 C -14.612 -9.414 -18.827 -5.199 -18.827 0 C -18.827 5.199 -14.612 9.413 -9.414 9.413 C -4.214 9.413 0 5.199 0 0 " fill="#ffffff"/>
<path transform="matrix(1,0,0,-1,96.1289,159.84459)" stroke-width="1" stroke-linecap="butt" stroke-miterlimit="10" stroke-linejoin="miter" fill="none" stroke="#a8aaad" d="M 0 0 C 0 -5.199 -4.214 -9.414 -9.414 -9.414 C -14.612 -9.414 -18.827 -5.199 -18.827 0 C -18.827 5.199 -14.612 9.413 -9.414 9.413 C -4.214 9.413 0 5.199 0 0 Z "/>
<path transform="matrix(1,0,0,-1,70.3862,172.42758)" d="M 0 0 C 0 -5.199 -4.214 -9.414 -9.414 -9.414 C -14.612 -9.414 -18.827 -5.199 -18.827 0 C -18.827 5.199 -14.612 9.413 -9.414 9.413 C -4.214 9.413 0 5.199 0 0 " fill="#ffffff"/>
<path transform="matrix(1,0,0,-1,70.3862,172.42758)" stroke-width="1" stroke-linecap="butt" stroke-miterlimit="10" stroke-linejoin="miter" fill="none" stroke="#a8aaad" d="M 0 0 C 0 -5.199 -4.214 -9.414 -9.414 -9.414 C -14.612 -9.414 -18.827 -5.199 -18.827 0 C -18.827 5.199 -14.612 9.413 -9.414 9.413 C -4.214 9.413 0 5.199 0 0 Z "/>
<path transform="matrix(1,0,0,-1,44.6436,164.55109)" d="M 0 0 C 0 -5.199 -4.214 -9.414 -9.414 -9.414 C -14.612 -9.414 -18.827 -5.199 -18.827 0 C -18.827 5.199 -14.612 9.413 -9.414 9.413 C -4.214 9.413 0 5.199 0 0 " fill="#ffffff"/>
<path transform="matrix(1,0,0,-1,44.6436,164.55109)" stroke-width="1" stroke-linecap="butt" stroke-miterlimit="10" stroke-linejoin="miter" fill="none" stroke="#a8aaad" d="M 0 0 C 0 -5.199 -4.214 -9.414 -9.414 -9.414 C -14.612 -9.414 -18.827 -5.199 -18.827 0 C -18.827 5.199 -14.612 9.413 -9.414 9.413 C -4.214 9.413 0 5.199 0 0 Z "/>
<path transform="matrix(1,0,0,-1,65.3911,145.7244)" d="M 0 0 C 0 -5.199 -4.214 -9.414 -9.413 -9.414 C -14.612 -9.414 -18.827 -5.199 -18.827 0 C -18.827 5.199 -14.612 9.413 -9.413 9.413 C -4.214 9.413 0 5.199 0 0 " fill="#ffffff"/>
<path transform="matrix(1,0,0,-1,65.3911,145.7244)" stroke-width="1" stroke-linecap="butt" stroke-miterlimit="10" stroke-linejoin="miter" fill="none" stroke="#a8aaad" d="M 0 0 C 0 -5.199 -4.214 -9.414 -9.413 -9.414 C -14.612 -9.414 -18.827 -5.199 -18.827 0 C -18.827 5.199 -14.612 9.413 -9.413 9.413 C -4.214 9.413 0 5.199 0 0 Z "/>
<path transform="matrix(1,0,0,-1,93.6313,136.31139)" d="M 0 0 C 0 -5.199 -4.214 -9.413 -9.413 -9.413 C -14.612 -9.413 -18.827 -5.199 -18.827 0 C -18.827 5.199 -14.612 9.414 -9.413 9.414 C -4.214 9.414 0 5.199 0 0 " fill="#ffffff"/>
<path transform="matrix(1,0,0,-1,93.6313,136.31139)" stroke-width="1" stroke-linecap="butt" stroke-miterlimit="10" stroke-linejoin="miter" fill="none" stroke="#a8aaad" d="M 0 0 C 0 -5.199 -4.214 -9.413 -9.413 -9.413 C -14.612 -9.413 -18.827 -5.199 -18.827 0 C -18.827 5.199 -14.612 9.414 -9.413 9.414 C -4.214 9.414 0 5.199 0 0 Z "/>
<path transform="matrix(1,0,0,-1,32.7329,136.31139)" d="M 0 0 C 0 -5.199 -4.215 -9.413 -9.414 -9.413 C -14.612 -9.413 -18.827 -5.199 -18.827 0 C -18.827 5.199 -14.612 9.414 -9.414 9.414 C -4.215 9.414 0 5.199 0 0 " fill="#ffffff"/>
<path transform="matrix(1,0,0,-1,32.7329,136.31139)" stroke-width="1" stroke-linecap="butt" stroke-miterlimit="10" stroke-linejoin="miter" fill="none" stroke="#a8aaad" d="M 0 0 C 0 -5.199 -4.215 -9.413 -9.414 -9.413 C -14.612 -9.413 -18.827 -5.199 -18.827 0 C -18.827 5.199 -14.612 9.414 -9.414 9.414 C -4.215 9.414 0 5.199 0 0 Z "/>
<path transform="matrix(1,0,0,-1,58.4756,119.021289)" d="M 0 0 C 0 -5.199 -4.215 -9.414 -9.414 -9.414 C -14.612 -9.414 -18.827 -5.199 -18.827 0 C -18.827 5.199 -14.612 9.413 -9.414 9.413 C -4.215 9.413 0 5.199 0 0 " fill="#ffffff"/>
<path transform="matrix(1,0,0,-1,58.4756,119.021289)" stroke-width="1" stroke-linecap="butt" stroke-miterlimit="10" stroke-linejoin="miter" fill="none" stroke="#a8aaad" d="M 0 0 C 0 -5.199 -4.215 -9.414 -9.414 -9.414 C -14.612 -9.414 -18.827 -5.199 -18.827 0 C -18.827 5.199 -14.612 9.413 -9.414 9.413 C -4.215 9.413 0 5.199 0 0 Z "/>
<path transform="matrix(1,0,0,-1,39.6484,104.99739)" d="M 0 0 C 0 -5.199 -4.214 -9.414 -9.413 -9.414 C -14.612 -9.414 -18.827 -5.199 -18.827 0 C -18.827 5.199 -14.612 9.414 -9.413 9.414 C -4.214 9.414 0 5.199 0 0 " fill="#ffffff"/>
<path transform="matrix(1,0,0,-1,39.6484,104.99739)" stroke-width="1" stroke-linecap="butt" stroke-miterlimit="10" stroke-linejoin="miter" fill="none" stroke="#a8aaad" d="M 0 0 C 0 -5.199 -4.214 -9.414 -9.413 -9.414 C -14.612 -9.414 -18.827 -5.199 -18.827 0 C -18.827 5.199 -14.612 9.414 -9.413 9.414 C -4.214 9.414 0 5.199 0 0 Z "/>
<path transform="matrix(1,0,0,-1,60.9727,93.66289)" d="M 0 0 C 0 -5.199 -4.214 -9.414 -9.413 -9.414 C -14.612 -9.414 -18.827 -5.199 -18.827 0 C -18.827 5.199 -14.612 9.414 -9.413 9.414 C -4.214 9.414 0 5.199 0 0 " fill="#ffffff"/>
<path transform="matrix(1,0,0,-1,60.9727,93.66289)" stroke-width="1" stroke-linecap="butt" stroke-miterlimit="10" stroke-linejoin="miter" fill="none" stroke="#a8aaad" d="M 0 0 C 0 -5.199 -4.214 -9.414 -9.413 -9.414 C -14.612 -9.414 -18.827 -5.199 -18.827 0 C -18.827 5.199 -14.612 9.414 -9.413 9.414 C -4.214 9.414 0 5.199 0 0 Z "/>
<path transform="matrix(1,0,0,-1,120.7188,169.25809)" d="M 0 0 C 0 -5.199 -4.214 -9.413 -9.413 -9.413 C -14.612 -9.413 -18.827 -5.199 -18.827 0 C -18.827 5.199 -14.612 9.414 -9.413 9.414 C -4.214 9.414 0 5.199 0 0 " fill="#ffffff"/>
<path transform="matrix(1,0,0,-1,120.7188,169.25809)" stroke-width="1" stroke-linecap="butt" stroke-miterlimit="10" stroke-linejoin="miter" fill="none" stroke="#a8aaad" d="M 0 0 C 0 -5.199 -4.214 -9.413 -9.413 -9.413 C -14.612 -9.413 -18.827 -5.199 -18.827 0 C -18.827 5.199 -14.612 9.414 -9.413 9.414 C -4.214 9.414 0 5.199 0 0 Z "/>
<path transform="matrix(1,0,0,-1,97.2373,186.83579)" d="M 0 0 C 0 -5.199 -4.214 -9.414 -9.414 -9.414 C -14.612 -9.414 -18.827 -5.199 -18.827 0 C -18.827 5.199 -14.612 9.413 -9.414 9.413 C -4.214 9.413 0 5.199 0 0 " fill="#ffffff"/>
<path transform="matrix(1,0,0,-1,97.2373,186.83579)" stroke-width="1" stroke-linecap="butt" stroke-miterlimit="10" stroke-linejoin="miter" fill="none" stroke="#a8aaad" d="M 0 0 C 0 -5.199 -4.214 -9.414 -9.414 -9.414 C -14.612 -9.414 -18.827 -5.199 -18.827 0 C -18.827 5.199 -14.612 9.413 -9.414 9.413 C -4.214 9.413 0 5.199 0 0 Z "/>
<path transform="matrix(1,0,0,-1,87.8237,60.416795)" d="M 0 0 C 0 -5.199 -4.214 -9.414 -9.413 -9.414 C -14.612 -9.414 -18.827 -5.199 -18.827 0 C -18.827 5.199 -14.612 9.413 -9.413 9.413 C -4.214 9.413 0 5.199 0 0 " fill="#ffffff"/>
<path transform="matrix(1,0,0,-1,87.8237,60.416795)" stroke-width="1" stroke-linecap="butt" stroke-miterlimit="10" stroke-linejoin="miter" fill="none" stroke="#a8aaad" d="M 0 0 C 0 -5.199 -4.214 -9.414 -9.413 -9.414 C -14.612 -9.414 -18.827 -5.199 -18.827 0 C -18.827 5.199 -14.612 9.413 -9.413 9.413 C -4.214 9.413 0 5.199 0 0 Z "/>
</g>
<symbol id="font_1_2">
<path d="M .41500003 0 L .41500003 .07300001 L .12300001 .07300001 L .12300001 .075 L .17500001 .123 C .31200005 .25500003 .39900006 .35200004 .39900006 .47200004 C .39900006 .565 .34000004 .661 .2 .661 C .125 .661 .061000006 .633 .016000003 .595 L .044 .53300008 C .074 .558 .12300001 .588 .18200001 .588 C .27899999 .588 .311 .527 .311 .46100004 C .31 .363 .235 .279 .069000009 .12100001 L 0 .054 L 0 0 L .41500003 0 Z "/>
</symbol>
<use xlink:href="#font_1_2" transform="matrix(16.1326,0,0,-16.1326,74.99887,65.988788)" fill="#828486"/>
<clipPath id="cp2">
<path transform="matrix(1,0,0,-1,0,274.895)" d="M 0 274.895 L 639.821 274.895 L 639.821 0 L 0 0 Z "/>
</clipPath>
<g clip-path="url(#cp2)">
<path transform="matrix(1,0,0,-1,65.3911,68.30449)" d="M 0 0 C 0 -5.199 -4.214 -9.413 -9.413 -9.413 C -14.612 -9.413 -18.827 -5.199 -18.827 0 C -18.827 5.199 -14.612 9.414 -9.413 9.414 C -4.214 9.414 0 5.199 0 0 " fill="#ffffff"/>
<path transform="matrix(1,0,0,-1,65.3911,68.30449)" stroke-width="1" stroke-linecap="butt" stroke-miterlimit="10" stroke-linejoin="miter" fill="none" stroke="#a8aaad" d="M 0 0 C 0 -5.199 -4.214 -9.413 -9.413 -9.413 C -14.612 -9.413 -18.827 -5.199 -18.827 0 C -18.827 5.199 -14.612 9.414 -9.413 9.414 C -4.214 9.414 0 5.199 0 0 Z "/>
</g>
<symbol id="font_1_1">
<path d="M .13200002 0 L .21700001 0 L .21700001 .65000006 L .142 .65000006 L 0 .574 L .017000005 .507 L .13000001 .568 L .13200002 .568 L .13200002 0 Z "/>
</symbol>
<use xlink:href="#font_1_1" transform="matrix(16.1326,0,0,-16.1326,53.517595,73.87639)" fill="#828486"/>
<clipPath id="cp3">
<path transform="matrix(1,0,0,-1,0,274.895)" d="M 0 274.895 L 639.821 274.895 L 639.821 0 L 0 0 Z "/>
</clipPath>
<g clip-path="url(#cp3)">
<path transform="matrix(1,0,0,-1,70.3862,43.137987)" d="M 0 0 C 0 -5.199 -4.214 -9.413 -9.414 -9.413 C -14.612 -9.413 -18.827 -5.199 -18.827 0 C -18.827 5.199 -14.612 9.414 -9.414 9.414 C -4.214 9.414 0 5.199 0 0 " fill="#ffffff"/>
<path transform="matrix(1,0,0,-1,70.3862,43.137987)" stroke-width="1" stroke-linecap="butt" stroke-miterlimit="10" stroke-linejoin="miter" fill="none" stroke="#a8aaad" d="M 0 0 C 0 -5.199 -4.214 -9.413 -9.414 -9.413 C -14.612 -9.413 -18.827 -5.199 -18.827 0 C -18.827 5.199 -14.612 9.414 -9.414 9.414 C -4.214 9.414 0 5.199 0 0 Z "/>
</g>
<symbol id="font_1_3">
<path d="M .385 0 L .385 .177 L .476 .177 L .476 .246 L .385 .246 L .385 .65000006 L .29000003 .65000006 L 0 .23500002 L 0 .177 L .302 .177 L .302 0 L .385 0 M .089 .246 L .089 .24800001 L .24800001 .469 C .26600004 .499 .282 .527 .302 .565 L .305 .565 C .30300004 .531 .302 .497 .302 .46300004 L .302 .246 L .089 .246 Z "/>
</symbol>
<use xlink:href="#font_1_3" transform="matrix(16.1326,0,0,-16.1326,57.07699,47.872987)" fill="#828486"/>
<clipPath id="cp4">
<path transform="matrix(1,0,0,-1,0,274.895)" d="M 0 274.895 L 639.821 274.895 L 639.821 0 L 0 0 Z "/>
</clipPath>
<g clip-path="url(#cp4)">
<path transform="matrix(1,0,0,-1,44.6436,55.997896)" d="M 0 0 C 0 -5.199 -4.214 -9.413 -9.414 -9.413 C -14.612 -9.413 -18.827 -5.199 -18.827 0 C -18.827 5.199 -14.612 9.414 -9.414 9.414 C -4.214 9.414 0 5.199 0 0 " fill="#ffffff"/>
<path transform="matrix(1,0,0,-1,44.6436,55.997896)" stroke-width="1" stroke-linecap="butt" stroke-miterlimit="10" stroke-linejoin="miter" fill="none" stroke="#a8aaad" d="M 0 0 C 0 -5.199 -4.214 -9.413 -9.414 -9.413 C -14.612 -9.413 -18.827 -5.199 -18.827 0 C -18.827 5.199 -14.612 9.414 -9.414 9.414 C -4.214 9.414 0 5.199 0 0 Z "/>
</g>
<use xlink:href="#font_1_2" transform="matrix(16.1326,0,0,-16.1326,31.818268,60.416994)" fill="#828486"/>
<clipPath id="cp5">
<path transform="matrix(1,0,0,-1,0,274.895)" d="M 0 274.895 L 639.821 274.895 L 639.821 0 L 0 0 Z "/>
</clipPath>
<g clip-path="url(#cp5)">
<path transform="matrix(1,0,0,-1,37.6904,80.49739)" d="M 0 0 C 0 -5.199 -4.214 -9.414 -9.413 -9.414 C -14.612 -9.414 -18.827 -5.199 -18.827 0 C -18.827 5.199 -14.612 9.413 -9.413 9.413 C -4.214 9.413 0 5.199 0 0 " fill="#ffffff"/>
<path transform="matrix(1,0,0,-1,37.6904,80.49739)" stroke-width="1" stroke-linecap="butt" stroke-miterlimit="10" stroke-linejoin="miter" fill="none" stroke="#a8aaad" d="M 0 0 C 0 -5.199 -4.214 -9.414 -9.413 -9.414 C -14.612 -9.414 -18.827 -5.199 -18.827 0 C -18.827 5.199 -14.612 9.413 -9.413 9.413 C -4.214 9.413 0 5.199 0 0 Z "/>
</g>
<use xlink:href="#font_1_2" transform="matrix(16.1326,0,0,-16.1326,24.865569,85.23239)" fill="#828486"/>
<clipPath id="cp6">
<path transform="matrix(1,0,0,-1,0,274.895)" d="M 0 274.895 L 639.821 274.895 L 639.821 0 L 0 0 Z "/>
</clipPath>
<g clip-path="url(#cp6)">
<path transform="matrix(1,0,0,-1,607.3027,159.84459)" d="M 0 0 C 0 -5.199 -4.215 -9.414 -9.414 -9.414 C -14.612 -9.414 -18.827 -5.199 -18.827 0 C -18.827 5.199 -14.612 9.413 -9.414 9.413 C -4.215 9.413 0 5.199 0 0 " fill="#ffffff"/>
<path transform="matrix(1,0,0,-1,607.3027,159.84459)" stroke-width="1" stroke-linecap="butt" stroke-miterlimit="10" stroke-linejoin="miter" fill="none" stroke="#a8aaad" d="M 0 0 C 0 -5.199 -4.215 -9.414 -9.414 -9.414 C -14.612 -9.414 -18.827 -5.199 -18.827 0 C -18.827 5.199 -14.612 9.413 -9.414 9.413 C -4.215 9.413 0 5.199 0 0 Z "/>
<path transform="matrix(1,0,0,-1,581.5596,172.42758)" d="M 0 0 C 0 -5.199 -4.215 -9.414 -9.413 -9.414 C -14.612 -9.414 -18.826 -5.199 -18.826 0 C -18.826 5.199 -14.612 9.413 -9.413 9.413 C -4.215 9.413 0 5.199 0 0 " fill="#ffffff"/>
<path transform="matrix(1,0,0,-1,581.5596,172.42758)" stroke-width="1" stroke-linecap="butt" stroke-miterlimit="10" stroke-linejoin="miter" fill="none" stroke="#a8aaad" d="M 0 0 C 0 -5.199 -4.215 -9.414 -9.413 -9.414 C -14.612 -9.414 -18.826 -5.199 -18.826 0 C -18.826 5.199 -14.612 9.413 -9.413 9.413 C -4.215 9.413 0 5.199 0 0 Z "/>
<path transform="matrix(1,0,0,-1,555.8174,164.55109)" d="M 0 0 C 0 -5.199 -4.215 -9.414 -9.414 -9.414 C -14.612 -9.414 -18.827 -5.199 -18.827 0 C -18.827 5.199 -14.612 9.413 -9.414 9.413 C -4.215 9.413 0 5.199 0 0 " fill="#ffffff"/>
<path transform="matrix(1,0,0,-1,555.8174,164.55109)" stroke-width="1" stroke-linecap="butt" stroke-miterlimit="10" stroke-linejoin="miter" fill="none" stroke="#a8aaad" d="M 0 0 C 0 -5.199 -4.215 -9.414 -9.414 -9.414 C -14.612 -9.414 -18.827 -5.199 -18.827 0 C -18.827 5.199 -14.612 9.413 -9.414 9.413 C -4.215 9.413 0 5.199 0 0 Z "/>
<path transform="matrix(1,0,0,-1,576.5645,145.7244)" d="M 0 0 C 0 -5.199 -4.214 -9.414 -9.413 -9.414 C -14.612 -9.414 -18.826 -5.199 -18.826 0 C -18.826 5.199 -14.612 9.413 -9.413 9.413 C -4.214 9.413 0 5.199 0 0 " fill="#ffffff"/>
<path transform="matrix(1,0,0,-1,576.5645,145.7244)" stroke-width="1" stroke-linecap="butt" stroke-miterlimit="10" stroke-linejoin="miter" fill="none" stroke="#a8aaad" d="M 0 0 C 0 -5.199 -4.214 -9.414 -9.413 -9.414 C -14.612 -9.414 -18.826 -5.199 -18.826 0 C -18.826 5.199 -14.612 9.413 -9.413 9.413 C -4.214 9.413 0 5.199 0 0 Z "/>
<path transform="matrix(1,0,0,-1,604.8047,136.31139)" d="M 0 0 C 0 -5.199 -4.214 -9.413 -9.413 -9.413 C -14.612 -9.413 -18.826 -5.199 -18.826 0 C -18.826 5.199 -14.612 9.414 -9.413 9.414 C -4.214 9.414 0 5.199 0 0 " fill="#ffffff"/>
<path transform="matrix(1,0,0,-1,604.8047,136.31139)" stroke-width="1" stroke-linecap="butt" stroke-miterlimit="10" stroke-linejoin="miter" fill="none" stroke="#a8aaad" d="M 0 0 C 0 -5.199 -4.214 -9.413 -9.413 -9.413 C -14.612 -9.413 -18.826 -5.199 -18.826 0 C -18.826 5.199 -14.612 9.414 -9.413 9.414 C -4.214 9.414 0 5.199 0 0 Z "/>
<path transform="matrix(1,0,0,-1,543.9062,136.31139)" d="M 0 0 C 0 -5.199 -4.215 -9.413 -9.413 -9.413 C -14.612 -9.413 -18.827 -5.199 -18.827 0 C -18.827 5.199 -14.612 9.414 -9.413 9.414 C -4.215 9.414 0 5.199 0 0 " fill="#ffffff"/>
<path transform="matrix(1,0,0,-1,543.9062,136.31139)" stroke-width="1" stroke-linecap="butt" stroke-miterlimit="10" stroke-linejoin="miter" fill="none" stroke="#a8aaad" d="M 0 0 C 0 -5.199 -4.215 -9.413 -9.413 -9.413 C -14.612 -9.413 -18.827 -5.199 -18.827 0 C -18.827 5.199 -14.612 9.414 -9.413 9.414 C -4.215 9.414 0 5.199 0 0 Z "/>
<path transform="matrix(1,0,0,-1,569.6484,119.021289)" d="M 0 0 C 0 -5.199 -4.214 -9.414 -9.413 -9.414 C -14.611 -9.414 -18.826 -5.199 -18.826 0 C -18.826 5.199 -14.611 9.413 -9.413 9.413 C -4.214 9.413 0 5.199 0 0 " fill="#ffffff"/>
<path transform="matrix(1,0,0,-1,569.6484,119.021289)" stroke-width="1" stroke-linecap="butt" stroke-miterlimit="10" stroke-linejoin="miter" fill="none" stroke="#a8aaad" d="M 0 0 C 0 -5.199 -4.214 -9.414 -9.413 -9.414 C -14.611 -9.414 -18.826 -5.199 -18.826 0 C -18.826 5.199 -14.611 9.413 -9.413 9.413 C -4.214 9.413 0 5.199 0 0 Z "/>
<path transform="matrix(1,0,0,-1,550.8223,104.99739)" d="M 0 0 C 0 -5.199 -4.215 -9.414 -9.413 -9.414 C -14.612 -9.414 -18.827 -5.199 -18.827 0 C -18.827 5.199 -14.612 9.414 -9.413 9.414 C -4.215 9.414 0 5.199 0 0 " fill="#ffffff"/>
<path transform="matrix(1,0,0,-1,550.8223,104.99739)" stroke-width="1" stroke-linecap="butt" stroke-miterlimit="10" stroke-linejoin="miter" fill="none" stroke="#a8aaad" d="M 0 0 C 0 -5.199 -4.215 -9.414 -9.413 -9.414 C -14.612 -9.414 -18.827 -5.199 -18.827 0 C -18.827 5.199 -14.612 9.414 -9.413 9.414 C -4.215 9.414 0 5.199 0 0 Z "/>
<path transform="matrix(1,0,0,-1,572.1465,93.66289)" d="M 0 0 C 0 -5.199 -4.215 -9.414 -9.413 -9.414 C -14.612 -9.414 -18.827 -5.199 -18.827 0 C -18.827 5.199 -14.612 9.414 -9.413 9.414 C -4.215 9.414 0 5.199 0 0 " fill="#ffffff"/>
<path transform="matrix(1,0,0,-1,572.1465,93.66289)" stroke-width="1" stroke-linecap="butt" stroke-miterlimit="10" stroke-linejoin="miter" fill="none" stroke="#a8aaad" d="M 0 0 C 0 -5.199 -4.215 -9.414 -9.413 -9.414 C -14.612 -9.414 -18.827 -5.199 -18.827 0 C -18.827 5.199 -14.612 9.414 -9.413 9.414 C -4.215 9.414 0 5.199 0 0 Z "/>
<path transform="matrix(1,0,0,-1,631.8926,169.25809)" d="M 0 0 C 0 -5.199 -4.215 -9.413 -9.414 -9.413 C -14.612 -9.413 -18.827 -5.199 -18.827 0 C -18.827 5.199 -14.612 9.414 -9.414 9.414 C -4.215 9.414 0 5.199 0 0 " fill="#ffffff"/>
<path transform="matrix(1,0,0,-1,631.8926,169.25809)" stroke-width="1" stroke-linecap="butt" stroke-miterlimit="10" stroke-linejoin="miter" fill="none" stroke="#a8aaad" d="M 0 0 C 0 -5.199 -4.215 -9.413 -9.414 -9.413 C -14.612 -9.413 -18.827 -5.199 -18.827 0 C -18.827 5.199 -14.612 9.414 -9.414 9.414 C -4.215 9.414 0 5.199 0 0 Z "/>
<path transform="matrix(1,0,0,-1,608.4111,186.83579)" d="M 0 0 C 0 -5.199 -4.215 -9.414 -9.414 -9.414 C -14.612 -9.414 -18.827 -5.199 -18.827 0 C -18.827 5.199 -14.612 9.413 -9.414 9.413 C -4.215 9.413 0 5.199 0 0 " fill="#ffffff"/>
<path transform="matrix(1,0,0,-1,608.4111,186.83579)" stroke-width="1" stroke-linecap="butt" stroke-miterlimit="10" stroke-linejoin="miter" fill="none" stroke="#a8aaad" d="M 0 0 C 0 -5.199 -4.215 -9.414 -9.414 -9.414 C -14.612 -9.414 -18.827 -5.199 -18.827 0 C -18.827 5.199 -14.612 9.413 -9.414 9.413 C -4.215 9.413 0 5.199 0 0 Z "/>
<path transform="matrix(1,0,0,-1,598.9971,60.416795)" d="M 0 0 C 0 -5.199 -4.214 -9.414 -9.413 -9.414 C -14.612 -9.414 -18.826 -5.199 -18.826 0 C -18.826 5.199 -14.612 9.413 -9.413 9.413 C -4.214 9.413 0 5.199 0 0 " fill="#ffffff"/>
<path transform="matrix(1,0,0,-1,598.9971,60.416795)" stroke-width="1" stroke-linecap="butt" stroke-miterlimit="10" stroke-linejoin="miter" fill="none" stroke="#a8aaad" d="M 0 0 C 0 -5.199 -4.214 -9.414 -9.413 -9.414 C -14.612 -9.414 -18.826 -5.199 -18.826 0 C -18.826 5.199 -14.612 9.413 -9.413 9.413 C -4.214 9.413 0 5.199 0 0 Z "/>
</g>
<symbol id="font_1_5">
<path d="M 0 .65000006 L 0 .577 L .31800003 .577 L .31800003 .57500007 L .036 0 L .127 0 L .41 .592 L .41 .65000006 L 0 .65000006 Z "/>
</symbol>
<use xlink:href="#font_1_5" transform="matrix(16.1326,0,0,-16.1326,586.36587,65.988788)" fill="#828486"/>
<clipPath id="cp7">
<path transform="matrix(1,0,0,-1,0,274.895)" d="M 0 274.895 L 639.821 274.895 L 639.821 0 L 0 0 Z "/>
</clipPath>
<g clip-path="url(#cp7)">
<path transform="matrix(1,0,0,-1,576.5645,68.30449)" d="M 0 0 C 0 -5.199 -4.214 -9.413 -9.413 -9.413 C -14.612 -9.413 -18.826 -5.199 -18.826 0 C -18.826 5.199 -14.612 9.414 -9.413 9.414 C -4.214 9.414 0 5.199 0 0 " fill="#ffffff"/>
<path transform="matrix(1,0,0,-1,576.5645,68.30449)" stroke-width="1" stroke-linecap="butt" stroke-miterlimit="10" stroke-linejoin="miter" fill="none" stroke="#a8aaad" d="M 0 0 C 0 -5.199 -4.214 -9.413 -9.413 -9.413 C -14.612 -9.413 -18.826 -5.199 -18.826 0 C -18.826 5.199 -14.612 9.414 -9.413 9.414 C -4.214 9.414 0 5.199 0 0 Z "/>
</g>
<symbol id="font_1_4">
<path d="M .39100004 .661 L .080000009 .661 L .038000004 .34900005 C .062 .35200004 .091 .35600005 .12799999 .35600005 C .25800003 .35600005 .314 .29600004 .31500004 .21200001 C .31500004 .12500002 .24400002 .071 .16100002 .071 C .102000009 .071 .049000004 .091000009 .022 .107 L 0 .040000004 C .031000004 .020000002 .091 0 .162 0 C .30300004 0 .404 .095000009 .404 .22200002 C .404 .30400003 .36200003 .36 .31100003 .38900004 C .27100004 .41300003 .22100002 .42400003 .171 .42400003 C .14700002 .42400003 .13300002 .42200003 .11800001 .42000003 L .143 .587 L .39100004 .587 L .39100004 .661 Z "/>
</symbol>
<use xlink:href="#font_1_4" transform="matrix(16.1326,0,0,-16.1326,563.6912,74.05385)" fill="#828486"/>
<clipPath id="cp8">
<path transform="matrix(1,0,0,-1,0,274.895)" d="M 0 274.895 L 639.821 274.895 L 639.821 0 L 0 0 Z "/>
</clipPath>
<g clip-path="url(#cp8)">
<path transform="matrix(1,0,0,-1,581.5596,43.137987)" d="M 0 0 C 0 -5.199 -4.215 -9.413 -9.413 -9.413 C -14.612 -9.413 -18.826 -5.199 -18.826 0 C -18.826 5.199 -14.612 9.414 -9.413 9.414 C -4.215 9.414 0 5.199 0 0 " fill="#ffffff"/>
<path transform="matrix(1,0,0,-1,581.5596,43.137987)" stroke-width="1" stroke-linecap="butt" stroke-miterlimit="10" stroke-linejoin="miter" fill="none" stroke="#a8aaad" d="M 0 0 C 0 -5.199 -4.215 -9.413 -9.413 -9.413 C -14.612 -9.413 -18.826 -5.199 -18.826 0 C -18.826 5.199 -14.612 9.414 -9.413 9.414 C -4.215 9.414 0 5.199 0 0 Z "/>
</g>
<use xlink:href="#font_1_5" transform="matrix(16.1326,0,0,-16.1326,568.92788,47.872987)" fill="#828486"/>
<clipPath id="cp9">
<path transform="matrix(1,0,0,-1,0,274.895)" d="M 0 274.895 L 639.821 274.895 L 639.821 0 L 0 0 Z "/>
</clipPath>
<g clip-path="url(#cp9)">
<path transform="matrix(1,0,0,-1,555.8174,55.997896)" d="M 0 0 C 0 -5.199 -4.215 -9.413 -9.414 -9.413 C -14.612 -9.413 -18.827 -5.199 -18.827 0 C -18.827 5.199 -14.612 9.414 -9.414 9.414 C -4.215 9.414 0 5.199 0 0 " fill="#ffffff"/>
<path transform="matrix(1,0,0,-1,555.8174,55.997896)" stroke-width="1" stroke-linecap="butt" stroke-miterlimit="10" stroke-linejoin="miter" fill="none" stroke="#a8aaad" d="M 0 0 C 0 -5.199 -4.215 -9.413 -9.414 -9.413 C -14.612 -9.413 -18.827 -5.199 -18.827 0 C -18.827 5.199 -14.612 9.414 -9.414 9.414 C -4.215 9.414 0 5.199 0 0 Z "/>
</g>
<use xlink:href="#font_1_4" transform="matrix(16.1326,0,0,-16.1326,542.9432,60.59445)" fill="#828486"/>
<clipPath id="cp10">
<path transform="matrix(1,0,0,-1,0,274.895)" d="M 0 274.895 L 639.821 274.895 L 639.821 0 L 0 0 Z "/>
</clipPath>
<g clip-path="url(#cp10)">
<path transform="matrix(1,0,0,-1,548.8643,80.49739)" d="M 0 0 C 0 -5.199 -4.215 -9.414 -9.413 -9.414 C -14.612 -9.414 -18.827 -5.199 -18.827 0 C -18.827 5.199 -14.612 9.413 -9.413 9.413 C -4.215 9.413 0 5.199 0 0 " fill="#ffffff"/>
<path transform="matrix(1,0,0,-1,548.8643,80.49739)" stroke-width="1" stroke-linecap="butt" stroke-miterlimit="10" stroke-linejoin="miter" fill="none" stroke="#a8aaad" d="M 0 0 C 0 -5.199 -4.215 -9.414 -9.413 -9.414 C -14.612 -9.414 -18.827 -5.199 -18.827 0 C -18.827 5.199 -14.612 9.413 -9.413 9.413 C -4.215 9.413 0 5.199 0 0 Z "/>
</g>
<use xlink:href="#font_1_3" transform="matrix(16.1326,0,0,-16.1326,535.555,85.23239)" fill="#828486"/>
<clipPath id="cp11">
<path transform="matrix(1,0,0,-1,0,274.895)" d="M 0 274.895 L 639.821 274.895 L 639.821 0 L 0 0 Z "/>
</clipPath>
<g clip-path="url(#cp11)">
<path transform="matrix(1,0,0,-1,223.79,87.90019)" d="M 0 0 C 0 -3.26 -2.644 -5.904 -5.904 -5.904 C -9.165 -5.904 -11.808 -3.26 -11.808 0 C -11.808 3.261 -9.165 5.904 -5.904 5.904 C -2.644 5.904 0 3.261 0 0 " fill="#ffffff"/>
<path transform="matrix(1,0,0,-1,223.79,87.90019)" stroke-width="1" stroke-linecap="butt" stroke-miterlimit="10" stroke-linejoin="miter" fill="none" stroke="#a8aaad" d="M 0 0 C 0 -3.26 -2.644 -5.904 -5.904 -5.904 C -9.165 -5.904 -11.808 -3.26 -11.808 0 C -11.808 3.261 -9.165 5.904 -5.904 5.904 C -2.644 5.904 0 3.261 0 0 Z "/>
<path transform="matrix(1,0,0,-1,207.644,95.79228)" d="M 0 0 C 0 -3.261 -2.643 -5.904 -5.904 -5.904 C -9.165 -5.904 -11.808 -3.261 -11.808 0 C -11.808 3.261 -9.165 5.904 -5.904 5.904 C -2.643 5.904 0 3.261 0 0 " fill="#ffffff"/>
<path transform="matrix(1,0,0,-1,207.644,95.79228)" stroke-width="1" stroke-linecap="butt" stroke-miterlimit="10" stroke-linejoin="miter" fill="none" stroke="#a8aaad" d="M 0 0 C 0 -3.261 -2.643 -5.904 -5.904 -5.904 C -9.165 -5.904 -11.808 -3.261 -11.808 0 C -11.808 3.261 -9.165 5.904 -5.904 5.904 C -2.643 5.904 0 3.261 0 0 Z "/>
<path transform="matrix(1,0,0,-1,191.4985,90.85188)" d="M 0 0 C 0 -3.261 -2.644 -5.904 -5.904 -5.904 C -9.165 -5.904 -11.808 -3.261 -11.808 0 C -11.808 3.261 -9.165 5.904 -5.904 5.904 C -2.644 5.904 0 3.261 0 0 " fill="#ffffff"/>
<path transform="matrix(1,0,0,-1,191.4985,90.85188)" stroke-width="1" stroke-linecap="butt" stroke-miterlimit="10" stroke-linejoin="miter" fill="none" stroke="#a8aaad" d="M 0 0 C 0 -3.261 -2.644 -5.904 -5.904 -5.904 C -9.165 -5.904 -11.808 -3.261 -11.808 0 C -11.808 3.261 -9.165 5.904 -5.904 5.904 C -2.644 5.904 0 3.261 0 0 Z "/>
<path transform="matrix(1,0,0,-1,204.5117,79.04379)" d="M 0 0 C 0 -3.261 -2.644 -5.904 -5.904 -5.904 C -9.165 -5.904 -11.808 -3.261 -11.808 0 C -11.808 3.261 -9.165 5.904 -5.904 5.904 C -2.644 5.904 0 3.261 0 0 " fill="#ffffff"/>
<path transform="matrix(1,0,0,-1,204.5117,79.04379)" stroke-width="1" stroke-linecap="butt" stroke-miterlimit="10" stroke-linejoin="miter" fill="none" stroke="#a8aaad" d="M 0 0 C 0 -3.261 -2.644 -5.904 -5.904 -5.904 C -9.165 -5.904 -11.808 -3.261 -11.808 0 C -11.808 3.261 -9.165 5.904 -5.904 5.904 C -2.644 5.904 0 3.261 0 0 Z "/>
<path transform="matrix(1,0,0,-1,222.2236,73.139987)" d="M 0 0 C 0 -3.261 -2.644 -5.904 -5.904 -5.904 C -9.165 -5.904 -11.808 -3.261 -11.808 0 C -11.808 3.261 -9.165 5.904 -5.904 5.904 C -2.644 5.904 0 3.261 0 0 " fill="#ffffff"/>
<path transform="matrix(1,0,0,-1,222.2236,73.139987)" stroke-width="1" stroke-linecap="butt" stroke-miterlimit="10" stroke-linejoin="miter" fill="none" stroke="#a8aaad" d="M 0 0 C 0 -3.261 -2.644 -5.904 -5.904 -5.904 C -9.165 -5.904 -11.808 -3.261 -11.808 0 C -11.808 3.261 -9.165 5.904 -5.904 5.904 C -2.644 5.904 0 3.261 0 0 Z "/>
<path transform="matrix(1,0,0,-1,184.0283,73.139987)" d="M 0 0 C 0 -3.261 -2.644 -5.904 -5.904 -5.904 C -9.165 -5.904 -11.808 -3.261 -11.808 0 C -11.808 3.261 -9.165 5.904 -5.904 5.904 C -2.644 5.904 0 3.261 0 0 " fill="#ffffff"/>
<path transform="matrix(1,0,0,-1,184.0283,73.139987)" stroke-width="1" stroke-linecap="butt" stroke-miterlimit="10" stroke-linejoin="miter" fill="none" stroke="#a8aaad" d="M 0 0 C 0 -3.261 -2.644 -5.904 -5.904 -5.904 C -9.165 -5.904 -11.808 -3.261 -11.808 0 C -11.808 3.261 -9.165 5.904 -5.904 5.904 C -2.644 5.904 0 3.261 0 0 Z "/>
<path transform="matrix(1,0,0,-1,200.1738,62.295686)" d="M 0 0 C 0 -3.261 -2.644 -5.904 -5.904 -5.904 C -9.165 -5.904 -11.808 -3.261 -11.808 0 C -11.808 3.261 -9.165 5.904 -5.904 5.904 C -2.644 5.904 0 3.261 0 0 " fill="#ffffff"/>
<path transform="matrix(1,0,0,-1,200.1738,62.295686)" stroke-width="1" stroke-linecap="butt" stroke-miterlimit="10" stroke-linejoin="miter" fill="none" stroke="#a8aaad" d="M 0 0 C 0 -3.261 -2.644 -5.904 -5.904 -5.904 C -9.165 -5.904 -11.808 -3.261 -11.808 0 C -11.808 3.261 -9.165 5.904 -5.904 5.904 C -2.644 5.904 0 3.261 0 0 Z "/>
<path transform="matrix(1,0,0,-1,188.3657,53.499788)" d="M 0 0 C 0 -3.261 -2.643 -5.904 -5.904 -5.904 C -9.165 -5.904 -11.808 -3.261 -11.808 0 C -11.808 3.261 -9.165 5.904 -5.904 5.904 C -2.643 5.904 0 3.261 0 0 " fill="#ffffff"/>
<path transform="matrix(1,0,0,-1,188.3657,53.499788)" stroke-width="1" stroke-linecap="butt" stroke-miterlimit="10" stroke-linejoin="miter" fill="none" stroke="#a8aaad" d="M 0 0 C 0 -3.261 -2.643 -5.904 -5.904 -5.904 C -9.165 -5.904 -11.808 -3.261 -11.808 0 C -11.808 3.261 -9.165 5.904 -5.904 5.904 C -2.643 5.904 0 3.261 0 0 Z "/>
<path transform="matrix(1,0,0,-1,201.7402,46.390886)" d="M 0 0 C 0 -3.261 -2.644 -5.904 -5.904 -5.904 C -9.165 -5.904 -11.808 -3.261 -11.808 0 C -11.808 3.261 -9.165 5.904 -5.904 5.904 C -2.644 5.904 0 3.261 0 0 " fill="#ffffff"/>
<path transform="matrix(1,0,0,-1,201.7402,46.390886)" stroke-width="1" stroke-linecap="butt" stroke-miterlimit="10" stroke-linejoin="miter" fill="none" stroke="#a8aaad" d="M 0 0 C 0 -3.261 -2.644 -5.904 -5.904 -5.904 C -9.165 -5.904 -11.808 -3.261 -11.808 0 C -11.808 3.261 -9.165 5.904 -5.904 5.904 C -2.644 5.904 0 3.261 0 0 Z "/>
<path transform="matrix(1,0,0,-1,239.2129,93.803989)" d="M 0 0 C 0 -3.261 -2.644 -5.904 -5.904 -5.904 C -9.165 -5.904 -11.808 -3.261 -11.808 0 C -11.808 3.261 -9.165 5.904 -5.904 5.904 C -2.644 5.904 0 3.261 0 0 " fill="#ffffff"/>
<path transform="matrix(1,0,0,-1,239.2129,93.803989)" stroke-width="1" stroke-linecap="butt" stroke-miterlimit="10" stroke-linejoin="miter" fill="none" stroke="#a8aaad" d="M 0 0 C 0 -3.261 -2.644 -5.904 -5.904 -5.904 C -9.165 -5.904 -11.808 -3.261 -11.808 0 C -11.808 3.261 -9.165 5.904 -5.904 5.904 C -2.644 5.904 0 3.261 0 0 Z "/>
<path transform="matrix(1,0,0,-1,224.4854,104.82889)" d="M 0 0 C 0 -3.261 -2.644 -5.904 -5.904 -5.904 C -9.165 -5.904 -11.808 -3.261 -11.808 0 C -11.808 3.261 -9.165 5.904 -5.904 5.904 C -2.644 5.904 0 3.261 0 0 " fill="#ffffff"/>
<path transform="matrix(1,0,0,-1,224.4854,104.82889)" stroke-width="1" stroke-linecap="butt" stroke-miterlimit="10" stroke-linejoin="miter" fill="none" stroke="#a8aaad" d="M 0 0 C 0 -3.261 -2.644 -5.904 -5.904 -5.904 C -9.165 -5.904 -11.808 -3.261 -11.808 0 C -11.808 3.261 -9.165 5.904 -5.904 5.904 C -2.644 5.904 0 3.261 0 0 Z "/>
<path transform="matrix(1,0,0,-1,218.5811,25.539383)" d="M 0 0 C 0 -3.261 -2.643 -5.904 -5.904 -5.904 C -9.165 -5.904 -11.808 -3.261 -11.808 0 C -11.808 3.261 -9.165 5.904 -5.904 5.904 C -2.643 5.904 0 3.261 0 0 " fill="#ffffff"/>
<path transform="matrix(1,0,0,-1,218.5811,25.539383)" stroke-width="1" stroke-linecap="butt" stroke-miterlimit="10" stroke-linejoin="miter" fill="none" stroke="#a8aaad" d="M 0 0 C 0 -3.261 -2.643 -5.904 -5.904 -5.904 C -9.165 -5.904 -11.808 -3.261 -11.808 0 C -11.808 3.261 -9.165 5.904 -5.904 5.904 C -2.643 5.904 0 3.261 0 0 Z "/>
<path transform="matrix(1,0,0,-1,204.5117,30.48619)" d="M 0 0 C 0 -3.261 -2.644 -5.904 -5.904 -5.904 C -9.165 -5.904 -11.808 -3.261 -11.808 0 C -11.808 3.26 -9.165 5.904 -5.904 5.904 C -2.644 5.904 0 3.26 0 0 " fill="#ffffff"/>
<path transform="matrix(1,0,0,-1,204.5117,30.48619)" stroke-width="1" stroke-linecap="butt" stroke-miterlimit="10" stroke-linejoin="miter" fill="none" stroke="#a8aaad" d="M 0 0 C 0 -3.261 -2.644 -5.904 -5.904 -5.904 C -9.165 -5.904 -11.808 -3.261 -11.808 0 C -11.808 3.26 -9.165 5.904 -5.904 5.904 C -2.644 5.904 0 3.26 0 0 Z "/>
<path transform="matrix(1,0,0,-1,207.644,14.701996)" d="M 0 0 C 0 -3.261 -2.643 -5.904 -5.904 -5.904 C -9.165 -5.904 -11.808 -3.261 -11.808 0 C -11.808 3.261 -9.165 5.904 -5.904 5.904 C -2.643 5.904 0 3.261 0 0 " fill="#ffffff"/>
<path transform="matrix(1,0,0,-1,207.644,14.701996)" stroke-width="1" stroke-linecap="butt" stroke-miterlimit="10" stroke-linejoin="miter" fill="none" stroke="#a8aaad" d="M 0 0 C 0 -3.261 -2.643 -5.904 -5.904 -5.904 C -9.165 -5.904 -11.808 -3.261 -11.808 0 C -11.808 3.261 -9.165 5.904 -5.904 5.904 C -2.643 5.904 0 3.261 0 0 Z "/>
<path transform="matrix(1,0,0,-1,191.4985,22.767884)" d="M 0 0 C 0 -3.26 -2.644 -5.904 -5.904 -5.904 C -9.165 -5.904 -11.808 -3.26 -11.808 0 C -11.808 3.261 -9.165 5.904 -5.904 5.904 C -2.644 5.904 0 3.261 0 0 " fill="#ffffff"/>
<path transform="matrix(1,0,0,-1,191.4985,22.767884)" stroke-width="1" stroke-linecap="butt" stroke-miterlimit="10" stroke-linejoin="miter" fill="none" stroke="#a8aaad" d="M 0 0 C 0 -3.26 -2.644 -5.904 -5.904 -5.904 C -9.165 -5.904 -11.808 -3.26 -11.808 0 C -11.808 3.261 -9.165 5.904 -5.904 5.904 C -2.644 5.904 0 3.261 0 0 Z "/>
<path transform="matrix(1,0,0,-1,187.1377,38.13359)" d="M 0 0 C 0 -3.261 -2.644 -5.904 -5.904 -5.904 C -9.165 -5.904 -11.808 -3.261 -11.808 0 C -11.808 3.26 -9.165 5.904 -5.904 5.904 C -2.644 5.904 0 3.26 0 0 " fill="#ffffff"/>
<path transform="matrix(1,0,0,-1,187.1377,38.13359)" stroke-width="1" stroke-linecap="butt" stroke-miterlimit="10" stroke-linejoin="miter" fill="none" stroke="#a8aaad" d="M 0 0 C 0 -3.261 -2.644 -5.904 -5.904 -5.904 C -9.165 -5.904 -11.808 -3.261 -11.808 0 C -11.808 3.26 -9.165 5.904 -5.904 5.904 C -2.644 5.904 0 3.26 0 0 Z "/>
<path transform="matrix(1,0,0,-1,198.6074,30.48619)" stroke-width="1" stroke-linecap="butt" stroke-miterlimit="10" stroke-linejoin="miter" fill="none" stroke="#bf2834" d="M 0 0 L 3.133 15.784 "/>
<path transform="matrix(1,0,0,-1,212.6772,25.539383)" stroke-width="1" stroke-linecap="butt" stroke-miterlimit="10" stroke-linejoin="miter" fill="none" stroke="#bf2834" d="M 0 0 L -10.937 10.837 "/>
<path transform="matrix(1,0,0,-1,320.5957,87.90019)" d="M 0 0 C 0 -3.26 -2.644 -5.904 -5.904 -5.904 C -9.165 -5.904 -11.809 -3.26 -11.809 0 C -11.809 3.261 -9.165 5.904 -5.904 5.904 C -2.644 5.904 0 3.261 0 0 " fill="#ffffff"/>
<path transform="matrix(1,0,0,-1,320.5957,87.90019)" stroke-width="1" stroke-linecap="butt" stroke-miterlimit="10" stroke-linejoin="miter" fill="none" stroke="#a8aaad" d="M 0 0 C 0 -3.26 -2.644 -5.904 -5.904 -5.904 C -9.165 -5.904 -11.809 -3.26 -11.809 0 C -11.809 3.261 -9.165 5.904 -5.904 5.904 C -2.644 5.904 0 3.261 0 0 Z "/>
<path transform="matrix(1,0,0,-1,304.4502,95.79228)" d="M 0 0 C 0 -3.261 -2.644 -5.904 -5.904 -5.904 C -9.165 -5.904 -11.809 -3.261 -11.809 0 C -11.809 3.261 -9.165 5.904 -5.904 5.904 C -2.644 5.904 0 3.261 0 0 " fill="#ffffff"/>
<path transform="matrix(1,0,0,-1,304.4502,95.79228)" stroke-width="1" stroke-linecap="butt" stroke-miterlimit="10" stroke-linejoin="miter" fill="none" stroke="#a8aaad" d="M 0 0 C 0 -3.261 -2.644 -5.904 -5.904 -5.904 C -9.165 -5.904 -11.809 -3.261 -11.809 0 C -11.809 3.261 -9.165 5.904 -5.904 5.904 C -2.644 5.904 0 3.261 0 0 Z "/>
<path transform="matrix(1,0,0,-1,288.3042,90.85188)" d="M 0 0 C 0 -3.261 -2.644 -5.904 -5.904 -5.904 C -9.165 -5.904 -11.808 -3.261 -11.808 0 C -11.808 3.261 -9.165 5.904 -5.904 5.904 C -2.644 5.904 0 3.261 0 0 " fill="#ffffff"/>
<path transform="matrix(1,0,0,-1,288.3042,90.85188)" stroke-width="1" stroke-linecap="butt" stroke-miterlimit="10" stroke-linejoin="miter" fill="none" stroke="#a8aaad" d="M 0 0 C 0 -3.261 -2.644 -5.904 -5.904 -5.904 C -9.165 -5.904 -11.808 -3.261 -11.808 0 C -11.808 3.261 -9.165 5.904 -5.904 5.904 C -2.644 5.904 0 3.261 0 0 Z "/>
<path transform="matrix(1,0,0,-1,301.3174,79.04379)" d="M 0 0 C 0 -3.261 -2.644 -5.904 -5.904 -5.904 C -9.165 -5.904 -11.809 -3.261 -11.809 0 C -11.809 3.261 -9.165 5.904 -5.904 5.904 C -2.644 5.904 0 3.261 0 0 " fill="#ffffff"/>
<path transform="matrix(1,0,0,-1,301.3174,79.04379)" stroke-width="1" stroke-linecap="butt" stroke-miterlimit="10" stroke-linejoin="miter" fill="none" stroke="#a8aaad" d="M 0 0 C 0 -3.261 -2.644 -5.904 -5.904 -5.904 C -9.165 -5.904 -11.809 -3.261 -11.809 0 C -11.809 3.261 -9.165 5.904 -5.904 5.904 C -2.644 5.904 0 3.261 0 0 Z "/>
<path transform="matrix(1,0,0,-1,319.0293,73.139987)" d="M 0 0 C 0 -3.261 -2.644 -5.904 -5.904 -5.904 C -9.165 -5.904 -11.809 -3.261 -11.809 0 C -11.809 3.261 -9.165 5.904 -5.904 5.904 C -2.644 5.904 0 3.261 0 0 " fill="#ffffff"/>
<path transform="matrix(1,0,0,-1,319.0293,73.139987)" stroke-width="1" stroke-linecap="butt" stroke-miterlimit="10" stroke-linejoin="miter" fill="none" stroke="#a8aaad" d="M 0 0 C 0 -3.261 -2.644 -5.904 -5.904 -5.904 C -9.165 -5.904 -11.809 -3.261 -11.809 0 C -11.809 3.261 -9.165 5.904 -5.904 5.904 C -2.644 5.904 0 3.261 0 0 Z "/>
<path transform="matrix(1,0,0,-1,280.8335,73.139987)" d="M 0 0 C 0 -3.261 -2.643 -5.904 -5.904 -5.904 C -9.165 -5.904 -11.808 -3.261 -11.808 0 C -11.808 3.261 -9.165 5.904 -5.904 5.904 C -2.643 5.904 0 3.261 0 0 " fill="#ffffff"/>
<path transform="matrix(1,0,0,-1,280.8335,73.139987)" stroke-width="1" stroke-linecap="butt" stroke-miterlimit="10" stroke-linejoin="miter" fill="none" stroke="#a8aaad" d="M 0 0 C 0 -3.261 -2.643 -5.904 -5.904 -5.904 C -9.165 -5.904 -11.808 -3.261 -11.808 0 C -11.808 3.261 -9.165 5.904 -5.904 5.904 C -2.643 5.904 0 3.261 0 0 Z "/>
<path transform="matrix(1,0,0,-1,296.9795,62.295686)" d="M 0 0 C 0 -3.261 -2.644 -5.904 -5.904 -5.904 C -9.165 -5.904 -11.808 -3.261 -11.808 0 C -11.808 3.261 -9.165 5.904 -5.904 5.904 C -2.644 5.904 0 3.261 0 0 " fill="#ffffff"/>
<path transform="matrix(1,0,0,-1,296.9795,62.295686)" stroke-width="1" stroke-linecap="butt" stroke-miterlimit="10" stroke-linejoin="miter" fill="none" stroke="#a8aaad" d="M 0 0 C 0 -3.261 -2.644 -5.904 -5.904 -5.904 C -9.165 -5.904 -11.808 -3.261 -11.808 0 C -11.808 3.261 -9.165 5.904 -5.904 5.904 C -2.644 5.904 0 3.261 0 0 Z "/>
<path transform="matrix(1,0,0,-1,285.1714,53.499788)" d="M 0 0 C 0 -3.261 -2.644 -5.904 -5.904 -5.904 C -9.165 -5.904 -11.808 -3.261 -11.808 0 C -11.808 3.261 -9.165 5.904 -5.904 5.904 C -2.644 5.904 0 3.261 0 0 " fill="#ffffff"/>
<path transform="matrix(1,0,0,-1,285.1714,53.499788)" stroke-width="1" stroke-linecap="butt" stroke-miterlimit="10" stroke-linejoin="miter" fill="none" stroke="#a8aaad" d="M 0 0 C 0 -3.261 -2.644 -5.904 -5.904 -5.904 C -9.165 -5.904 -11.808 -3.261 -11.808 0 C -11.808 3.261 -9.165 5.904 -5.904 5.904 C -2.644 5.904 0 3.261 0 0 Z "/>
<path transform="matrix(1,0,0,-1,298.5459,46.390886)" d="M 0 0 C 0 -3.261 -2.644 -5.904 -5.904 -5.904 C -9.165 -5.904 -11.808 -3.261 -11.808 0 C -11.808 3.261 -9.165 5.904 -5.904 5.904 C -2.644 5.904 0 3.261 0 0 " fill="#ffffff"/>
<path transform="matrix(1,0,0,-1,298.5459,46.390886)" stroke-width="1" stroke-linecap="butt" stroke-miterlimit="10" stroke-linejoin="miter" fill="none" stroke="#a8aaad" d="M 0 0 C 0 -3.261 -2.644 -5.904 -5.904 -5.904 C -9.165 -5.904 -11.808 -3.261 -11.808 0 C -11.808 3.261 -9.165 5.904 -5.904 5.904 C -2.644 5.904 0 3.261 0 0 Z "/>
<path transform="matrix(1,0,0,-1,336.0186,93.803989)" d="M 0 0 C 0 -3.261 -2.644 -5.904 -5.904 -5.904 C -9.165 -5.904 -11.809 -3.261 -11.809 0 C -11.809 3.261 -9.165 5.904 -5.904 5.904 C -2.644 5.904 0 3.261 0 0 " fill="#ffffff"/>
<path transform="matrix(1,0,0,-1,336.0186,93.803989)" stroke-width="1" stroke-linecap="butt" stroke-miterlimit="10" stroke-linejoin="miter" fill="none" stroke="#a8aaad" d="M 0 0 C 0 -3.261 -2.644 -5.904 -5.904 -5.904 C -9.165 -5.904 -11.809 -3.261 -11.809 0 C -11.809 3.261 -9.165 5.904 -5.904 5.904 C -2.644 5.904 0 3.261 0 0 Z "/>
<path transform="matrix(1,0,0,-1,321.291,104.82889)" d="M 0 0 C 0 -3.261 -2.644 -5.904 -5.904 -5.904 C -9.165 -5.904 -11.809 -3.261 -11.809 0 C -11.809 3.261 -9.165 5.904 -5.904 5.904 C -2.644 5.904 0 3.261 0 0 " fill="#ffffff"/>
<path transform="matrix(1,0,0,-1,321.291,104.82889)" stroke-width="1" stroke-linecap="butt" stroke-miterlimit="10" stroke-linejoin="miter" fill="none" stroke="#a8aaad" d="M 0 0 C 0 -3.261 -2.644 -5.904 -5.904 -5.904 C -9.165 -5.904 -11.809 -3.261 -11.809 0 C -11.809 3.261 -9.165 5.904 -5.904 5.904 C -2.644 5.904 0 3.261 0 0 Z "/>
<path transform="matrix(1,0,0,-1,315.3867,25.539383)" d="M 0 0 C 0 -3.261 -2.644 -5.904 -5.904 -5.904 C -9.165 -5.904 -11.808 -3.261 -11.808 0 C -11.808 3.261 -9.165 5.904 -5.904 5.904 C -2.644 5.904 0 3.261 0 0 " fill="#ffffff"/>
<path transform="matrix(1,0,0,-1,315.3867,25.539383)" stroke-width="1" stroke-linecap="butt" stroke-miterlimit="10" stroke-linejoin="miter" fill="none" stroke="#a8aaad" d="M 0 0 C 0 -3.261 -2.644 -5.904 -5.904 -5.904 C -9.165 -5.904 -11.808 -3.261 -11.808 0 C -11.808 3.261 -9.165 5.904 -5.904 5.904 C -2.644 5.904 0 3.261 0 0 Z "/>
<path transform="matrix(1,0,0,-1,301.3174,30.48619)" d="M 0 0 C 0 -3.261 -2.644 -5.904 -5.904 -5.904 C -9.165 -5.904 -11.809 -3.261 -11.809 0 C -11.809 3.26 -9.165 5.904 -5.904 5.904 C -2.644 5.904 0 3.26 0 0 " fill="#ffffff"/>
<path transform="matrix(1,0,0,-1,301.3174,30.48619)" stroke-width="1" stroke-linecap="butt" stroke-miterlimit="10" stroke-linejoin="miter" fill="none" stroke="#a8aaad" d="M 0 0 C 0 -3.261 -2.644 -5.904 -5.904 -5.904 C -9.165 -5.904 -11.809 -3.261 -11.809 0 C -11.809 3.26 -9.165 5.904 -5.904 5.904 C -2.644 5.904 0 3.26 0 0 Z "/>
<path transform="matrix(1,0,0,-1,304.4502,14.701996)" d="M 0 0 C 0 -3.261 -2.644 -5.904 -5.904 -5.904 C -9.165 -5.904 -11.809 -3.261 -11.809 0 C -11.809 3.261 -9.165 5.904 -5.904 5.904 C -2.644 5.904 0 3.261 0 0 " fill="#ffffff"/>
<path transform="matrix(1,0,0,-1,304.4502,14.701996)" stroke-width="1" stroke-linecap="butt" stroke-miterlimit="10" stroke-linejoin="miter" fill="none" stroke="#a8aaad" d="M 0 0 C 0 -3.261 -2.644 -5.904 -5.904 -5.904 C -9.165 -5.904 -11.809 -3.261 -11.809 0 C -11.809 3.261 -9.165 5.904 -5.904 5.904 C -2.644 5.904 0 3.261 0 0 Z "/>
<path transform="matrix(1,0,0,-1,288.3042,22.767884)" d="M 0 0 C 0 -3.26 -2.644 -5.904 -5.904 -5.904 C -9.165 -5.904 -11.808 -3.26 -11.808 0 C -11.808 3.261 -9.165 5.904 -5.904 5.904 C -2.644 5.904 0 3.261 0 0 " fill="#ffffff"/>
<path transform="matrix(1,0,0,-1,288.3042,22.767884)" stroke-width="1" stroke-linecap="butt" stroke-miterlimit="10" stroke-linejoin="miter" fill="none" stroke="#a8aaad" d="M 0 0 C 0 -3.26 -2.644 -5.904 -5.904 -5.904 C -9.165 -5.904 -11.808 -3.26 -11.808 0 C -11.808 3.261 -9.165 5.904 -5.904 5.904 C -2.644 5.904 0 3.261 0 0 Z "/>
<path transform="matrix(1,0,0,-1,283.9434,38.13359)" d="M 0 0 C 0 -3.261 -2.644 -5.904 -5.904 -5.904 C -9.165 -5.904 -11.808 -3.261 -11.808 0 C -11.808 3.26 -9.165 5.904 -5.904 5.904 C -2.644 5.904 0 3.26 0 0 " fill="#ffffff"/>
<path transform="matrix(1,0,0,-1,283.9434,38.13359)" stroke-width="1" stroke-linecap="butt" stroke-miterlimit="10" stroke-linejoin="miter" fill="none" stroke="#a8aaad" d="M 0 0 C 0 -3.261 -2.644 -5.904 -5.904 -5.904 C -9.165 -5.904 -11.808 -3.261 -11.808 0 C -11.808 3.26 -9.165 5.904 -5.904 5.904 C -2.644 5.904 0 3.26 0 0 Z "/>
<path transform="matrix(1,0,0,-1,309.4824,25.539383)" stroke-width="1" stroke-linecap="butt" stroke-miterlimit="10" stroke-linejoin="miter" fill="none" stroke="#bf2834" d="M 0 0 L -10.937 10.837 "/>
<path transform="matrix(1,0,0,-1,295.4131,30.48619)" stroke-width="1" stroke-linecap="butt" stroke-miterlimit="10" stroke-linejoin="miter" fill="none" stroke="#bf2834" d="M 0 0 L 14.069 4.947 "/>
<path transform="matrix(1,0,0,-1,417.4014,87.42268)" d="M 0 0 C 0 -3.261 -2.644 -5.904 -5.904 -5.904 C -9.165 -5.904 -11.809 -3.261 -11.809 0 C -11.809 3.261 -9.165 5.904 -5.904 5.904 C -2.644 5.904 0 3.261 0 0 " fill="#ffffff"/>
<path transform="matrix(1,0,0,-1,417.4014,87.42268)" stroke-width="1" stroke-linecap="butt" stroke-miterlimit="10" stroke-linejoin="miter" fill="none" stroke="#a8aaad" d="M 0 0 C 0 -3.261 -2.644 -5.904 -5.904 -5.904 C -9.165 -5.904 -11.809 -3.261 -11.809 0 C -11.809 3.261 -9.165 5.904 -5.904 5.904 C -2.644 5.904 0 3.261 0 0 Z "/>
<path transform="matrix(1,0,0,-1,401.2559,95.31479)" d="M 0 0 C 0 -3.261 -2.644 -5.904 -5.904 -5.904 C -9.165 -5.904 -11.809 -3.261 -11.809 0 C -11.809 3.261 -9.165 5.904 -5.904 5.904 C -2.644 5.904 0 3.261 0 0 " fill="#ffffff"/>
<path transform="matrix(1,0,0,-1,401.2559,95.31479)" stroke-width="1" stroke-linecap="butt" stroke-miterlimit="10" stroke-linejoin="miter" fill="none" stroke="#a8aaad" d="M 0 0 C 0 -3.261 -2.644 -5.904 -5.904 -5.904 C -9.165 -5.904 -11.809 -3.261 -11.809 0 C -11.809 3.261 -9.165 5.904 -5.904 5.904 C -2.644 5.904 0 3.261 0 0 Z "/>
<path transform="matrix(1,0,0,-1,385.1094,90.37428)" d="M 0 0 C 0 -3.261 -2.643 -5.904 -5.903 -5.904 C -9.164 -5.904 -11.808 -3.261 -11.808 0 C -11.808 3.261 -9.164 5.904 -5.903 5.904 C -2.643 5.904 0 3.261 0 0 " fill="#ffffff"/>
<path transform="matrix(1,0,0,-1,385.1094,90.37428)" stroke-width="1" stroke-linecap="butt" stroke-miterlimit="10" stroke-linejoin="miter" fill="none" stroke="#a8aaad" d="M 0 0 C 0 -3.261 -2.643 -5.904 -5.903 -5.904 C -9.164 -5.904 -11.808 -3.261 -11.808 0 C -11.808 3.261 -9.164 5.904 -5.903 5.904 C -2.643 5.904 0 3.261 0 0 Z "/>
<path transform="matrix(1,0,0,-1,398.123,78.566699)" d="M 0 0 C 0 -3.26 -2.644 -5.904 -5.904 -5.904 C -9.165 -5.904 -11.809 -3.26 -11.809 0 C -11.809 3.261 -9.165 5.904 -5.904 5.904 C -2.644 5.904 0 3.261 0 0 " fill="#ffffff"/>
<path transform="matrix(1,0,0,-1,398.123,78.566699)" stroke-width="1" stroke-linecap="butt" stroke-miterlimit="10" stroke-linejoin="miter" fill="none" stroke="#a8aaad" d="M 0 0 C 0 -3.26 -2.644 -5.904 -5.904 -5.904 C -9.165 -5.904 -11.809 -3.26 -11.809 0 C -11.809 3.261 -9.165 5.904 -5.904 5.904 C -2.644 5.904 0 3.261 0 0 Z "/>
<path transform="matrix(1,0,0,-1,415.835,72.662387)" d="M 0 0 C 0 -3.261 -2.644 -5.904 -5.904 -5.904 C -9.165 -5.904 -11.809 -3.261 -11.809 0 C -11.809 3.261 -9.165 5.904 -5.904 5.904 C -2.644 5.904 0 3.261 0 0 " fill="#ffffff"/>
<path transform="matrix(1,0,0,-1,415.835,72.662387)" stroke-width="1" stroke-linecap="butt" stroke-miterlimit="10" stroke-linejoin="miter" fill="none" stroke="#a8aaad" d="M 0 0 C 0 -3.261 -2.644 -5.904 -5.904 -5.904 C -9.165 -5.904 -11.809 -3.261 -11.809 0 C -11.809 3.261 -9.165 5.904 -5.904 5.904 C -2.644 5.904 0 3.261 0 0 Z "/>
<path transform="matrix(1,0,0,-1,377.6396,72.662387)" d="M 0 0 C 0 -3.261 -2.644 -5.904 -5.904 -5.904 C -9.165 -5.904 -11.809 -3.261 -11.809 0 C -11.809 3.261 -9.165 5.904 -5.904 5.904 C -2.644 5.904 0 3.261 0 0 " fill="#ffffff"/>
<path transform="matrix(1,0,0,-1,377.6396,72.662387)" stroke-width="1" stroke-linecap="butt" stroke-miterlimit="10" stroke-linejoin="miter" fill="none" stroke="#a8aaad" d="M 0 0 C 0 -3.261 -2.644 -5.904 -5.904 -5.904 C -9.165 -5.904 -11.809 -3.261 -11.809 0 C -11.809 3.261 -9.165 5.904 -5.904 5.904 C -2.644 5.904 0 3.261 0 0 Z "/>
<path transform="matrix(1,0,0,-1,393.7852,61.81819)" d="M 0 0 C 0 -3.261 -2.644 -5.904 -5.904 -5.904 C -9.165 -5.904 -11.809 -3.261 -11.809 0 C -11.809 3.261 -9.165 5.904 -5.904 5.904 C -2.644 5.904 0 3.261 0 0 " fill="#ffffff"/>
<path transform="matrix(1,0,0,-1,393.7852,61.81819)" stroke-width="1" stroke-linecap="butt" stroke-miterlimit="10" stroke-linejoin="miter" fill="none" stroke="#a8aaad" d="M 0 0 C 0 -3.261 -2.644 -5.904 -5.904 -5.904 C -9.165 -5.904 -11.809 -3.261 -11.809 0 C -11.809 3.261 -9.165 5.904 -5.904 5.904 C -2.644 5.904 0 3.261 0 0 Z "/>
<path transform="matrix(1,0,0,-1,381.9766,53.022798)" d="M 0 0 C 0 -3.26 -2.643 -5.904 -5.903 -5.904 C -9.164 -5.904 -11.808 -3.26 -11.808 0 C -11.808 3.261 -9.164 5.904 -5.903 5.904 C -2.643 5.904 0 3.261 0 0 " fill="#ffffff"/>
<path transform="matrix(1,0,0,-1,381.9766,53.022798)" stroke-width="1" stroke-linecap="butt" stroke-miterlimit="10" stroke-linejoin="miter" fill="none" stroke="#a8aaad" d="M 0 0 C 0 -3.26 -2.643 -5.904 -5.903 -5.904 C -9.164 -5.904 -11.808 -3.26 -11.808 0 C -11.808 3.261 -9.164 5.904 -5.903 5.904 C -2.643 5.904 0 3.261 0 0 Z "/>
<path transform="matrix(1,0,0,-1,395.3516,45.91339)" d="M 0 0 C 0 -3.261 -2.644 -5.904 -5.904 -5.904 C -9.165 -5.904 -11.809 -3.261 -11.809 0 C -11.809 3.26 -9.165 5.904 -5.904 5.904 C -2.644 5.904 0 3.26 0 0 " fill="#ffffff"/>
<path transform="matrix(1,0,0,-1,395.3516,45.91339)" stroke-width="1" stroke-linecap="butt" stroke-miterlimit="10" stroke-linejoin="miter" fill="none" stroke="#a8aaad" d="M 0 0 C 0 -3.261 -2.644 -5.904 -5.904 -5.904 C -9.165 -5.904 -11.809 -3.261 -11.809 0 C -11.809 3.26 -9.165 5.904 -5.904 5.904 C -2.644 5.904 0 3.26 0 0 Z "/>
<path transform="matrix(1,0,0,-1,432.8242,93.32649)" d="M 0 0 C 0 -3.261 -2.644 -5.904 -5.904 -5.904 C -9.165 -5.904 -11.809 -3.261 -11.809 0 C -11.809 3.261 -9.165 5.904 -5.904 5.904 C -2.644 5.904 0 3.261 0 0 " fill="#ffffff"/>
<path transform="matrix(1,0,0,-1,432.8242,93.32649)" stroke-width="1" stroke-linecap="butt" stroke-miterlimit="10" stroke-linejoin="miter" fill="none" stroke="#a8aaad" d="M 0 0 C 0 -3.261 -2.644 -5.904 -5.904 -5.904 C -9.165 -5.904 -11.809 -3.261 -11.809 0 C -11.809 3.261 -9.165 5.904 -5.904 5.904 C -2.644 5.904 0 3.261 0 0 Z "/>
<path transform="matrix(1,0,0,-1,418.0967,104.351398)" d="M 0 0 C 0 -3.261 -2.644 -5.904 -5.904 -5.904 C -9.165 -5.904 -11.809 -3.261 -11.809 0 C -11.809 3.261 -9.165 5.904 -5.904 5.904 C -2.644 5.904 0 3.261 0 0 " fill="#ffffff"/>
<path transform="matrix(1,0,0,-1,418.0967,104.351398)" stroke-width="1" stroke-linecap="butt" stroke-miterlimit="10" stroke-linejoin="miter" fill="none" stroke="#a8aaad" d="M 0 0 C 0 -3.261 -2.644 -5.904 -5.904 -5.904 C -9.165 -5.904 -11.809 -3.261 -11.809 0 C -11.809 3.261 -9.165 5.904 -5.904 5.904 C -2.644 5.904 0 3.261 0 0 Z "/>
<path transform="matrix(1,0,0,-1,412.1924,25.061783)" d="M 0 0 C 0 -3.261 -2.644 -5.904 -5.904 -5.904 C -9.165 -5.904 -11.809 -3.261 -11.809 0 C -11.809 3.261 -9.165 5.904 -5.904 5.904 C -2.644 5.904 0 3.261 0 0 " fill="#ffffff"/>
<path transform="matrix(1,0,0,-1,412.1924,25.061783)" stroke-width="1" stroke-linecap="butt" stroke-miterlimit="10" stroke-linejoin="miter" fill="none" stroke="#a8aaad" d="M 0 0 C 0 -3.261 -2.644 -5.904 -5.904 -5.904 C -9.165 -5.904 -11.809 -3.261 -11.809 0 C -11.809 3.261 -9.165 5.904 -5.904 5.904 C -2.644 5.904 0 3.261 0 0 Z "/>
<path transform="matrix(1,0,0,-1,398.123,30.009095)" d="M 0 0 C 0 -3.26 -2.644 -5.904 -5.904 -5.904 C -9.165 -5.904 -11.809 -3.26 -11.809 0 C -11.809 3.261 -9.165 5.904 -5.904 5.904 C -2.644 5.904 0 3.261 0 0 " fill="#ffffff"/>
<path transform="matrix(1,0,0,-1,398.123,30.009095)" stroke-width="1" stroke-linecap="butt" stroke-miterlimit="10" stroke-linejoin="miter" fill="none" stroke="#a8aaad" d="M 0 0 C 0 -3.26 -2.644 -5.904 -5.904 -5.904 C -9.165 -5.904 -11.809 -3.26 -11.809 0 C -11.809 3.261 -9.165 5.904 -5.904 5.904 C -2.644 5.904 0 3.261 0 0 Z "/>
<path transform="matrix(1,0,0,-1,401.2559,14.224396)" d="M 0 0 C 0 -3.261 -2.644 -5.904 -5.904 -5.904 C -9.165 -5.904 -11.809 -3.261 -11.809 0 C -11.809 3.261 -9.165 5.904 -5.904 5.904 C -2.644 5.904 0 3.261 0 0 " fill="#ffffff"/>
<path transform="matrix(1,0,0,-1,401.2559,14.224396)" stroke-width="1" stroke-linecap="butt" stroke-miterlimit="10" stroke-linejoin="miter" fill="none" stroke="#a8aaad" d="M 0 0 C 0 -3.261 -2.644 -5.904 -5.904 -5.904 C -9.165 -5.904 -11.809 -3.261 -11.809 0 C -11.809 3.261 -9.165 5.904 -5.904 5.904 C -2.644 5.904 0 3.261 0 0 Z "/>
<path transform="matrix(1,0,0,-1,385.1094,22.29039)" d="M 0 0 C 0 -3.261 -2.643 -5.904 -5.903 -5.904 C -9.164 -5.904 -11.808 -3.261 -11.808 0 C -11.808 3.261 -9.164 5.904 -5.903 5.904 C -2.643 5.904 0 3.261 0 0 " fill="#ffffff"/>
<path transform="matrix(1,0,0,-1,385.1094,22.29039)" stroke-width="1" stroke-linecap="butt" stroke-miterlimit="10" stroke-linejoin="miter" fill="none" stroke="#a8aaad" d="M 0 0 C 0 -3.261 -2.643 -5.904 -5.903 -5.904 C -9.164 -5.904 -11.808 -3.261 -11.808 0 C -11.808 3.261 -9.164 5.904 -5.903 5.904 C -2.643 5.904 0 3.261 0 0 Z "/>
<path transform="matrix(1,0,0,-1,380.749,37.656587)" d="M 0 0 C 0 -3.26 -2.644 -5.904 -5.904 -5.904 C -9.165 -5.904 -11.809 -3.26 -11.809 0 C -11.809 3.261 -9.165 5.904 -5.904 5.904 C -2.644 5.904 0 3.261 0 0 " fill="#ffffff"/>
<path transform="matrix(1,0,0,-1,380.749,37.656587)" stroke-width="1" stroke-linecap="butt" stroke-miterlimit="10" stroke-linejoin="miter" fill="none" stroke="#a8aaad" d="M 0 0 C 0 -3.26 -2.644 -5.904 -5.904 -5.904 C -9.165 -5.904 -11.809 -3.26 -11.809 0 C -11.809 3.261 -9.165 5.904 -5.904 5.904 C -2.644 5.904 0 3.261 0 0 Z "/>
<path transform="matrix(1,0,0,-1,374.8447,37.656587)" stroke-width="1" stroke-linecap="butt" stroke-miterlimit="10" stroke-linejoin="miter" fill="none" stroke="#bf2834" d="M 0 0 L 4.361 15.54 "/>
<path transform="matrix(1,0,0,-1,392.2187,30.009095)" stroke-width="1" stroke-linecap="butt" stroke-miterlimit="10" stroke-linejoin="miter" fill="none" stroke="#bf2834" d="M 0 0 L -12.704 7.893 "/>
<path transform="matrix(1,0,0,-1,223.79,209.2952)" d="M 0 0 C 0 -3.26 -2.644 -5.904 -5.904 -5.904 C -9.165 -5.904 -11.808 -3.26 -11.808 0 C -11.808 3.261 -9.165 5.904 -5.904 5.904 C -2.644 5.904 0 3.261 0 0 " fill="#ffffff"/>
<path transform="matrix(1,0,0,-1,223.79,209.2952)" stroke-width="1" stroke-linecap="butt" stroke-miterlimit="10" stroke-linejoin="miter" fill="none" stroke="#a8aaad" d="M 0 0 C 0 -3.26 -2.644 -5.904 -5.904 -5.904 C -9.165 -5.904 -11.808 -3.26 -11.808 0 C -11.808 3.261 -9.165 5.904 -5.904 5.904 C -2.644 5.904 0 3.261 0 0 Z "/>
<path transform="matrix(1,0,0,-1,207.644,217.18729)" d="M 0 0 C 0 -3.261 -2.643 -5.904 -5.904 -5.904 C -9.165 -5.904 -11.808 -3.261 -11.808 0 C -11.808 3.261 -9.165 5.904 -5.904 5.904 C -2.643 5.904 0 3.261 0 0 " fill="#ffffff"/>
<path transform="matrix(1,0,0,-1,207.644,217.18729)" stroke-width="1" stroke-linecap="butt" stroke-miterlimit="10" stroke-linejoin="miter" fill="none" stroke="#a8aaad" d="M 0 0 C 0 -3.261 -2.643 -5.904 -5.904 -5.904 C -9.165 -5.904 -11.808 -3.261 -11.808 0 C -11.808 3.261 -9.165 5.904 -5.904 5.904 C -2.643 5.904 0 3.261 0 0 Z "/>
<path transform="matrix(1,0,0,-1,191.4985,212.24689)" d="M 0 0 C 0 -3.261 -2.644 -5.904 -5.904 -5.904 C -9.165 -5.904 -11.808 -3.261 -11.808 0 C -11.808 3.261 -9.165 5.904 -5.904 5.904 C -2.644 5.904 0 3.261 0 0 " fill="#ffffff"/>
<path transform="matrix(1,0,0,-1,191.4985,212.24689)" stroke-width="1" stroke-linecap="butt" stroke-miterlimit="10" stroke-linejoin="miter" fill="none" stroke="#a8aaad" d="M 0 0 C 0 -3.261 -2.644 -5.904 -5.904 -5.904 C -9.165 -5.904 -11.808 -3.261 -11.808 0 C -11.808 3.261 -9.165 5.904 -5.904 5.904 C -2.644 5.904 0 3.261 0 0 Z "/>
<path transform="matrix(1,0,0,-1,204.5117,200.43878)" d="M 0 0 C 0 -3.261 -2.644 -5.904 -5.904 -5.904 C -9.165 -5.904 -11.808 -3.261 -11.808 0 C -11.808 3.261 -9.165 5.904 -5.904 5.904 C -2.644 5.904 0 3.261 0 0 " fill="#ffffff"/>
<path transform="matrix(1,0,0,-1,204.5117,200.43878)" stroke-width="1" stroke-linecap="butt" stroke-miterlimit="10" stroke-linejoin="miter" fill="none" stroke="#a8aaad" d="M 0 0 C 0 -3.261 -2.644 -5.904 -5.904 -5.904 C -9.165 -5.904 -11.808 -3.261 -11.808 0 C -11.808 3.261 -9.165 5.904 -5.904 5.904 C -2.644 5.904 0 3.261 0 0 Z "/>
<path transform="matrix(1,0,0,-1,222.2236,194.53499)" d="M 0 0 C 0 -3.261 -2.644 -5.904 -5.904 -5.904 C -9.165 -5.904 -11.808 -3.261 -11.808 0 C -11.808 3.261 -9.165 5.904 -5.904 5.904 C -2.644 5.904 0 3.261 0 0 " fill="#ffffff"/>
<path transform="matrix(1,0,0,-1,222.2236,194.53499)" stroke-width="1" stroke-linecap="butt" stroke-miterlimit="10" stroke-linejoin="miter" fill="none" stroke="#a8aaad" d="M 0 0 C 0 -3.261 -2.644 -5.904 -5.904 -5.904 C -9.165 -5.904 -11.808 -3.261 -11.808 0 C -11.808 3.261 -9.165 5.904 -5.904 5.904 C -2.644 5.904 0 3.261 0 0 Z "/>
<path transform="matrix(1,0,0,-1,184.0283,194.53499)" d="M 0 0 C 0 -3.261 -2.644 -5.904 -5.904 -5.904 C -9.165 -5.904 -11.808 -3.261 -11.808 0 C -11.808 3.261 -9.165 5.904 -5.904 5.904 C -2.644 5.904 0 3.261 0 0 " fill="#ffffff"/>
<path transform="matrix(1,0,0,-1,184.0283,194.53499)" stroke-width="1" stroke-linecap="butt" stroke-miterlimit="10" stroke-linejoin="miter" fill="none" stroke="#a8aaad" d="M 0 0 C 0 -3.261 -2.644 -5.904 -5.904 -5.904 C -9.165 -5.904 -11.808 -3.261 -11.808 0 C -11.808 3.261 -9.165 5.904 -5.904 5.904 C -2.644 5.904 0 3.261 0 0 Z "/>
<path transform="matrix(1,0,0,-1,200.1738,183.69069)" d="M 0 0 C 0 -3.261 -2.644 -5.904 -5.904 -5.904 C -9.165 -5.904 -11.808 -3.261 -11.808 0 C -11.808 3.261 -9.165 5.904 -5.904 5.904 C -2.644 5.904 0 3.261 0 0 " fill="#ffffff"/>
<path transform="matrix(1,0,0,-1,200.1738,183.69069)" stroke-width="1" stroke-linecap="butt" stroke-miterlimit="10" stroke-linejoin="miter" fill="none" stroke="#a8aaad" d="M 0 0 C 0 -3.261 -2.644 -5.904 -5.904 -5.904 C -9.165 -5.904 -11.808 -3.261 -11.808 0 C -11.808 3.261 -9.165 5.904 -5.904 5.904 C -2.644 5.904 0 3.261 0 0 Z "/>
<path transform="matrix(1,0,0,-1,188.3657,174.89479)" d="M 0 0 C 0 -3.261 -2.643 -5.904 -5.904 -5.904 C -9.165 -5.904 -11.808 -3.261 -11.808 0 C -11.808 3.261 -9.165 5.904 -5.904 5.904 C -2.643 5.904 0 3.261 0 0 " fill="#ffffff"/>
<path transform="matrix(1,0,0,-1,188.3657,174.89479)" stroke-width="1" stroke-linecap="butt" stroke-miterlimit="10" stroke-linejoin="miter" fill="none" stroke="#a8aaad" d="M 0 0 C 0 -3.261 -2.643 -5.904 -5.904 -5.904 C -9.165 -5.904 -11.808 -3.261 -11.808 0 C -11.808 3.261 -9.165 5.904 -5.904 5.904 C -2.643 5.904 0 3.261 0 0 Z "/>
<path transform="matrix(1,0,0,-1,201.7402,167.78598)" d="M 0 0 C 0 -3.261 -2.644 -5.904 -5.904 -5.904 C -9.165 -5.904 -11.808 -3.261 -11.808 0 C -11.808 3.261 -9.165 5.904 -5.904 5.904 C -2.644 5.904 0 3.261 0 0 " fill="#ffffff"/>
<path transform="matrix(1,0,0,-1,201.7402,167.78598)" stroke-width="1" stroke-linecap="butt" stroke-miterlimit="10" stroke-linejoin="miter" fill="none" stroke="#a8aaad" d="M 0 0 C 0 -3.261 -2.644 -5.904 -5.904 -5.904 C -9.165 -5.904 -11.808 -3.261 -11.808 0 C -11.808 3.261 -9.165 5.904 -5.904 5.904 C -2.644 5.904 0 3.261 0 0 Z "/>
<path transform="matrix(1,0,0,-1,239.2129,215.19899)" d="M 0 0 C 0 -3.261 -2.644 -5.904 -5.904 -5.904 C -9.165 -5.904 -11.808 -3.261 -11.808 0 C -11.808 3.261 -9.165 5.904 -5.904 5.904 C -2.644 5.904 0 3.261 0 0 " fill="#ffffff"/>
<path transform="matrix(1,0,0,-1,239.2129,215.19899)" stroke-width="1" stroke-linecap="butt" stroke-miterlimit="10" stroke-linejoin="miter" fill="none" stroke="#a8aaad" d="M 0 0 C 0 -3.261 -2.644 -5.904 -5.904 -5.904 C -9.165 -5.904 -11.808 -3.261 -11.808 0 C -11.808 3.261 -9.165 5.904 -5.904 5.904 C -2.644 5.904 0 3.261 0 0 Z "/>
<path transform="matrix(1,0,0,-1,224.4854,226.22389)" d="M 0 0 C 0 -3.261 -2.644 -5.904 -5.904 -5.904 C -9.165 -5.904 -11.808 -3.261 -11.808 0 C -11.808 3.261 -9.165 5.904 -5.904 5.904 C -2.644 5.904 0 3.261 0 0 " fill="#ffffff"/>
<path transform="matrix(1,0,0,-1,224.4854,226.22389)" stroke-width="1" stroke-linecap="butt" stroke-miterlimit="10" stroke-linejoin="miter" fill="none" stroke="#a8aaad" d="M 0 0 C 0 -3.261 -2.644 -5.904 -5.904 -5.904 C -9.165 -5.904 -11.808 -3.261 -11.808 0 C -11.808 3.261 -9.165 5.904 -5.904 5.904 C -2.644 5.904 0 3.261 0 0 Z "/>
<path transform="matrix(1,0,0,-1,218.5811,146.93439)" d="M 0 0 C 0 -3.261 -2.643 -5.904 -5.904 -5.904 C -9.165 -5.904 -11.808 -3.261 -11.808 0 C -11.808 3.261 -9.165 5.904 -5.904 5.904 C -2.643 5.904 0 3.261 0 0 " fill="#ffffff"/>
<path transform="matrix(1,0,0,-1,218.5811,146.93439)" stroke-width="1" stroke-linecap="butt" stroke-miterlimit="10" stroke-linejoin="miter" fill="none" stroke="#a8aaad" d="M 0 0 C 0 -3.261 -2.643 -5.904 -5.904 -5.904 C -9.165 -5.904 -11.808 -3.261 -11.808 0 C -11.808 3.261 -9.165 5.904 -5.904 5.904 C -2.643 5.904 0 3.261 0 0 Z "/>
<path transform="matrix(1,0,0,-1,204.5117,151.8812)" d="M 0 0 C 0 -3.261 -2.644 -5.904 -5.904 -5.904 C -9.165 -5.904 -11.808 -3.261 -11.808 0 C -11.808 3.26 -9.165 5.904 -5.904 5.904 C -2.644 5.904 0 3.26 0 0 " fill="#ffffff"/>
<path transform="matrix(1,0,0,-1,204.5117,151.8812)" stroke-width="1" stroke-linecap="butt" stroke-miterlimit="10" stroke-linejoin="miter" fill="none" stroke="#a8aaad" d="M 0 0 C 0 -3.261 -2.644 -5.904 -5.904 -5.904 C -9.165 -5.904 -11.808 -3.261 -11.808 0 C -11.808 3.26 -9.165 5.904 -5.904 5.904 C -2.644 5.904 0 3.26 0 0 Z "/>
<path transform="matrix(1,0,0,-1,207.644,136.09699)" d="M 0 0 C 0 -3.261 -2.643 -5.904 -5.904 -5.904 C -9.165 -5.904 -11.808 -3.261 -11.808 0 C -11.808 3.261 -9.165 5.904 -5.904 5.904 C -2.643 5.904 0 3.261 0 0 " fill="#ffffff"/>
<path transform="matrix(1,0,0,-1,207.644,136.09699)" stroke-width="1" stroke-linecap="butt" stroke-miterlimit="10" stroke-linejoin="miter" fill="none" stroke="#a8aaad" d="M 0 0 C 0 -3.261 -2.643 -5.904 -5.904 -5.904 C -9.165 -5.904 -11.808 -3.261 -11.808 0 C -11.808 3.261 -9.165 5.904 -5.904 5.904 C -2.643 5.904 0 3.261 0 0 Z "/>
<path transform="matrix(1,0,0,-1,191.4985,144.16239)" d="M 0 0 C 0 -3.261 -2.644 -5.904 -5.904 -5.904 C -9.165 -5.904 -11.808 -3.261 -11.808 0 C -11.808 3.26 -9.165 5.904 -5.904 5.904 C -2.644 5.904 0 3.26 0 0 " fill="#ffffff"/>
<path transform="matrix(1,0,0,-1,191.4985,144.16239)" stroke-width="1" stroke-linecap="butt" stroke-miterlimit="10" stroke-linejoin="miter" fill="none" stroke="#a8aaad" d="M 0 0 C 0 -3.261 -2.644 -5.904 -5.904 -5.904 C -9.165 -5.904 -11.808 -3.261 -11.808 0 C -11.808 3.26 -9.165 5.904 -5.904 5.904 C -2.644 5.904 0 3.26 0 0 Z "/>
<path transform="matrix(1,0,0,-1,187.1377,159.5286)" d="M 0 0 C 0 -3.261 -2.644 -5.904 -5.904 -5.904 C -9.165 -5.904 -11.808 -3.261 -11.808 0 C -11.808 3.26 -9.165 5.904 -5.904 5.904 C -2.644 5.904 0 3.26 0 0 " fill="#ffffff"/>
<path transform="matrix(1,0,0,-1,187.1377,159.5286)" stroke-width="1" stroke-linecap="butt" stroke-miterlimit="10" stroke-linejoin="miter" fill="none" stroke="#a8aaad" d="M 0 0 C 0 -3.261 -2.644 -5.904 -5.904 -5.904 C -9.165 -5.904 -11.808 -3.261 -11.808 0 C -11.808 3.26 -9.165 5.904 -5.904 5.904 C -2.644 5.904 0 3.26 0 0 Z "/>
<path transform="matrix(1,0,0,-1,212.6772,146.93439)" stroke-width="1" stroke-linecap="butt" stroke-miterlimit="10" stroke-linejoin="miter" fill="none" stroke="#bf2834" d="M 0 0 L -14.07 -4.947 "/>
<path transform="matrix(1,0,0,-1,181.2339,159.5286)" stroke-width="1" stroke-linecap="butt" stroke-miterlimit="10" stroke-linejoin="miter" fill="none" stroke="#bf2834" d="M 0 0 L 17.374 7.647 "/>
<path transform="matrix(1,0,0,-1,320.5957,209.2952)" d="M 0 0 C 0 -3.26 -2.644 -5.904 -5.904 -5.904 C -9.165 -5.904 -11.809 -3.26 -11.809 0 C -11.809 3.261 -9.165 5.904 -5.904 5.904 C -2.644 5.904 0 3.261 0 0 " fill="#ffffff"/>
<path transform="matrix(1,0,0,-1,320.5957,209.2952)" stroke-width="1" stroke-linecap="butt" stroke-miterlimit="10" stroke-linejoin="miter" fill="none" stroke="#a8aaad" d="M 0 0 C 0 -3.26 -2.644 -5.904 -5.904 -5.904 C -9.165 -5.904 -11.809 -3.26 -11.809 0 C -11.809 3.261 -9.165 5.904 -5.904 5.904 C -2.644 5.904 0 3.261 0 0 Z "/>
<path transform="matrix(1,0,0,-1,304.4502,217.18729)" d="M 0 0 C 0 -3.261 -2.644 -5.904 -5.904 -5.904 C -9.165 -5.904 -11.809 -3.261 -11.809 0 C -11.809 3.261 -9.165 5.904 -5.904 5.904 C -2.644 5.904 0 3.261 0 0 " fill="#ffffff"/>
<path transform="matrix(1,0,0,-1,304.4502,217.18729)" stroke-width="1" stroke-linecap="butt" stroke-miterlimit="10" stroke-linejoin="miter" fill="none" stroke="#a8aaad" d="M 0 0 C 0 -3.261 -2.644 -5.904 -5.904 -5.904 C -9.165 -5.904 -11.809 -3.261 -11.809 0 C -11.809 3.261 -9.165 5.904 -5.904 5.904 C -2.644 5.904 0 3.261 0 0 Z "/>
<path transform="matrix(1,0,0,-1,288.3042,212.24689)" d="M 0 0 C 0 -3.261 -2.644 -5.904 -5.904 -5.904 C -9.165 -5.904 -11.808 -3.261 -11.808 0 C -11.808 3.261 -9.165 5.904 -5.904 5.904 C -2.644 5.904 0 3.261 0 0 " fill="#ffffff"/>
<path transform="matrix(1,0,0,-1,288.3042,212.24689)" stroke-width="1" stroke-linecap="butt" stroke-miterlimit="10" stroke-linejoin="miter" fill="none" stroke="#a8aaad" d="M 0 0 C 0 -3.261 -2.644 -5.904 -5.904 -5.904 C -9.165 -5.904 -11.808 -3.261 -11.808 0 C -11.808 3.261 -9.165 5.904 -5.904 5.904 C -2.644 5.904 0 3.261 0 0 Z "/>
<path transform="matrix(1,0,0,-1,301.3174,200.43878)" d="M 0 0 C 0 -3.261 -2.644 -5.904 -5.904 -5.904 C -9.165 -5.904 -11.809 -3.261 -11.809 0 C -11.809 3.261 -9.165 5.904 -5.904 5.904 C -2.644 5.904 0 3.261 0 0 " fill="#ffffff"/>
<path transform="matrix(1,0,0,-1,301.3174,200.43878)" stroke-width="1" stroke-linecap="butt" stroke-miterlimit="10" stroke-linejoin="miter" fill="none" stroke="#a8aaad" d="M 0 0 C 0 -3.261 -2.644 -5.904 -5.904 -5.904 C -9.165 -5.904 -11.809 -3.261 -11.809 0 C -11.809 3.261 -9.165 5.904 -5.904 5.904 C -2.644 5.904 0 3.261 0 0 Z "/>
<path transform="matrix(1,0,0,-1,319.0293,194.53499)" d="M 0 0 C 0 -3.261 -2.644 -5.904 -5.904 -5.904 C -9.165 -5.904 -11.809 -3.261 -11.809 0 C -11.809 3.261 -9.165 5.904 -5.904 5.904 C -2.644 5.904 0 3.261 0 0 " fill="#ffffff"/>
<path transform="matrix(1,0,0,-1,319.0293,194.53499)" stroke-width="1" stroke-linecap="butt" stroke-miterlimit="10" stroke-linejoin="miter" fill="none" stroke="#a8aaad" d="M 0 0 C 0 -3.261 -2.644 -5.904 -5.904 -5.904 C -9.165 -5.904 -11.809 -3.261 -11.809 0 C -11.809 3.261 -9.165 5.904 -5.904 5.904 C -2.644 5.904 0 3.261 0 0 Z "/>
<path transform="matrix(1,0,0,-1,280.8335,194.53499)" d="M 0 0 C 0 -3.261 -2.643 -5.904 -5.904 -5.904 C -9.165 -5.904 -11.808 -3.261 -11.808 0 C -11.808 3.261 -9.165 5.904 -5.904 5.904 C -2.643 5.904 0 3.261 0 0 " fill="#ffffff"/>
<path transform="matrix(1,0,0,-1,280.8335,194.53499)" stroke-width="1" stroke-linecap="butt" stroke-miterlimit="10" stroke-linejoin="miter" fill="none" stroke="#a8aaad" d="M 0 0 C 0 -3.261 -2.643 -5.904 -5.904 -5.904 C -9.165 -5.904 -11.808 -3.261 -11.808 0 C -11.808 3.261 -9.165 5.904 -5.904 5.904 C -2.643 5.904 0 3.261 0 0 Z "/>
<path transform="matrix(1,0,0,-1,296.9795,183.69069)" d="M 0 0 C 0 -3.261 -2.644 -5.904 -5.904 -5.904 C -9.165 -5.904 -11.808 -3.261 -11.808 0 C -11.808 3.261 -9.165 5.904 -5.904 5.904 C -2.644 5.904 0 3.261 0 0 " fill="#ffffff"/>
<path transform="matrix(1,0,0,-1,296.9795,183.69069)" stroke-width="1" stroke-linecap="butt" stroke-miterlimit="10" stroke-linejoin="miter" fill="none" stroke="#a8aaad" d="M 0 0 C 0 -3.261 -2.644 -5.904 -5.904 -5.904 C -9.165 -5.904 -11.808 -3.261 -11.808 0 C -11.808 3.261 -9.165 5.904 -5.904 5.904 C -2.644 5.904 0 3.261 0 0 Z "/>
<path transform="matrix(1,0,0,-1,285.1714,174.89479)" d="M 0 0 C 0 -3.261 -2.644 -5.904 -5.904 -5.904 C -9.165 -5.904 -11.808 -3.261 -11.808 0 C -11.808 3.261 -9.165 5.904 -5.904 5.904 C -2.644 5.904 0 3.261 0 0 " fill="#ffffff"/>
<path transform="matrix(1,0,0,-1,285.1714,174.89479)" stroke-width="1" stroke-linecap="butt" stroke-miterlimit="10" stroke-linejoin="miter" fill="none" stroke="#a8aaad" d="M 0 0 C 0 -3.261 -2.644 -5.904 -5.904 -5.904 C -9.165 -5.904 -11.808 -3.261 -11.808 0 C -11.808 3.261 -9.165 5.904 -5.904 5.904 C -2.644 5.904 0 3.261 0 0 Z "/>
<path transform="matrix(1,0,0,-1,298.5459,167.78598)" d="M 0 0 C 0 -3.261 -2.644 -5.904 -5.904 -5.904 C -9.165 -5.904 -11.808 -3.261 -11.808 0 C -11.808 3.261 -9.165 5.904 -5.904 5.904 C -2.644 5.904 0 3.261 0 0 " fill="#ffffff"/>
<path transform="matrix(1,0,0,-1,298.5459,167.78598)" stroke-width="1" stroke-linecap="butt" stroke-miterlimit="10" stroke-linejoin="miter" fill="none" stroke="#a8aaad" d="M 0 0 C 0 -3.261 -2.644 -5.904 -5.904 -5.904 C -9.165 -5.904 -11.808 -3.261 -11.808 0 C -11.808 3.261 -9.165 5.904 -5.904 5.904 C -2.644 5.904 0 3.261 0 0 Z "/>
<path transform="matrix(1,0,0,-1,336.0186,215.19899)" d="M 0 0 C 0 -3.261 -2.644 -5.904 -5.904 -5.904 C -9.165 -5.904 -11.809 -3.261 -11.809 0 C -11.809 3.261 -9.165 5.904 -5.904 5.904 C -2.644 5.904 0 3.261 0 0 " fill="#ffffff"/>
<path transform="matrix(1,0,0,-1,336.0186,215.19899)" stroke-width="1" stroke-linecap="butt" stroke-miterlimit="10" stroke-linejoin="miter" fill="none" stroke="#a8aaad" d="M 0 0 C 0 -3.261 -2.644 -5.904 -5.904 -5.904 C -9.165 -5.904 -11.809 -3.261 -11.809 0 C -11.809 3.261 -9.165 5.904 -5.904 5.904 C -2.644 5.904 0 3.261 0 0 Z "/>
<path transform="matrix(1,0,0,-1,321.291,226.22389)" d="M 0 0 C 0 -3.261 -2.644 -5.904 -5.904 -5.904 C -9.165 -5.904 -11.809 -3.261 -11.809 0 C -11.809 3.261 -9.165 5.904 -5.904 5.904 C -2.644 5.904 0 3.261 0 0 " fill="#ffffff"/>
<path transform="matrix(1,0,0,-1,321.291,226.22389)" stroke-width="1" stroke-linecap="butt" stroke-miterlimit="10" stroke-linejoin="miter" fill="none" stroke="#a8aaad" d="M 0 0 C 0 -3.261 -2.644 -5.904 -5.904 -5.904 C -9.165 -5.904 -11.809 -3.261 -11.809 0 C -11.809 3.261 -9.165 5.904 -5.904 5.904 C -2.644 5.904 0 3.261 0 0 Z "/>
<path transform="matrix(1,0,0,-1,315.3867,146.93439)" d="M 0 0 C 0 -3.261 -2.644 -5.904 -5.904 -5.904 C -9.165 -5.904 -11.808 -3.261 -11.808 0 C -11.808 3.261 -9.165 5.904 -5.904 5.904 C -2.644 5.904 0 3.261 0 0 " fill="#ffffff"/>
<path transform="matrix(1,0,0,-1,315.3867,146.93439)" stroke-width="1" stroke-linecap="butt" stroke-miterlimit="10" stroke-linejoin="miter" fill="none" stroke="#a8aaad" d="M 0 0 C 0 -3.261 -2.644 -5.904 -5.904 -5.904 C -9.165 -5.904 -11.808 -3.261 -11.808 0 C -11.808 3.261 -9.165 5.904 -5.904 5.904 C -2.644 5.904 0 3.261 0 0 Z "/>
<path transform="matrix(1,0,0,-1,301.3174,151.8812)" d="M 0 0 C 0 -3.261 -2.644 -5.904 -5.904 -5.904 C -9.165 -5.904 -11.809 -3.261 -11.809 0 C -11.809 3.26 -9.165 5.904 -5.904 5.904 C -2.644 5.904 0 3.26 0 0 " fill="#ffffff"/>
<path transform="matrix(1,0,0,-1,301.3174,151.8812)" stroke-width="1" stroke-linecap="butt" stroke-miterlimit="10" stroke-linejoin="miter" fill="none" stroke="#a8aaad" d="M 0 0 C 0 -3.261 -2.644 -5.904 -5.904 -5.904 C -9.165 -5.904 -11.809 -3.261 -11.809 0 C -11.809 3.26 -9.165 5.904 -5.904 5.904 C -2.644 5.904 0 3.26 0 0 Z "/>
<path transform="matrix(1,0,0,-1,304.4502,136.09699)" d="M 0 0 C 0 -3.261 -2.644 -5.904 -5.904 -5.904 C -9.165 -5.904 -11.809 -3.261 -11.809 0 C -11.809 3.261 -9.165 5.904 -5.904 5.904 C -2.644 5.904 0 3.261 0 0 " fill="#ffffff"/>
<path transform="matrix(1,0,0,-1,304.4502,136.09699)" stroke-width="1" stroke-linecap="butt" stroke-miterlimit="10" stroke-linejoin="miter" fill="none" stroke="#a8aaad" d="M 0 0 C 0 -3.261 -2.644 -5.904 -5.904 -5.904 C -9.165 -5.904 -11.809 -3.261 -11.809 0 C -11.809 3.261 -9.165 5.904 -5.904 5.904 C -2.644 5.904 0 3.261 0 0 Z "/>
<path transform="matrix(1,0,0,-1,288.3042,144.16239)" d="M 0 0 C 0 -3.261 -2.644 -5.904 -5.904 -5.904 C -9.165 -5.904 -11.808 -3.261 -11.808 0 C -11.808 3.26 -9.165 5.904 -5.904 5.904 C -2.644 5.904 0 3.26 0 0 " fill="#ffffff"/>
<path transform="matrix(1,0,0,-1,288.3042,144.16239)" stroke-width="1" stroke-linecap="butt" stroke-miterlimit="10" stroke-linejoin="miter" fill="none" stroke="#a8aaad" d="M 0 0 C 0 -3.261 -2.644 -5.904 -5.904 -5.904 C -9.165 -5.904 -11.808 -3.261 -11.808 0 C -11.808 3.26 -9.165 5.904 -5.904 5.904 C -2.644 5.904 0 3.26 0 0 Z "/>
<path transform="matrix(1,0,0,-1,283.9434,159.5286)" d="M 0 0 C 0 -3.261 -2.644 -5.904 -5.904 -5.904 C -9.165 -5.904 -11.808 -3.261 -11.808 0 C -11.808 3.26 -9.165 5.904 -5.904 5.904 C -2.644 5.904 0 3.26 0 0 " fill="#ffffff"/>
<path transform="matrix(1,0,0,-1,283.9434,159.5286)" stroke-width="1" stroke-linecap="butt" stroke-miterlimit="10" stroke-linejoin="miter" fill="none" stroke="#a8aaad" d="M 0 0 C 0 -3.261 -2.644 -5.904 -5.904 -5.904 C -9.165 -5.904 -11.808 -3.261 -11.808 0 C -11.808 3.26 -9.165 5.904 -5.904 5.904 C -2.644 5.904 0 3.26 0 0 Z "/>
<path transform="matrix(1,0,0,-1,278.0391,159.5286)" stroke-width="1" stroke-linecap="butt" stroke-miterlimit="10" stroke-linejoin="miter" fill="none" stroke="#bf2834" d="M 0 0 L 4.361 15.54 "/>
<path transform="matrix(1,0,0,-1,292.6416,167.78598)" stroke-width="1" stroke-linecap="butt" stroke-miterlimit="10" stroke-linejoin="miter" fill="none" stroke="#bf2834" d="M 0 0 L -14.603 8.257 "/>
<path transform="matrix(1,0,0,-1,401.2559,135.73569)" d="M 0 0 C 0 -3.261 -2.644 -5.904 -5.904 -5.904 C -9.165 -5.904 -11.809 -3.261 -11.809 0 C -11.809 3.261 -9.165 5.904 -5.904 5.904 C -2.644 5.904 0 3.261 0 0 " fill="#ffffff"/>
<path transform="matrix(1,0,0,-1,401.2559,135.73569)" stroke-width="1" stroke-linecap="butt" stroke-miterlimit="10" stroke-linejoin="miter" fill="none" stroke="#a8aaad" d="M 0 0 C 0 -3.261 -2.644 -5.904 -5.904 -5.904 C -9.165 -5.904 -11.809 -3.261 -11.809 0 C -11.809 3.261 -9.165 5.904 -5.904 5.904 C -2.644 5.904 0 3.261 0 0 Z "/>
<path transform="matrix(1,0,0,-1,417.4014,208.93338)" d="M 0 0 C 0 -3.261 -2.644 -5.904 -5.904 -5.904 C -9.165 -5.904 -11.809 -3.261 -11.809 0 C -11.809 3.26 -9.165 5.904 -5.904 5.904 C -2.644 5.904 0 3.26 0 0 " fill="#ffffff"/>
<path transform="matrix(1,0,0,-1,417.4014,208.93338)" stroke-width="1" stroke-linecap="butt" stroke-miterlimit="10" stroke-linejoin="miter" fill="none" stroke="#a8aaad" d="M 0 0 C 0 -3.261 -2.644 -5.904 -5.904 -5.904 C -9.165 -5.904 -11.809 -3.261 -11.809 0 C -11.809 3.26 -9.165 5.904 -5.904 5.904 C -2.644 5.904 0 3.26 0 0 Z "/>
<path transform="matrix(1,0,0,-1,401.2559,216.82549)" d="M 0 0 C 0 -3.261 -2.644 -5.904 -5.904 -5.904 C -9.165 -5.904 -11.809 -3.261 -11.809 0 C -11.809 3.26 -9.165 5.904 -5.904 5.904 C -2.644 5.904 0 3.26 0 0 " fill="#ffffff"/>
<path transform="matrix(1,0,0,-1,401.2559,216.82549)" stroke-width="1" stroke-linecap="butt" stroke-miterlimit="10" stroke-linejoin="miter" fill="none" stroke="#a8aaad" d="M 0 0 C 0 -3.261 -2.644 -5.904 -5.904 -5.904 C -9.165 -5.904 -11.809 -3.261 -11.809 0 C -11.809 3.26 -9.165 5.904 -5.904 5.904 C -2.644 5.904 0 3.26 0 0 Z "/>
<path transform="matrix(1,0,0,-1,385.1094,211.88559)" d="M 0 0 C 0 -3.261 -2.643 -5.904 -5.903 -5.904 C -9.164 -5.904 -11.808 -3.261 -11.808 0 C -11.808 3.261 -9.164 5.904 -5.903 5.904 C -2.643 5.904 0 3.261 0 0 " fill="#ffffff"/>
<path transform="matrix(1,0,0,-1,385.1094,211.88559)" stroke-width="1" stroke-linecap="butt" stroke-miterlimit="10" stroke-linejoin="miter" fill="none" stroke="#a8aaad" d="M 0 0 C 0 -3.261 -2.643 -5.904 -5.903 -5.904 C -9.164 -5.904 -11.808 -3.261 -11.808 0 C -11.808 3.261 -9.164 5.904 -5.903 5.904 C -2.643 5.904 0 3.261 0 0 Z "/>
<path transform="matrix(1,0,0,-1,398.123,200.07749)" d="M 0 0 C 0 -3.261 -2.644 -5.904 -5.904 -5.904 C -9.165 -5.904 -11.809 -3.261 -11.809 0 C -11.809 3.261 -9.165 5.904 -5.904 5.904 C -2.644 5.904 0 3.261 0 0 " fill="#ffffff"/>
<path transform="matrix(1,0,0,-1,398.123,200.07749)" stroke-width="1" stroke-linecap="butt" stroke-miterlimit="10" stroke-linejoin="miter" fill="none" stroke="#a8aaad" d="M 0 0 C 0 -3.261 -2.644 -5.904 -5.904 -5.904 C -9.165 -5.904 -11.809 -3.261 -11.809 0 C -11.809 3.261 -9.165 5.904 -5.904 5.904 C -2.644 5.904 0 3.261 0 0 Z "/>
<path transform="matrix(1,0,0,-1,415.835,194.17369)" d="M 0 0 C 0 -3.261 -2.644 -5.904 -5.904 -5.904 C -9.165 -5.904 -11.809 -3.261 -11.809 0 C -11.809 3.261 -9.165 5.904 -5.904 5.904 C -2.644 5.904 0 3.261 0 0 " fill="#ffffff"/>
<path transform="matrix(1,0,0,-1,415.835,194.17369)" stroke-width="1" stroke-linecap="butt" stroke-miterlimit="10" stroke-linejoin="miter" fill="none" stroke="#a8aaad" d="M 0 0 C 0 -3.261 -2.644 -5.904 -5.904 -5.904 C -9.165 -5.904 -11.809 -3.261 -11.809 0 C -11.809 3.261 -9.165 5.904 -5.904 5.904 C -2.644 5.904 0 3.261 0 0 Z "/>
<path transform="matrix(1,0,0,-1,377.6396,194.17369)" d="M 0 0 C 0 -3.261 -2.644 -5.904 -5.904 -5.904 C -9.165 -5.904 -11.809 -3.261 -11.809 0 C -11.809 3.261 -9.165 5.904 -5.904 5.904 C -2.644 5.904 0 3.261 0 0 " fill="#ffffff"/>
<path transform="matrix(1,0,0,-1,377.6396,194.17369)" stroke-width="1" stroke-linecap="butt" stroke-miterlimit="10" stroke-linejoin="miter" fill="none" stroke="#a8aaad" d="M 0 0 C 0 -3.261 -2.644 -5.904 -5.904 -5.904 C -9.165 -5.904 -11.809 -3.261 -11.809 0 C -11.809 3.261 -9.165 5.904 -5.904 5.904 C -2.644 5.904 0 3.261 0 0 Z "/>
<path transform="matrix(1,0,0,-1,393.7852,183.32939)" d="M 0 0 C 0 -3.261 -2.644 -5.904 -5.904 -5.904 C -9.165 -5.904 -11.809 -3.261 -11.809 0 C -11.809 3.261 -9.165 5.904 -5.904 5.904 C -2.644 5.904 0 3.261 0 0 " fill="#ffffff"/>
<path transform="matrix(1,0,0,-1,393.7852,183.32939)" stroke-width="1" stroke-linecap="butt" stroke-miterlimit="10" stroke-linejoin="miter" fill="none" stroke="#a8aaad" d="M 0 0 C 0 -3.261 -2.644 -5.904 -5.904 -5.904 C -9.165 -5.904 -11.809 -3.261 -11.809 0 C -11.809 3.261 -9.165 5.904 -5.904 5.904 C -2.644 5.904 0 3.261 0 0 Z "/>
<path transform="matrix(1,0,0,-1,381.9766,174.53348)" d="M 0 0 C 0 -3.261 -2.643 -5.904 -5.903 -5.904 C -9.164 -5.904 -11.808 -3.261 -11.808 0 C -11.808 3.261 -9.164 5.904 -5.903 5.904 C -2.643 5.904 0 3.261 0 0 " fill="#ffffff"/>
<path transform="matrix(1,0,0,-1,381.9766,174.53348)" stroke-width="1" stroke-linecap="butt" stroke-miterlimit="10" stroke-linejoin="miter" fill="none" stroke="#a8aaad" d="M 0 0 C 0 -3.261 -2.643 -5.904 -5.903 -5.904 C -9.164 -5.904 -11.808 -3.261 -11.808 0 C -11.808 3.261 -9.164 5.904 -5.903 5.904 C -2.643 5.904 0 3.261 0 0 Z "/>
<path transform="matrix(1,0,0,-1,395.3516,167.42459)" d="M 0 0 C 0 -3.261 -2.644 -5.904 -5.904 -5.904 C -9.165 -5.904 -11.809 -3.261 -11.809 0 C -11.809 3.261 -9.165 5.904 -5.904 5.904 C -2.644 5.904 0 3.261 0 0 " fill="#ffffff"/>
<path transform="matrix(1,0,0,-1,395.3516,167.42459)" stroke-width="1" stroke-linecap="butt" stroke-miterlimit="10" stroke-linejoin="miter" fill="none" stroke="#a8aaad" d="M 0 0 C 0 -3.261 -2.644 -5.904 -5.904 -5.904 C -9.165 -5.904 -11.809 -3.261 -11.809 0 C -11.809 3.261 -9.165 5.904 -5.904 5.904 C -2.644 5.904 0 3.261 0 0 Z "/>
<path transform="matrix(1,0,0,-1,432.8242,214.83769)" d="M 0 0 C 0 -3.261 -2.644 -5.904 -5.904 -5.904 C -9.165 -5.904 -11.809 -3.261 -11.809 0 C -11.809 3.261 -9.165 5.904 -5.904 5.904 C -2.644 5.904 0 3.261 0 0 " fill="#ffffff"/>
<path transform="matrix(1,0,0,-1,432.8242,214.83769)" stroke-width="1" stroke-linecap="butt" stroke-miterlimit="10" stroke-linejoin="miter" fill="none" stroke="#a8aaad" d="M 0 0 C 0 -3.261 -2.644 -5.904 -5.904 -5.904 C -9.165 -5.904 -11.809 -3.261 -11.809 0 C -11.809 3.261 -9.165 5.904 -5.904 5.904 C -2.644 5.904 0 3.261 0 0 Z "/>
<path transform="matrix(1,0,0,-1,418.0967,225.8626)" d="M 0 0 C 0 -3.261 -2.644 -5.904 -5.904 -5.904 C -9.165 -5.904 -11.809 -3.261 -11.809 0 C -11.809 3.261 -9.165 5.904 -5.904 5.904 C -2.644 5.904 0 3.261 0 0 " fill="#ffffff"/>
<path transform="matrix(1,0,0,-1,418.0967,225.8626)" stroke-width="1" stroke-linecap="butt" stroke-miterlimit="10" stroke-linejoin="miter" fill="none" stroke="#a8aaad" d="M 0 0 C 0 -3.261 -2.644 -5.904 -5.904 -5.904 C -9.165 -5.904 -11.809 -3.261 -11.809 0 C -11.809 3.261 -9.165 5.904 -5.904 5.904 C -2.644 5.904 0 3.261 0 0 Z "/>
<path transform="matrix(1,0,0,-1,412.1924,146.57309)" d="M 0 0 C 0 -3.261 -2.644 -5.904 -5.904 -5.904 C -9.165 -5.904 -11.809 -3.261 -11.809 0 C -11.809 3.261 -9.165 5.904 -5.904 5.904 C -2.644 5.904 0 3.261 0 0 " fill="#ffffff"/>
<path transform="matrix(1,0,0,-1,412.1924,146.57309)" stroke-width="1" stroke-linecap="butt" stroke-miterlimit="10" stroke-linejoin="miter" fill="none" stroke="#a8aaad" d="M 0 0 C 0 -3.261 -2.644 -5.904 -5.904 -5.904 C -9.165 -5.904 -11.809 -3.261 -11.809 0 C -11.809 3.261 -9.165 5.904 -5.904 5.904 C -2.644 5.904 0 3.261 0 0 Z "/>
<path transform="matrix(1,0,0,-1,398.123,151.51979)" d="M 0 0 C 0 -3.261 -2.644 -5.904 -5.904 -5.904 C -9.165 -5.904 -11.809 -3.261 -11.809 0 C -11.809 3.261 -9.165 5.904 -5.904 5.904 C -2.644 5.904 0 3.261 0 0 " fill="#ffffff"/>
<path transform="matrix(1,0,0,-1,398.123,151.51979)" stroke-width="1" stroke-linecap="butt" stroke-miterlimit="10" stroke-linejoin="miter" fill="none" stroke="#a8aaad" d="M 0 0 C 0 -3.261 -2.644 -5.904 -5.904 -5.904 C -9.165 -5.904 -11.809 -3.261 -11.809 0 C -11.809 3.261 -9.165 5.904 -5.904 5.904 C -2.644 5.904 0 3.261 0 0 Z "/>
<path transform="matrix(1,0,0,-1,385.1094,143.80109)" d="M 0 0 C 0 -3.261 -2.643 -5.904 -5.903 -5.904 C -9.164 -5.904 -11.808 -3.261 -11.808 0 C -11.808 3.261 -9.164 5.904 -5.903 5.904 C -2.643 5.904 0 3.261 0 0 " fill="#ffffff"/>
<path transform="matrix(1,0,0,-1,385.1094,143.80109)" stroke-width="1" stroke-linecap="butt" stroke-miterlimit="10" stroke-linejoin="miter" fill="none" stroke="#a8aaad" d="M 0 0 C 0 -3.261 -2.643 -5.904 -5.903 -5.904 C -9.164 -5.904 -11.808 -3.261 -11.808 0 C -11.808 3.261 -9.164 5.904 -5.903 5.904 C -2.643 5.904 0 3.261 0 0 Z "/>
<path transform="matrix(1,0,0,-1,380.749,159.1673)" d="M 0 0 C 0 -3.261 -2.644 -5.904 -5.904 -5.904 C -9.165 -5.904 -11.809 -3.261 -11.809 0 C -11.809 3.261 -9.165 5.904 -5.904 5.904 C -2.644 5.904 0 3.261 0 0 " fill="#ffffff"/>
<path transform="matrix(1,0,0,-1,380.749,159.1673)" stroke-width="1" stroke-linecap="butt" stroke-miterlimit="10" stroke-linejoin="miter" fill="none" stroke="#a8aaad" d="M 0 0 C 0 -3.261 -2.644 -5.904 -5.904 -5.904 C -9.165 -5.904 -11.809 -3.261 -11.809 0 C -11.809 3.261 -9.165 5.904 -5.904 5.904 C -2.644 5.904 0 3.261 0 0 Z "/>
<path transform="matrix(1,0,0,-1,392.2187,151.3978)" stroke-width="1" stroke-linecap="butt" stroke-miterlimit="10" stroke-linejoin="miter" fill="none" stroke="#323e92" d="M 0 0 L -2.771 -16.147 "/>
<path transform="matrix(1,0,0,-1,374.8447,159.1673)" stroke-width="1" stroke-linecap="butt" stroke-miterlimit="10" stroke-linejoin="miter" fill="none" stroke="#323e92" d="M 0 0 L 14.603 -8.257 "/>
<path transform="matrix(1,0,0,-1,382.1582,22.29039)" d="M 0 0 C 0 -1.63 -1.322 -2.952 -2.952 -2.952 C -4.583 -2.952 -5.904 -1.63 -5.904 0 C -5.904 1.631 -4.583 2.953 -2.952 2.953 C -1.322 2.953 0 1.631 0 0 " fill="#bf2834"/>
<path transform="matrix(1,0,0,-1,312.4346,25.539383)" d="M 0 0 C 0 -1.63 -1.321 -2.952 -2.952 -2.952 C -4.582 -2.952 -5.904 -1.63 -5.904 0 C -5.904 1.63 -4.582 2.952 -2.952 2.952 C -1.321 2.952 0 1.63 0 0 " fill="#bf2834"/>
<path transform="matrix(1,0,0,-1,204.6924,14.701996)" d="M 0 0 C 0 -1.63 -1.322 -2.952 -2.952 -2.952 C -4.583 -2.952 -5.904 -1.63 -5.904 0 C -5.904 1.63 -4.583 2.952 -2.952 2.952 C -1.322 2.952 0 1.63 0 0 " fill="#bf2834"/>
<path transform="matrix(1,0,0,-1,392.3994,167.42459)" d="M 0 0 C 0 -1.63 -1.321 -2.952 -2.952 -2.952 C -4.583 -2.952 -5.904 -1.63 -5.904 0 C -5.904 1.63 -4.583 2.952 -2.952 2.952 C -1.321 2.952 0 1.63 0 0 " fill="#323e92"/>
<path transform="matrix(1,0,0,-1,280.9917,159.5286)" d="M 0 0 C 0 -1.631 -1.322 -2.953 -2.953 -2.953 C -4.583 -2.953 -5.905 -1.631 -5.905 0 C -5.905 1.63 -4.583 2.952 -2.953 2.952 C -1.322 2.952 0 1.63 0 0 " fill="#bf2834"/>
<path transform="matrix(1,0,0,-1,201.5596,151.7591)" d="M 0 0 C 0 -1.63 -1.322 -2.952 -2.952 -2.952 C -4.583 -2.952 -5.904 -1.63 -5.904 0 C -5.904 1.63 -4.583 2.952 -2.952 2.952 C -1.322 2.952 0 1.63 0 0 " fill="#bf2834"/>
</g>
<symbol id="font_c_26">
<path d="M 0 .367 C 0 .47966669 .03066667 .5696667 .09200001 .637 C .15333334 .70433339 .23766667 .7380001 .345 .73800006 C .42966668 .7380001 .50733336 .72333338 .57800009 .694 L .54800006 .619 C .48866669 .6436667 .42200003 .656 .34800003 .656 C .26666669 .656 .20433335 .63000008 .161 .578 C .11766666 .52666667 .09599999 .45533333 .096 .36400003 C .09599999 .28200004 .11766666 .21433334 .161 .16100002 C .205 .10833334 .26333336 .082 .33600004 .082 C .41933335 .082 .49133335 .097 .55200007 .127 L .57800009 .049000004 C .50333335 .016333335 .416 0 .316 0 C .21866668 0 .14166667 .03466667 .08500001 .104 C .028333337 .17333335 0 .261 0 .367 Z "/>
</symbol>
<symbol id="font_c_48">
<path d="M .092999998 .25500003 C .097 .20233333 .116000007 .16066666 .15 .13000001 C .18466668 .1 .23000002 .085 .286 .085 C .342 .085 .40600003 .098 .47800002 .124000009 L .489 .041 C .415 .013666667 .34533335 .0000000009313226 .28 .0000000009313226 C .2 .0000000009313226 .13333334 .024333336 .08 .07300001 C .026666666 .12166667 0 .18466668 0 .26200003 C 0 .34533335 .025 .41333334 .075 .46600003 C .12566668 .5186667 .19200002 .545 .27400003 .545 C .42800007 .545 .5066667 .44833336 .51000007 .25500003 L .092999998 .25500003 M .41700004 .33400003 C .41166667 .37333334 .39533333 .40533338 .368 .43 C .34133337 .4546667 .307 .467 .26500003 .467 C .22366667 .467 .18733335 .454 .156 .42800004 C .12533333 .4026667 .10633334 .37133337 .09900001 .33400003 L .41700004 .33400003 Z "/>
</symbol>
<symbol id="font_c_4f">
<path d="M .22400002 0 C .07466667 .008 0 .09966666 0 .275 L 0 .77000007 L .095 .77000007 L .095 .296 C .095 .22533334 .10466667 .17333333 .12400001 .14 C .14400001 .10733334 .18100001 .08933333 .235 .086 L .22400002 0 Z "/>
</symbol>
<symbol id="font_c_3">
<path d="M 0 0 Z "/>
</symbol>
<symbol id="font_c_4b">
<path d="M .268 .52500006 C .33666668 .52500006 .39000003 .5033334 .42800004 .46 C .4666667 .41733337 .48600007 .36033336 .48600007 .289 L .48600007 0 L .39100004 0 L .39100004 .287 C .39100004 .33233337 .37866674 .3696667 .35400004 .39900003 C .32933337 .42900003 .29600004 .44400005 .254 .44400005 C .21466668 .44400005 .17833334 .42900003 .14500001 .39900003 C .11166667 .3696667 .095 .33633337 .095 .29900003 L .095 0 L 0 0 L 0 .758 L .095 .758 L .095 .45600004 C .141 .50200006 .19866668 .52500006 .268 .52500006 Z "/>
</symbol>
<symbol id="font_c_44">
<path d="M .18100001 .0000000009313226 C .12966667 .0000000009313226 .08666667 .014000001 .052000006 .042000005 C .017333335 .07 0 .10733333 0 .154 C 0 .28066669 .114 .34566669 .342 .349 C .33200003 .42433334 .29066668 .462 .218 .462 C .16266667 .462 .10300001 .44966666 .039 .425 L .029000003 .51000007 C .097 .53000006 .16166668 .54 .22300002 .54 C .365 .54 .43600003 .467 .43600003 .321 L .43600003 .15100001 C .43600003 .113000009 .443 .069000009 .45700003 .019000002 L .36900003 .0000000009313226 L .354 .067 C .30200003 .022333334 .24433334 .0000000009313226 .18100001 .0000000009313226 M .342 .176 L .342 .26700003 C .17800002 .2636667 .09599999 .22900002 .096 .163 C .09599999 .10966667 .12566667 .083000008 .185 .083000008 C .21966668 .083000008 .25433336 .09200001 .289 .11 C .32433335 .12866669 .342 .15066667 .342 .176 Z "/>
</symbol>
<symbol id="font_c_56">
<path d="M .20300001 .46500004 C .17833334 .46500004 .15666668 .45833338 .138 .44500003 C .120000008 .43233336 .111 .41500006 .111 .393 C .111 .367 .14766668 .34133337 .22100002 .316 C .31966669 .28200004 .36900006 .23000002 .36900003 .16000001 C .36900006 .10933334 .34966669 .07 .31100003 .042000005 C .27233336 .014000001 .22400002 .0000000009313226 .16600001 .0000000009313226 C .11466667 .0000000009313226 .059333337 .016666668 0 .050000006 L .038000008 .12500002 C .07866667 .097 .12266668 .083000008 .17 .083000008 C .24000001 .083000008 .275 .107 .275 .155 C .275 .193 .24100001 .22233336 .17300001 .24300002 C .07300001 .27433337 .023000002 .32200004 .023000002 .386 C .023000002 .4326667 .04066667 .4696667 .076000008 .497 C .11200001 .52500006 .15633334 .53900006 .209 .53900006 C .26633335 .53900006 .31566669 .52433338 .35700003 .49500004 L .32200004 .42600004 C .2866667 .45200003 .24700003 .46500004 .20300001 .46500004 Z "/>
</symbol>
<symbol id="font_c_5d">
<path d="M .46600003 0 L 0 0 L 0 .057000005 L .34 .432 L .015000001 .432 L .033 .51100006 L .469 .51100006 L .469 .45000003 L .13100001 .080000009 L .48000006 .080000009 L .46600003 0 Z "/>
</symbol>
<symbol id="font_c_55">
<path d="M .101 .44700004 C .11033333 .46633337 .12933333 .48433338 .15799999 .50100007 C .18733333 .5176667 .21533335 .526 .24200002 .526 C .26333336 .526 .27933336 .5246667 .29 .522 L .29 .441 C .28199999 .44300006 .2706667 .44400005 .256 .44400005 C .16066666 .44400005 .113 .3866667 .113 .272 L .113 0 L .018 0 L .018 .33800004 C .018 .418 .011999999 .47833339 0 .51900008 L .084 .51900008 C .09533334 .50033339 .101 .47633339 .101 .44700004 Z "/>
</symbol>
<symbol id="font_c_52">
<path d="M .54200008 .271 C .54200008 .19433333 .51600006 .13000001 .46400003 .078 C .41200004 .026 .34766666 0 .271 0 C .19433333 0 .13000001 .026 .07800001 .078 C .026000003 .13000001 0 .19433333 0 .271 C 0 .347 .026000003 .41133336 .07800001 .46400003 C .13000001 .5166667 .19433333 .54300007 .271 .54300007 C .34766666 .54300007 .41200004 .5166667 .46400003 .46400003 C .51600006 .41133336 .54200008 .347 .54200008 .271 M .271 .080000009 C .32299999 .080000009 .36533333 .09833334 .398 .135 C .43133334 .17166667 .44800005 .21700001 .448 .271 C .44800005 .32500003 .43133334 .37033335 .398 .407 C .36533333 .4436667 .32299999 .462 .271 .462 C .219 .462 .17633336 .4436667 .143 .407 C .10966667 .37033335 .092999998 .32500003 .092999998 .271 C .092999998 .21700001 .10966667 .17166667 .143 .135 C .17633336 .09833334 .219 .080000009 .271 .080000009 Z "/>
</symbol>
<symbol id="font_c_5b">
<path d="M .5590001 0 L .44300003 0 L .279 .19700001 L .11600001 0 L 0 0 L .22300002 .26200003 L .014 .51100006 L .128 .51100006 L .28 .33100004 L .43100003 .51100006 L .545 .51100006 L .336 .26200003 L .5590001 0 Z "/>
</symbol>
<symbol id="font_c_53">
<path d="M .54 .48400004 C .54 .40333335 .51466676 .336 .46400006 .282 C .41400004 .228 .35000003 .20100002 .272 .201 C .20266669 .20100002 .14566668 .22166668 .100999999 .263 L .100999999 0 L .0059999974 0 L .0059999974 .561 C .0059999974 .6436667 .0039999985 .70166668 0 .735 L .092999998 .735 L .104 .68000009 C .15666667 .72400006 .21666666 .74600008 .284 .74600008 C .35733334 .74600008 .41833339 .7206667 .467 .67 C .51566669 .62000009 .54 .558 .54 .48400004 M .26900003 .284 C .32566668 .284 .36966668 .30200003 .40100003 .338 C .43233336 .37399999 .44800005 .42233337 .448 .483 C .44800005 .535 .4316667 .5786667 .39900003 .614 C .36633338 .65000006 .32500003 .668 .275 .668 C .23566668 .668 .19666668 .65133336 .158 .61800006 C .120000008 .58533337 .10099999 .5503333 .100999999 .513 L .100999999 .42900003 C .10099999 .38833336 .118 .354 .15200001 .326 C .186 .298 .22500003 .284 .26900003 .284 Z "/>
</symbol>
<symbol id="font_c_4c">
<path d="M .12200001 0 L .027000007 0 L .027000007 .51100006 L .12200001 .51100006 L .12200001 0 M .07200001 .734 C .09200001 .734 .109000008 .72700008 .12300001 .71300008 C .13766669 .69900009 .14500001 .682 .14500001 .66200008 C .14500001 .642 .13766669 .625 .12300001 .611 C .109000008 .59700009 .09200001 .59000006 .07200001 .59000006 C .052000006 .59000006 .035000009 .59700009 .021000009 .611 C .0070000055 .625 .0000000037252905 .642 .0000000037252905 .66200008 C .0000000037252905 .682 .0070000055 .69900009 .021000009 .71300008 C .035000009 .72700008 .052000006 .734 .07200001 .734 Z "/>
</symbol>
<symbol id="font_c_51">
<path d="M .27400003 .526 C .34333337 .526 .39800004 .5046667 .43800006 .462 C .47800005 .41933338 .49800007 .36200003 .49800007 .29000003 L .49800007 0 L .40300004 0 L .40300004 .29000003 C .40300004 .39466668 .35533337 .44700004 .26000003 .44700004 C .22600003 .44700004 .19200003 .43133334 .15800002 .4 C .12400001 .36866669 .107 .337 .107 .305 L .107 0 L .012000002 0 L .012000002 .37600003 C .012000002 .4386667 .008000001 .48433338 0 .513 L .08900001 .513 C .09566667 .497 .099 .47633339 .099 .45100004 C .147 .501 .20533335 .526 .27400003 .526 Z "/>
</symbol>
<use xlink:href="#font_c_26" transform="matrix(12,0,0,-12,363.90599,244.14269)" fill="#a8aaad"/>
<use xlink:href="#font_c_48" transform="matrix(12,0,0,-12,371.69398,244.17868)" fill="#a8aaad"/>
<use xlink:href="#font_c_4f" transform="matrix(12,0,0,-12,379.18199,244.15468)" fill="#a8aaad"/>
<use xlink:href="#font_c_4f" transform="matrix(12,0,0,-12,383.02198,244.15468)" fill="#a8aaad"/>
<use xlink:href="#font_c_3" transform="matrix(12,0,0,-12,385.96199,244.01068)" fill="#a8aaad"/>
<use xlink:href="#font_c_4b" transform="matrix(12,0,0,-12,390.92997,244.01068)" fill="#a8aaad"/>
<use xlink:href="#font_c_44" transform="matrix(12,0,0,-12,398.12995,244.17868)" fill="#a8aaad"/>
<use xlink:href="#font_c_56" transform="matrix(12,0,0,-12,404.75395,244.17868)" fill="#a8aaad"/>
<use xlink:href="#font_c_3" transform="matrix(12,0,0,-12,409.62596,244.01068)" fill="#a8aaad"/>
<use xlink:href="#font_c_5d" transform="matrix(12,0,0,-12,414.05393,244.01068)" fill="#a8aaad"/>
<use xlink:href="#font_c_48" transform="matrix(12,0,0,-12,420.61793,244.17868)" fill="#a8aaad"/>
<use xlink:href="#font_c_55" transform="matrix(12,0,0,-12,427.88993,244.01068)" fill="#a8aaad"/>
<use xlink:href="#font_c_52" transform="matrix(12,0,0,-12,432.11393,244.15468)" fill="#a8aaad"/>
<use xlink:href="#font_c_48" transform="matrix(12,0,0,-12,371.06999,258.5787)" fill="#a8aaad"/>
<use xlink:href="#font_c_5b" transform="matrix(12,0,0,-12,377.45399,258.4107)" fill="#a8aaad"/>
<use xlink:href="#font_c_53" transform="matrix(12,0,0,-12,384.774,260.9907)" fill="#a8aaad"/>
<use xlink:href="#font_c_55" transform="matrix(12,0,0,-12,392.40599,258.4107)" fill="#a8aaad"/>
<use xlink:href="#font_c_48" transform="matrix(12,0,0,-12,396.62998,258.5787)" fill="#a8aaad"/>
<use xlink:href="#font_c_56" transform="matrix(12,0,0,-12,403.68598,258.5787)" fill="#a8aaad"/>
<use xlink:href="#font_c_56" transform="matrix(12,0,0,-12,409.02598,258.5787)" fill="#a8aaad"/>
<use xlink:href="#font_c_4c" transform="matrix(12,0,0,-12,414.47398,258.4107)" fill="#a8aaad"/>
<use xlink:href="#font_c_52" transform="matrix(12,0,0,-12,417.30598,258.55473)" fill="#a8aaad"/>
<use xlink:href="#font_c_51" transform="matrix(12,0,0,-12,425.022,258.4107)" fill="#a8aaad"/>
<clipPath id="cp13">
<path transform="matrix(1,0,0,-1,0,274.895)" d="M 0 274.895 L 639.821 274.895 L 639.821 0 L 0 0 Z "/>
</clipPath>
<g clip-path="url(#cp13)">
<path transform="matrix(1,0,0,-1,111.3057,118.23909)" stroke-width=".75" stroke-linecap="butt" stroke-miterlimit="10" stroke-linejoin="miter" fill="none" stroke="#a8aaad" d="M 0 0 L 45.133 0 "/>
<path transform="matrix(1,0,0,-1,154.9521,120.417789)" d="M 0 0 L 8.131 2.179 L 0 4.358 Z " fill="#a8aaad"/>
</g>
<symbol id="font_c_29">
<path d="M .095 0 L 0 0 L 0 .716 L .44100005 .716 L .44100005 .63500007 L .095 .63500007 L .095 .409 L .42000003 .409 L .42000003 .32900004 L .095 .32900004 L .095 0 Z "/>
</symbol>
<symbol id="font_c_47">
<path d="M .5400001 .014000001 L .45000003 .014000001 C .4466667 .026 .44500003 .044666668 .44500003 .07 C .39700005 .023333334 .33633337 .0000000009313226 .263 .0000000009313226 C .18699999 .0000000009313226 .124000009 .026 .074 .078 C .024666667 .13066668 0 .198 0 .28 C 0 .35733334 .024000004 .4206667 .07200001 .47000004 C .12066668 .52000007 .182 .545 .256 .545 C .33066667 .545 .39166666 .52133336 .439 .474 L .439 .772 L .53400006 .772 L .53400006 .15100001 C .53400006 .109000008 .5360001 .06333333 .5400001 .014000001 M .271 .083000008 C .31833337 .083000008 .358 .09366667 .39000003 .115 C .42266668 .13700001 .439 .168 .439 .208 L .439 .32500003 C .439 .36233334 .42 .39533339 .38200004 .42400003 C .3446667 .45266668 .3056667 .467 .26500003 .467 C .21366668 .467 .172 .44933335 .14 .414 C .10866666 .37866668 .092999998 .334 .092999998 .28 C .092999998 .22000002 .10833333 .172 .139 .136 C .17033334 .10066667 .21433334 .083000008 .271 .083000008 Z "/>
</symbol>
<symbol id="font_c_4e">
<path d="M .46400006 .024 L .366 0 L .13100001 .26200003 L .095 .23200001 L .095 .015000001 L 0 .015000001 L 0 .773 L .095 .773 L .095 .34100003 L .324 .537 L .42700006 .519 L .19700001 .31600005 L .46400006 .024 Z "/>
</symbol>
<symbol id="font_c_31">
<path d="M .56000009 0 L .47000004 0 L .095 .58100005 L .095 0 L 0 0 L 0 .716 L .095 .716 L .46500004 .15 L .46500004 .716 L .56000009 .716 L .56000009 0 Z "/>
</symbol>
<use xlink:href="#font_c_29" transform="matrix(12,0,0,-12,109.3238,112.41058)" fill="#828486"/>
<use xlink:href="#font_c_4c" transform="matrix(12,0,0,-12,115.455799,112.41058)" fill="#828486"/>
<use xlink:href="#font_c_51" transform="matrix(12,0,0,-12,118.5758,112.41058)" fill="#828486"/>
<use xlink:href="#font_c_47" transform="matrix(12,0,0,-12,125.91981,112.57858)" fill="#828486"/>
<use xlink:href="#font_c_3" transform="matrix(12,0,0,-12,133.2998,112.41058)" fill="#828486"/>
<use xlink:href="#font_c_4e" transform="matrix(12,0,0,-12,138.26779,112.59058)" fill="#828486"/>
<use xlink:href="#font_c_31" transform="matrix(12,0,0,-12,144.3998,112.41058)" fill="#828486"/>
<use xlink:href="#font_c_31" transform="matrix(12,0,0,-12,152.90779,112.41058)" fill="#828486"/>
<clipPath id="cp14">
<path transform="matrix(1,0,0,-1,0,274.895)" d="M 0 274.895 L 639.821 274.895 L 639.821 0 L 0 0 Z "/>
</clipPath>
<g clip-path="url(#cp14)">
<path transform="matrix(1,0,0,-1,448.543,118.23909)" stroke-width=".75" stroke-linecap="butt" stroke-miterlimit="10" stroke-linejoin="miter" fill="none" stroke="#a8aaad" d="M 0 0 L 45.133 0 "/>
<path transform="matrix(1,0,0,-1,492.1895,120.417789)" d="M 0 0 L 8.131 2.179 L 0 4.358 Z " fill="#a8aaad"/>
</g>
<symbol id="font_c_46">
<path d="M .096 .273 C .09599999 .21700001 .11133333 .17066668 .142 .134 C .17266667 .098 .214 .08 .266 .08 C .316 .08 .3646667 .09466667 .41200004 .124000009 L .44500003 .046000005 C .3956667 .015333335 .337 .0000000009313226 .26900003 .0000000009313226 C .18900001 .0000000009313226 .124000009 .025333336 .074 .076000008 C .024666667 .12666668 0 .19233334 0 .273 C 0 .3536667 .024666667 .41900004 .074 .469 C .124000009 .5196667 .18900001 .545 .26900003 .545 C .337 .545 .3956667 .53000006 .44500003 .50000008 L .41200004 .42200003 C .36533336 .4506667 .3166667 .46500004 .266 .46500004 C .214 .46500004 .17266667 .44666673 .142 .41000004 C .11133333 .37399999 .09599999 .32833336 .096 .273 Z "/>
</symbol>
<symbol id="font_c_58">
<path d="M .51000007 .020000002 L .41800005 .0020000013 C .408 .026000003 .39900003 .055000005 .39100004 .089 C .33033336 .029666668 .2706667 .0000000009313226 .212 .0000000009313226 C .07066666 .0000000009313226 0 .082 0 .246 L 0 .52500006 L .095 .52500006 L .095 .25500003 C .095 .14166667 .13800001 .085 .22400002 .085 C .26133339 .085 .29733337 .099 .33200003 .127 C .36666668 .15566667 .38399998 .18766667 .384 .223 L .384 .52500006 L .47900004 .52500006 L .47900004 .15100001 C .479 .115666668 .4893334 .072000008 .51000007 .020000002 Z "/>
</symbol>
<symbol id="font_c_57">
<path d="M .25100003 .0000000009313226 C .20366669 .0000000009313226 .16700001 .016000003 .141 .048000006 C .11500001 .08066667 .102000009 .123 .102000009 .17500001 L .102000009 .44700004 L 0 .44700004 L 0 .52500006 L .102000009 .52500006 L .102000009 .665 L .19700001 .70600005 L .19700001 .52500006 L .36100004 .52500006 L .36100004 .44700004 L .19700001 .44700004 L .19700001 .176 C .19700001 .11533334 .21633335 .085 .25500003 .085 C .28100003 .085 .30900003 .090333338 .33900003 .101 L .35000003 .022000002 C .31533335 .0073333347 .28233335 .0000000009313226 .25100003 .0000000009313226 Z "/>
</symbol>
<use xlink:href="#font_c_4e" transform="matrix(12,0,0,-12,442.3023,112.59058)" fill="#828486"/>
<use xlink:href="#font_c_31" transform="matrix(12,0,0,-12,448.4343,112.41058)" fill="#828486"/>
<use xlink:href="#font_c_31" transform="matrix(12,0,0,-12,456.9423,112.41058)" fill="#828486"/>
<use xlink:href="#font_c_3" transform="matrix(12,0,0,-12,464.5503,112.41058)" fill="#828486"/>
<use xlink:href="#font_c_46" transform="matrix(12,0,0,-12,469.08628,112.57858)" fill="#828486"/>
<use xlink:href="#font_c_52" transform="matrix(12,0,0,-12,475.3383,112.55458)" fill="#828486"/>
<use xlink:href="#font_c_58" transform="matrix(12,0,0,-12,483.1983,112.57858)" fill="#828486"/>
<use xlink:href="#font_c_51" transform="matrix(12,0,0,-12,490.59034,112.41058)" fill="#828486"/>
<use xlink:href="#font_c_57" transform="matrix(12,0,0,-12,497.6343,112.57858)" fill="#828486"/>
<use xlink:href="#font_c_56" transform="matrix(12,0,0,-12,502.5903,112.57858)" fill="#828486"/>
</g>
</g>
</svg>
