<?xml version="1.0" encoding="UTF-8"?>
<svg xmlns="http://www.w3.org/2000/svg" xmlns:xlink="http://www.w3.org/1999/xlink" width="390.261pt" height="280.174pt" viewBox="0 0 390.261 280.174" version="1.1">
<defs>
<clipPath id="clip2">
  <path d="M 337 76 L 353.136719 76 L 353.136719 100 L 337 100 Z M 337 76 "/>
</clipPath>
<clipPath id="clip3">
  <path d="M 0.914063 0.933594 L 344 0.933594 L 344 168.265625 L 0.914063 168.265625 Z M 0.914063 0.933594 "/>
</clipPath>
<clipPath id="clip1">
  <rect width="354" height="169"/>
</clipPath>
<g id="surface4" clip-path="url(#clip1)">
<g clip-path="url(#clip2)" clip-rule="nonzero">
<path style=" stroke:none;fill-rule:nonzero;fill:rgb(12.742615%,11.753845%,13.583374%);fill-opacity:1;" d="M 344.605469 95.460938 C 344.996094 95.460938 345.398438 95.308594 345.683594 94.996094 C 347.277344 93.253906 347.976563 90.847656 347.554688 88.550781 C 347.414063 87.769531 346.652344 87.242188 345.859375 87.386719 C 345.070313 87.527344 344.542969 88.273438 344.6875 89.054688 C 344.945313 90.472656 344.503906 92 343.527344 93.074219 C 342.984375 93.660156 343.035156 94.558594 343.628906 95.097656 C 343.90625 95.339844 344.257813 95.460938 344.605469 95.460938 M 353.136719 87.121094 C 353.199219 93.214844 346.878906 97.394531 342.777344 99.46875 C 338.851563 96.878906 336.570313 92.101563 337.09375 87.464844 C 337.628906 82.742188 341.039063 78.492188 345.582031 76.890625 C 345.746094 76.839844 345.890625 76.75 346.011719 76.648438 C 349.96875 79.460938 353.074219 82.78125 353.136719 87.121094 "/>
</g>
<path style=" stroke:none;fill-rule:nonzero;fill:rgb(81.608582%,80.841064%,80.065918%);fill-opacity:1;" d="M 243.96875 149.140625 C 245.996094 149.921875 247.917969 150.648438 249.695313 151.671875 C 252.359375 153.179688 255.214844 155.953125 255.367188 159.199219 C 253.394531 160.648438 250.25 161.121094 248.554688 159.515625 C 248.441406 159.402344 248.308594 159.3125 248.164063 159.25 C 248.132813 158.644531 248.019531 158.046875 247.84375 157.46875 C 247.300781 155.730469 246.242188 154.292969 245.316406 153.027344 C 244.84375 152.378906 243.960938 152.257813 243.34375 152.765625 C 242.738281 153.261719 242.625 154.179688 243.097656 154.828125 C 243.929688 155.960938 244.78125 157.136719 245.171875 158.390625 C 245.367188 158.988281 245.417969 159.636719 245.335938 160.210938 C 245.277344 160.699219 245.113281 161.121094 244.855469 161.425781 C 244.074219 162.398438 242.46875 162.386719 241.359375 161.882813 C 240.066406 161.292969 238.988281 160.171875 237.9375 158.949219 C 238.089844 158.027344 238.050781 157.105469 237.792969 156.246094 C 237.332031 154.667969 236.066406 153.320313 234.433594 152.644531 C 232.945313 152.035156 231.339844 152.085938 230.035156 152.785156 C 229.316406 153.167969 229.039063 154.070313 229.4375 154.777344 C 229.828125 155.496094 230.742188 155.769531 231.460938 155.375 C 231.964844 155.113281 232.632813 155.101563 233.28125 155.375 C 234.082031 155.699219 234.710938 156.355469 234.925781 157.074219 C 235.082031 157.613281 235.070313 158.207031 234.875 158.835938 C 234.8125 159.078125 234.710938 159.332031 234.585938 159.585938 L 234.503906 159.726563 C 234.125 160.382813 233.558594 160.949219 232.921875 161.324219 C 231.421875 162.1875 229.324219 162.285156 227.300781 161.597656 C 225.132813 160.859375 223.261719 159.363281 221.875 158.148438 C 213.285156 150.519531 208.78125 141.371094 208.523438 130.96875 C 208.523438 130.949219 208.523438 130.917969 208.515625 130.898438 C 208.636719 130.855469 208.773438 130.804688 208.894531 130.765625 C 216.417969 128.113281 224.199219 125.847656 232.058594 123.996094 C 232.839844 125.503906 232.550781 127.558594 232.140625 129.105469 C 231.996094 129.664063 231.832031 130.230469 231.65625 130.785156 C 231.105469 132.65625 230.519531 134.589844 230.660156 136.695313 C 230.941406 140.683594 233.859375 144.386719 238.65625 146.867188 C 240.382813 147.765625 242.203125 148.464844 243.96875 149.140625 "/>
<g clip-path="url(#clip3)" clip-rule="nonzero">
<path style=" stroke:none;fill-rule:nonzero;fill:rgb(89.402771%,88.546753%,87.911987%);fill-opacity:1;" d="M 227.855469 27.390625 C 228.566406 27.027344 228.832031 26.15625 228.460938 25.457031 C 226.839844 22.453125 223.128906 20.773438 219.632813 21.46875 C 216.355469 22.128906 213.582031 24.796875 212.738281 28.109375 C 211.945313 31.214844 212.839844 34.714844 215.070313 37.234375 C 216.707031 39.078125 218.964844 40.363281 221.484375 40.917969 C 222.171875 41.070313 222.890625 41.160156 223.621094 41.203125 C 224.433594 41.242188 225.113281 40.625 225.152344 39.835938 C 225.195313 39.046875 224.578125 38.378906 223.765625 38.339844 C 221.238281 38.207031 218.8125 37.09375 217.269531 35.351563 C 215.65625 33.53125 215 31.023438 215.566406 28.816406 C 216.128906 26.578125 218.042969 24.71875 220.21875 24.285156 C 222.429688 23.835938 224.875 24.921875 225.882813 26.800781 C 226.261719 27.5 227.148438 27.765625 227.855469 27.390625 M 339.765625 100.804688 C 335.796875 102.371094 330.792969 103.597656 324.863281 104.433594 C 324.824219 104.445313 324.78125 104.445313 324.742188 104.457031 C 314.09375 105.964844 301.320313 106.085938 291.402344 104.769531 C 290.589844 104.660156 289.828125 105.222656 289.714844 106.035156 C 289.613281 106.84375 290.175781 107.59375 291 107.695313 C 295.707031 108.320313 301.019531 108.625 306.464844 108.625 C 311.617188 108.625 316.867188 108.351563 321.800781 107.796875 C 314.699219 114.667969 303.054688 115.253906 298.039063 115.152344 C 274.964844 114.707031 257.148438 115.992188 240.230469 119.320313 C 237.886719 119.777344 235.738281 120.230469 233.652344 120.707031 C 233.242188 120.796875 232.820313 120.898438 232.410156 121 C 224.085938 122.921875 215.832031 125.320313 207.878906 128.113281 C 207.28125 128.328125 206.675781 128.539063 206.078125 128.761719 C 199.726563 131.039063 193.5 133.589844 187.558594 136.351563 C 187.375 131.796875 187.878906 126.960938 188.8125 125.097656 C 189.171875 124.371094 188.882813 123.480469 188.175781 123.117188 C 187.464844 122.742188 186.582031 123.035156 186.222656 123.761719 C 184.742188 126.699219 184.351563 133.347656 184.773438 138.464844 C 184.816406 138.953125 184.867188 139.417969 184.917969 139.863281 C 185.257813 142.777344 185.851563 144.902344 186.707031 146.175781 C 188.925781 149.535156 192.398438 152.359375 197.300781 154.789063 C 198.78125 155.527344 200.40625 156.132813 201.976563 156.730469 C 205.875 158.199219 209.5625 159.585938 211.578125 162.804688 L 211.835938 163.207031 C 212.699219 164.535156 213.160156 165.414063 213.210938 165.839844 C 212.945313 166.113281 212.089844 166.40625 210.664063 166.71875 L 210.324219 166.800781 C 208.535156 167.203125 206.859375 167.277344 205.339844 167.011719 C 203.230469 166.636719 201.28125 165.6875 199.675781 164.230469 C 199.644531 164.199219 199.601563 164.167969 199.574219 164.136719 C 199.417969 163.328125 199.078125 162.570313 198.597656 161.914063 C 197.457031 160.332031 195.535156 159.261719 193.191406 158.886719 C 191.269531 158.582031 189.328125 158.785156 187.609375 158.957031 C 186.789063 159.039063 186.191406 159.765625 186.273438 160.578125 C 186.367188 161.394531 187.117188 161.972656 187.917969 161.890625 C 189.53125 161.730469 191.1875 161.558594 192.71875 161.800781 C 194.238281 162.042969 195.492188 162.710938 196.160156 163.632813 C 196.4375 163.996094 196.613281 164.453125 196.664063 164.90625 C 196.695313 165.058594 196.707031 165.210938 196.707031 165.351563 C 196.707031 165.695313 196.625 166.203125 196.292969 166.597656 C 195.769531 167.214844 194.804688 167.570313 193.222656 167.730469 C 184.867188 168.582031 177.488281 164.917969 170.640625 156.519531 C 169.65625 155.304688 168.453125 153.757813 167.078125 151.957031 C 164.886719 149.121094 162.410156 145.902344 159.726563 142.707031 C 159.695313 142.675781 159.675781 142.636719 159.644531 142.605469 C 155.0625 137.171875 151.433594 133.589844 148.21875 131.34375 C 147.539063 130.867188 146.601563 131.019531 146.128906 131.6875 C 145.648438 132.355469 145.800781 133.277344 146.480469 133.75 C 149.113281 135.582031 152.207031 138.566406 155.914063 142.828125 C 146.777344 145.226563 138.886719 147.238281 130.714844 149.191406 L 130.703125 149.191406 C 130.316406 149.132813 129.914063 149.222656 129.585938 149.464844 C 124.878906 150.578125 120.910156 151.480469 117.167969 152.300781 C 115.300781 152.714844 113.417969 153.140625 111.515625 153.574219 C 108.710938 154.210938 105.800781 154.878906 102.925781 155.476563 C 95.136719 157.097656 85.925781 158.613281 76.757813 157.589844 C 76.65625 157.582031 76.566406 157.570313 76.460938 157.558594 C 76.246094 157.53125 76.019531 157.539063 75.824219 157.601563 C 74.230469 155.832031 72.433594 154.273438 70.449219 152.96875 C 69.636719 152.429688 68.816406 151.996094 68.023438 151.570313 C 66.699219 150.863281 65.453125 150.183594 64.4375 149.152344 C 63.121094 147.816406 61.539063 145.703125 61.464844 143.191406 C 61.40625 140.410156 63.164063 137.75 64.859375 135.167969 L 65.28125 134.53125 C 67.097656 131.746094 69.359375 127.578125 68.054688 123.511719 C 67.808594 122.730469 66.964844 122.296875 66.171875 122.539063 C 65.382813 122.792969 64.949219 123.621094 65.199219 124.402344 C 66.113281 127.246094 64.375 130.453125 62.761719 132.929688 L 62.351563 133.558594 C 60.492188 136.371094 58.382813 139.570313 58.476563 143.273438 C 58.546875 146.003906 59.875 148.757813 62.289063 151.207031 C 63.613281 152.5625 65.125 153.371094 66.59375 154.160156 C 67.355469 154.574219 68.074219 154.960938 68.785156 155.425781 C 70.828125 156.773438 72.660156 158.410156 74.25 160.34375 C 74.4375 160.566406 74.621094 160.800781 74.796875 161.03125 C 77.085938 164.027344 78.042969 166.585938 77.734375 167.101563 C 77.734375 167.101563 77.683594 167.144531 77.507813 167.183594 C 74.355469 167.953125 70.449219 167.699219 67.796875 166.554688 C 67.191406 166.292969 66.554688 165.796875 65.9375 165.121094 C 64.796875 163.867188 63.707031 161.933594 63.019531 159.9375 C 62.75 159.171875 61.898438 158.753906 61.117188 159.015625 C 60.335938 159.28125 59.914063 160.121094 60.183594 160.890625 C 60.523438 161.863281 61.394531 164.128906 62.914063 166.132813 C 61.445313 168.550781 58.175781 168.914063 53.164063 167.222656 C 49.183594 165.890625 45.867188 163.320313 43.832031 159.988281 C 43.335938 159.199219 42.894531 158.339844 42.464844 157.367188 C 41.796875 155.832031 41.25 154.191406 40.714844 152.59375 L 40.6875 152.492188 C 39.410156 148.6875 38.128906 144.863281 36.863281 141.046875 C 36.605469 140.265625 35.761719 139.84375 34.972656 140.09375 C 34.191406 140.347656 33.757813 141.1875 34.015625 141.957031 C 35.289063 145.78125 36.566406 149.609375 37.878906 153.511719 C 38.136719 154.304688 38.40625 155.101563 38.691406 155.890625 C 25.085938 155.285156 12.453125 147.785156 6.402344 136.707031 L 0.914063 126.65625 C 24.539063 100.679688 54.046875 87.476563 77.179688 78.875 C 82.183594 77.011719 86.984375 75.191406 91.652344 73.429688 C 114.96875 64.597656 135.113281 56.96875 161.371094 51.765625 C 175.667969 48.945313 193.191406 46.96875 214.382813 51.664063 C 214.382813 51.664063 214.390625 51.675781 214.390625 51.664063 C 217.117188 53.425781 220.128906 54.691406 223.179688 55.367188 C 223.292969 55.390625 223.394531 55.398438 223.507813 55.398438 C 224.1875 55.398438 224.8125 54.933594 224.96875 54.253906 C 225.152344 53.457031 224.640625 52.667969 223.835938 52.484375 C 220.621094 51.777344 217.457031 50.320313 214.679688 48.285156 C 209.984375 44.835938 206.542969 39.785156 205.234375 34.433594 C 203.972656 29.25 204.648438 24.03125 207.105469 20.113281 C 210.476563 14.71875 217.464844 11.867188 223.703125 13.3125 C 227.558594 14.203125 231.03125 16.722656 233.253906 20.234375 C 233.261719 20.246094 233.261719 20.253906 233.273438 20.265625 C 234.527344 22.25 235.296875 24.453125 235.511719 26.660156 C 235.59375 27.480469 236.335938 28.066406 237.148438 27.996094 C 237.96875 27.914063 238.574219 27.199219 238.492188 26.386719 C 238.277344 24.109375 237.570313 21.832031 236.417969 19.738281 C 249.789063 6.484375 268.359375 -0.277344 287.617188 1.109375 C 293.671875 30.578125 312.878906 57.160156 339.160156 72.390625 C 340.496094 73.15625 341.863281 73.949219 343.1875 74.777344 C 338.335938 77.0625 334.792969 81.871094 334.195313 87.152344 C 333.628906 92.253906 335.820313 97.496094 339.765625 100.804688 "/>
</g>
<path style=" stroke:none;fill-rule:nonzero;fill:rgb(81.608582%,80.841064%,80.065918%);fill-opacity:1;" d="M 126.328125 156.285156 C 125.585938 155.933594 124.691406 156.234375 124.324219 156.964844 C 123.960938 157.691406 124.269531 158.582031 125.011719 158.9375 C 126.304688 159.566406 127.632813 160.203125 128.496094 161.214844 C 128.773438 161.539063 128.988281 161.914063 129.121094 162.308594 C 129.246094 162.671875 129.410156 163.359375 129.070313 163.925781 C 128.496094 164.917969 126.769531 165.171875 125.328125 165.28125 C 119.050781 165.765625 112.6875 165.765625 106.410156 165.28125 C 104.785156 165.160156 102.832031 164.878906 102.113281 163.714844 C 101.742188 163.105469 101.703125 162.183594 102 161.265625 C 102.339844 160.253906 103.019531 159.28125 103.6875 158.339844 C 103.707031 158.308594 103.714844 158.289063 103.726563 158.257813 C 106.5625 157.671875 109.429688 157.023438 112.195313 156.386719 C 114.078125 155.953125 115.945313 155.527344 117.816406 155.121094 C 121.507813 154.3125 125.433594 153.421875 130.058594 152.328125 C 133.675781 155.851563 134.117188 157.722656 134.042969 158.542969 C 134.015625 158.898438 133.871094 159.421875 133.046875 159.960938 C 132.605469 160.253906 132.070313 160.40625 131.546875 160.40625 L 131.535156 160.40625 C 131.332031 160.019531 131.074219 159.644531 130.785156 159.300781 C 129.511719 157.824219 127.746094 156.972656 126.328125 156.285156 "/>
</g>
</defs>
<g id="surface1">
<path style=" stroke:none;fill-rule:nonzero;fill:rgb(62.721252%,18.426514%,57.868958%);fill-opacity:1;" d="M 250.890625 151.074219 L 250.890625 139.9375 L 241.453125 134.371094 L 232.019531 139.9375 L 232.019531 151.074219 L 241.453125 156.640625 Z M 250.890625 151.074219 "/>
<path style=" stroke:none;fill-rule:nonzero;fill:rgb(97.064209%,60.020447%,8.348083%);fill-opacity:1;" d="M 269.855469 151.074219 L 269.855469 139.9375 L 260.421875 134.371094 L 250.988281 139.9375 L 250.988281 151.074219 L 260.421875 156.640625 Z M 269.855469 151.074219 "/>
<path style=" stroke:none;fill-rule:nonzero;fill:rgb(89.286804%,20.097351%,23.339844%);fill-opacity:1;" d="M 260.371094 134.367188 L 260.371094 123.414063 L 250.890625 117.9375 L 241.402344 123.414063 L 241.402344 134.367188 L 250.890625 139.839844 Z M 260.371094 134.367188 "/>
<path style=" stroke:none;fill-rule:nonzero;fill:rgb(7.49054%,55.050659%,33.782959%);fill-opacity:1;" d="M 307.792969 117.949219 L 307.792969 107 L 298.308594 101.523438 L 288.824219 107 L 288.824219 117.949219 L 298.308594 123.425781 Z M 307.792969 117.949219 "/>
<path style=" stroke:none;fill-rule:nonzero;fill:rgb(62.721252%,18.426514%,57.868958%);fill-opacity:1;" d="M 298.308594 134.386719 L 298.308594 123.433594 L 288.824219 117.957031 L 279.339844 123.433594 L 279.339844 134.386719 L 288.824219 139.859375 Z M 298.308594 134.386719 "/>
<path style=" stroke:none;fill-rule:nonzero;fill:rgb(13.847351%,41.20636%,60.192871%);fill-opacity:1;" d="M 260.46875 167.636719 L 260.46875 156.492188 L 250.988281 150.921875 L 241.5 156.492188 L 241.5 167.636719 L 250.988281 173.207031 Z M 260.46875 167.636719 "/>
<path style=" stroke:none;fill-rule:nonzero;fill:rgb(13.847351%,41.20636%,60.192871%);fill-opacity:1;" d="M 279.316406 134.777344 L 279.316406 123.570313 L 269.832031 117.96875 L 260.347656 123.570313 L 260.347656 134.777344 L 269.832031 140.378906 Z M 279.316406 134.777344 "/>
<path style=" stroke:none;fill-rule:nonzero;fill:rgb(97.064209%,60.020447%,8.348083%);fill-opacity:1;" d="M 326.761719 118.28125 L 326.761719 106.898438 L 316.976563 101.207031 L 307.195313 106.898438 L 307.195313 118.28125 L 316.976563 123.972656 Z M 326.761719 118.28125 "/>
<path style=" stroke:none;fill-rule:nonzero;fill:rgb(25.12207%,71.409607%,27.058411%);fill-opacity:1;" d="M 269.855469 117.96875 L 269.855469 107.019531 L 260.371094 101.542969 L 250.886719 107.019531 L 250.886719 117.96875 L 260.371094 123.445313 Z M 269.855469 117.96875 "/>
<path style=" stroke:none;fill-rule:nonzero;fill:rgb(95.20874%,37.837219%,12.135315%);fill-opacity:1;" d="M 288.875 118.199219 L 288.875 107.089844 L 279.390625 101.535156 L 269.90625 107.089844 L 269.90625 118.199219 L 279.390625 123.753906 Z M 288.875 118.199219 "/>
<path style=" stroke:none;fill-rule:nonzero;fill:rgb(45.167542%,19.999695%,44.943237%);fill-opacity:1;" d="M 241.503906 134.648438 L 241.503906 123.53125 L 232.019531 117.96875 L 222.53125 123.53125 L 222.53125 134.648438 L 232.019531 140.207031 Z M 241.503906 134.648438 "/>
<use xlink:href="#surface4" transform="matrix(1,0,0,1,32,107)"/>
<path style=" stroke:none;fill-rule:nonzero;fill:rgb(13.729858%,12.159729%,12.548828%);fill-opacity:1;" d="M 308.761719 146.25 C 302.539063 145.183594 295.992188 150.386719 295.820313 156.53125 C 295.652344 162.679688 301.902344 168.21875 308.171875 167.480469 C 313.960938 166.800781 318.914063 160.726563 318.175781 155.101563 C 317.441406 149.476563 314.5 147.230469 308.761719 146.25 "/>
<path style=" stroke:none;fill-rule:nonzero;fill:rgb(100%,100%,100%);fill-opacity:1;" d="M 307.375 151.675781 C 306.269531 151.523438 305.128906 151.402344 304.058594 151.699219 C 302.984375 151.992188 301.988281 152.792969 301.800781 153.863281 C 301.613281 154.933594 302.523438 156.144531 303.636719 156.042969 C 304.8125 155.273438 305.988281 154.5 307.164063 153.730469 C 307.484375 153.519531 307.816406 153.296875 308.023438 152.976563 C 308.226563 152.65625 308.273438 152.207031 308.019531 151.917969 C 307.769531 151.628906 307.191406 151.664063 307.066406 152.023438 Z M 307.375 151.675781 "/>
<path style=" stroke:none;fill-rule:nonzero;fill:rgb(13.847351%,41.20636%,60.192871%);fill-opacity:1;" d="M 23.464844 216.820313 L 23.464844 205.871094 L 13.980469 200.394531 L 4.496094 205.871094 L 4.496094 216.820313 L 13.980469 222.296875 Z M 23.464844 216.820313 "/>
<path style=" stroke:none;fill-rule:nonzero;fill:rgb(97.064209%,60.020447%,8.348083%);fill-opacity:1;" d="M 42.410156 151.125 L 42.410156 140.171875 L 32.925781 134.699219 L 23.441406 140.171875 L 23.441406 151.125 L 32.925781 156.601563 Z M 42.410156 151.125 "/>
<path style=" stroke:none;fill-rule:nonzero;fill:rgb(89.286804%,20.097351%,23.339844%);fill-opacity:1;" d="M 61.378906 151.125 L 61.378906 140.171875 L 51.894531 134.699219 L 42.410156 140.171875 L 42.410156 151.125 L 51.894531 156.601563 Z M 61.378906 151.125 "/>
<path style=" stroke:none;fill-rule:nonzero;fill:rgb(7.49054%,55.050659%,33.782959%);fill-opacity:1;" d="M 42.410156 118.296875 L 42.410156 107.34375 L 32.925781 101.871094 L 23.441406 107.34375 L 23.441406 118.296875 L 32.925781 123.773438 Z M 42.410156 118.296875 "/>
<path style=" stroke:none;fill-rule:nonzero;fill:rgb(95.20874%,37.837219%,12.135315%);fill-opacity:1;" d="M 70.863281 134.730469 L 70.863281 123.78125 L 61.378906 118.304688 L 51.894531 123.78125 L 51.894531 134.730469 L 61.378906 140.207031 Z M 70.863281 134.730469 "/>
<path style=" stroke:none;fill-rule:nonzero;fill:rgb(10.18219%,66.847229%,63.191223%);fill-opacity:1;" d="M 32.925781 134.730469 L 32.925781 123.78125 L 23.441406 118.304688 L 13.957031 123.78125 L 13.957031 134.730469 L 23.441406 140.207031 Z M 32.925781 134.730469 "/>
<path style=" stroke:none;fill-rule:nonzero;fill:rgb(45.167542%,19.999695%,44.943237%);fill-opacity:1;" d="M 51.894531 134.730469 L 51.894531 123.78125 L 42.410156 118.304688 L 32.925781 123.78125 L 32.925781 134.730469 L 42.410156 140.207031 Z M 51.894531 134.730469 "/>
<path style=" stroke:none;fill-rule:nonzero;fill:rgb(62.721252%,18.426514%,57.868958%);fill-opacity:1;" d="M 108.796875 167.539063 L 108.796875 156.589844 L 99.3125 151.113281 L 89.828125 156.589844 L 89.828125 167.539063 L 99.3125 173.015625 Z M 108.796875 167.539063 "/>
<path style=" stroke:none;fill-rule:nonzero;fill:rgb(10.18219%,66.847229%,63.191223%);fill-opacity:1;" d="M 118.28125 151.144531 L 118.28125 140.195313 L 108.796875 134.71875 L 99.3125 140.195313 L 99.3125 151.144531 L 108.796875 156.621094 Z M 118.28125 151.144531 "/>
<path style=" stroke:none;fill-rule:nonzero;fill:rgb(97.064209%,60.020447%,8.348083%);fill-opacity:1;" d="M 80.34375 151.144531 L 80.34375 140.195313 L 70.859375 134.71875 L 61.378906 140.195313 L 61.378906 151.144531 L 70.859375 156.621094 Z M 80.34375 151.144531 "/>
<path style=" stroke:none;fill-rule:nonzero;fill:rgb(63.987732%,14.164734%,43.786621%);fill-opacity:1;" d="M 99.3125 151.144531 L 99.3125 140.195313 L 89.828125 134.71875 L 80.34375 140.195313 L 80.34375 151.144531 L 89.828125 156.621094 Z M 99.3125 151.144531 "/>
<path style=" stroke:none;fill-rule:nonzero;fill:rgb(13.847351%,41.20636%,60.192871%);fill-opacity:1;" d="M 80.34375 118.296875 L 80.34375 107.34375 L 70.859375 101.871094 L 61.378906 107.34375 L 61.378906 118.296875 L 70.859375 123.773438 Z M 80.34375 118.296875 "/>
<path style=" stroke:none;fill-rule:nonzero;fill:rgb(62.721252%,18.426514%,57.868958%);fill-opacity:1;" d="M 99.3125 118.296875 L 99.3125 107.34375 L 89.828125 101.871094 L 80.34375 107.34375 L 80.34375 118.296875 L 89.828125 123.773438 Z M 99.3125 118.296875 "/>
<path style=" stroke:none;fill-rule:nonzero;fill:rgb(89.286804%,20.097351%,23.339844%);fill-opacity:1;" d="M 80.34375 85.46875 L 80.34375 74.515625 L 70.859375 69.042969 L 61.378906 74.515625 L 61.378906 85.46875 L 70.859375 90.945313 Z M 80.34375 85.46875 "/>
<path style=" stroke:none;fill-rule:nonzero;fill:rgb(97.064209%,60.020447%,8.348083%);fill-opacity:1;" d="M 70.863281 101.902344 L 70.863281 90.949219 L 61.378906 85.476563 L 51.894531 90.949219 L 51.894531 101.902344 L 61.378906 107.378906 Z M 70.863281 101.902344 "/>
<path style=" stroke:none;fill-rule:nonzero;fill:rgb(7.49054%,55.050659%,33.782959%);fill-opacity:1;" d="M 89.828125 101.902344 L 89.828125 90.949219 L 80.34375 85.476563 L 70.859375 90.949219 L 70.859375 101.902344 L 80.34375 107.378906 Z M 89.828125 101.902344 "/>
<path style=" stroke:none;fill-rule:nonzero;fill:rgb(13.847351%,41.20636%,60.192871%);fill-opacity:1;" d="M 51.941406 101.882813 L 51.941406 90.933594 L 42.457031 85.457031 L 32.972656 90.933594 L 32.972656 101.882813 L 42.457031 107.359375 Z M 51.941406 101.882813 "/>
<path style=" stroke:none;fill-rule:nonzero;fill:rgb(10.18219%,66.847229%,63.191223%);fill-opacity:1;" d="M 61.425781 85.488281 L 61.425781 74.535156 L 51.941406 69.0625 L 42.457031 74.535156 L 42.457031 85.488281 L 51.941406 90.964844 Z M 61.425781 85.488281 "/>
<path style=" stroke:none;fill-rule:nonzero;fill:rgb(10.18219%,66.847229%,63.191223%);fill-opacity:1;" d="M 32.949219 233.214844 L 32.949219 222.265625 L 23.464844 216.789063 L 13.980469 222.265625 L 13.980469 233.214844 L 23.464844 238.691406 Z M 32.949219 233.214844 "/>
<path style=" stroke:none;fill-rule:nonzero;fill:rgb(89.286804%,20.097351%,23.339844%);fill-opacity:1;" d="M 32.949219 200.386719 L 32.949219 189.4375 L 23.464844 183.960938 L 13.980469 189.4375 L 13.980469 200.386719 L 23.464844 205.863281 Z M 32.949219 200.386719 "/>
<path style=" stroke:none;fill-rule:nonzero;fill:rgb(7.49054%,55.050659%,33.782959%);fill-opacity:1;" d="M 42.433594 216.820313 L 42.433594 205.871094 L 32.949219 200.394531 L 23.464844 205.871094 L 23.464844 216.820313 L 32.949219 222.296875 Z M 42.433594 216.820313 "/>
<path style=" stroke:none;fill-rule:nonzero;fill:rgb(13.847351%,41.20636%,60.192871%);fill-opacity:1;" d="M 42.480469 249.632813 L 42.480469 238.679688 L 32.996094 233.203125 L 23.515625 238.679688 L 23.515625 249.632813 L 32.996094 255.105469 Z M 42.480469 249.632813 "/>
<path style=" stroke:none;fill-rule:nonzero;fill:rgb(13.847351%,41.20636%,60.192871%);fill-opacity:1;" d="M 80.371094 216.800781 L 80.371094 205.851563 L 70.886719 200.375 L 61.402344 205.851563 L 61.402344 216.800781 L 70.886719 222.277344 Z M 80.371094 216.800781 "/>
<path style=" stroke:none;fill-rule:nonzero;fill:rgb(45.167542%,19.999695%,44.943237%);fill-opacity:1;" d="M 61.402344 216.800781 L 61.402344 205.851563 L 51.917969 200.375 L 42.433594 205.851563 L 42.433594 216.800781 L 51.917969 222.277344 Z M 61.402344 216.800781 "/>
<path style=" stroke:none;fill-rule:nonzero;fill:rgb(97.064209%,60.020447%,8.348083%);fill-opacity:1;" d="M 51.917969 233.234375 L 51.917969 222.285156 L 42.433594 216.808594 L 32.949219 222.285156 L 32.949219 233.234375 L 42.433594 238.710938 Z M 51.917969 233.234375 "/>
<path style=" stroke:none;fill-rule:nonzero;fill:rgb(89.286804%,20.097351%,23.339844%);fill-opacity:1;" d="M 70.886719 233.234375 L 70.886719 222.285156 L 61.402344 216.808594 L 51.917969 222.285156 L 51.917969 233.234375 L 61.402344 238.710938 Z M 70.886719 233.234375 "/>
<path style=" stroke:none;fill-rule:nonzero;fill:rgb(63.987732%,14.164734%,43.786621%);fill-opacity:1;" d="M 51.917969 200.386719 L 51.917969 189.4375 L 42.433594 183.960938 L 32.949219 189.4375 L 32.949219 200.386719 L 42.433594 205.863281 Z M 51.917969 200.386719 "/>
<path style=" stroke:none;fill-rule:nonzero;fill:rgb(95.20874%,37.837219%,12.135315%);fill-opacity:1;" d="M 70.886719 200.386719 L 70.886719 189.4375 L 61.402344 183.960938 L 51.917969 189.4375 L 51.917969 200.386719 L 61.402344 205.863281 Z M 70.886719 200.386719 "/>
<path style=" stroke:none;fill-rule:nonzero;fill:rgb(62.721252%,18.426514%,57.868958%);fill-opacity:1;" d="M 70.886719 167.558594 L 70.886719 156.609375 L 61.402344 151.132813 L 51.917969 156.609375 L 51.917969 167.558594 L 61.402344 173.035156 Z M 70.886719 167.558594 "/>
<path style=" stroke:none;fill-rule:nonzero;fill:rgb(95.20874%,37.837219%,12.135315%);fill-opacity:1;" d="M 51.917969 167.558594 L 51.917969 156.609375 L 42.433594 151.132813 L 32.949219 156.609375 L 32.949219 167.558594 L 42.433594 173.035156 Z M 51.917969 167.558594 "/>
<path style=" stroke:none;fill-rule:nonzero;fill:rgb(63.987732%,14.164734%,43.786621%);fill-opacity:1;" d="M 80.371094 183.992188 L 80.371094 173.042969 L 70.886719 167.566406 L 61.402344 173.042969 L 61.402344 183.992188 L 70.886719 189.46875 Z M 80.371094 183.992188 "/>
<path style=" stroke:none;fill-rule:nonzero;fill:rgb(10.18219%,66.847229%,63.191223%);fill-opacity:1;" d="M 42.433594 183.992188 L 42.433594 173.042969 L 32.949219 167.566406 L 23.464844 173.042969 L 23.464844 183.992188 L 32.949219 189.46875 Z M 42.433594 183.992188 "/>
<path style=" stroke:none;fill-rule:nonzero;fill:rgb(13.847351%,41.20636%,60.192871%);fill-opacity:1;" d="M 61.402344 183.992188 L 61.402344 173.042969 L 51.917969 167.566406 L 42.433594 173.042969 L 42.433594 183.992188 L 51.917969 189.46875 Z M 61.402344 183.992188 "/>
<path style=" stroke:none;fill-rule:nonzero;fill:rgb(25.12207%,71.409607%,27.058411%);fill-opacity:1;" d="M 23.515625 183.972656 L 23.515625 173.023438 L 14.03125 167.546875 L 4.546875 173.023438 L 4.546875 183.972656 L 14.03125 189.449219 Z M 23.515625 183.972656 "/>
<path style=" stroke:none;fill-rule:nonzero;fill:rgb(13.847351%,41.20636%,60.192871%);fill-opacity:1;" d="M 23.515625 151.144531 L 23.515625 140.195313 L 14.03125 134.71875 L 4.546875 140.195313 L 4.546875 151.144531 L 14.03125 156.621094 Z M 23.515625 151.144531 "/>
<path style=" stroke:none;fill-rule:nonzero;fill:rgb(7.49054%,55.050659%,33.782959%);fill-opacity:1;" d="M 33 167.578125 L 33 156.628906 L 23.515625 151.152344 L 14.03125 156.628906 L 14.03125 167.578125 L 23.515625 173.054688 Z M 33 167.578125 "/>
<path style=" stroke:none;fill-rule:nonzero;fill:rgb(25.12207%,71.409607%,27.058411%);fill-opacity:1;" d="M 146.683594 200.40625 L 146.683594 189.457031 L 137.199219 183.980469 L 127.71875 189.457031 L 127.71875 200.40625 L 137.199219 205.882813 Z M 146.683594 200.40625 "/>
<path style=" stroke:none;fill-rule:nonzero;fill:rgb(97.064209%,60.020447%,8.348083%);fill-opacity:1;" d="M 99.3125 216.820313 L 99.3125 205.871094 L 89.828125 200.394531 L 80.34375 205.871094 L 80.34375 216.820313 L 89.828125 222.296875 Z M 99.3125 216.820313 "/>
<path style=" stroke:none;fill-rule:nonzero;fill:rgb(25.12207%,71.409607%,27.058411%);fill-opacity:1;" d="M 99.3125 183.992188 L 99.3125 173.042969 L 89.828125 167.566406 L 80.34375 173.042969 L 80.34375 183.992188 L 89.828125 189.46875 Z M 99.3125 183.992188 "/>
<path style=" stroke:none;fill-rule:nonzero;fill:rgb(89.286804%,20.097351%,23.339844%);fill-opacity:1;" d="M 127.765625 200.425781 L 127.765625 189.476563 L 118.28125 184 L 108.796875 189.476563 L 108.796875 200.425781 L 118.28125 205.902344 Z M 127.765625 200.425781 "/>
<path style=" stroke:none;fill-rule:nonzero;fill:rgb(45.167542%,19.999695%,44.943237%);fill-opacity:1;" d="M 108.796875 200.425781 L 108.796875 189.476563 L 99.3125 184 L 89.828125 189.476563 L 89.828125 200.425781 L 99.3125 205.902344 Z M 108.796875 200.425781 "/>
<path style=" stroke:none;fill-rule:nonzero;fill:rgb(13.847351%,41.20636%,60.192871%);fill-opacity:1;" d="M 203.589844 167.539063 L 203.589844 156.589844 L 194.105469 151.113281 L 184.621094 156.589844 L 184.621094 167.539063 L 194.105469 173.015625 Z M 203.589844 167.539063 "/>
<path style=" stroke:none;fill-rule:nonzero;fill:rgb(97.064209%,60.020447%,8.348083%);fill-opacity:1;" d="M 165.628906 101.863281 L 165.628906 90.910156 L 156.144531 85.4375 L 146.660156 90.910156 L 146.660156 101.863281 L 156.144531 107.339844 Z M 165.628906 101.863281 "/>
<path style=" stroke:none;fill-rule:nonzero;fill:rgb(97.064209%,60.020447%,8.348083%);fill-opacity:1;" d="M 232.019531 85.449219 L 232.019531 74.5 L 222.535156 69.023438 L 213.050781 74.5 L 213.050781 85.449219 L 222.535156 90.925781 Z M 232.019531 85.449219 "/>
<path style=" stroke:none;fill-rule:nonzero;fill:rgb(13.847351%,41.20636%,60.192871%);fill-opacity:1;" d="M 203.589844 167.539063 L 203.589844 156.589844 L 194.105469 151.113281 L 184.621094 156.589844 L 184.621094 167.539063 L 194.105469 173.015625 Z M 203.589844 167.539063 "/>
<path style=" stroke:none;fill-rule:nonzero;fill:rgb(13.847351%,41.20636%,60.192871%);fill-opacity:1;" d="M 203.589844 167.539063 L 203.589844 156.589844 L 194.105469 151.113281 L 184.621094 156.589844 L 184.621094 167.539063 L 194.105469 173.015625 Z M 203.589844 167.539063 "/>
<path style=" stroke:none;fill-rule:nonzero;fill:rgb(97.064209%,60.020447%,8.348083%);fill-opacity:1;" d="M 165.628906 101.863281 L 165.628906 90.910156 L 156.144531 85.4375 L 146.660156 90.910156 L 146.660156 101.863281 L 156.144531 107.339844 Z M 165.628906 101.863281 "/>
<path style=" stroke:none;fill-rule:nonzero;fill:rgb(95.20874%,37.837219%,12.135315%);fill-opacity:1;" d="M 165.628906 69.035156 L 165.628906 58.082031 L 156.144531 52.609375 L 146.660156 58.082031 L 146.660156 69.035156 L 156.144531 74.511719 Z M 165.628906 69.035156 "/>
<path style=" stroke:none;fill-rule:nonzero;fill:rgb(13.847351%,41.20636%,60.192871%);fill-opacity:1;" d="M 194.082031 85.46875 L 194.082031 74.515625 L 184.597656 69.042969 L 175.113281 74.515625 L 175.113281 85.46875 L 184.597656 90.945313 Z M 194.082031 85.46875 "/>
<path style=" stroke:none;fill-rule:nonzero;fill:rgb(63.987732%,14.164734%,43.786621%);fill-opacity:1;" d="M 175.113281 85.46875 L 175.113281 74.515625 L 165.628906 69.042969 L 156.144531 74.515625 L 156.144531 85.46875 L 165.628906 90.945313 Z M 175.113281 85.46875 "/>
<path style=" stroke:none;fill-rule:nonzero;fill:rgb(13.847351%,41.20636%,60.192871%);fill-opacity:1;" d="M 232.019531 118.277344 L 232.019531 107.328125 L 222.535156 101.851563 L 213.050781 107.328125 L 213.050781 118.277344 L 222.535156 123.753906 Z M 232.019531 118.277344 "/>
<path style=" stroke:none;fill-rule:nonzero;fill:rgb(97.064209%,60.020447%,8.348083%);fill-opacity:1;" d="M 232.019531 85.449219 L 232.019531 74.5 L 222.535156 69.023438 L 213.050781 74.5 L 213.050781 85.449219 L 222.535156 90.925781 Z M 232.019531 85.449219 "/>
<path style=" stroke:none;fill-rule:nonzero;fill:rgb(45.167542%,19.999695%,44.943237%);fill-opacity:1;" d="M 213.050781 85.449219 L 213.050781 74.5 L 203.566406 69.023438 L 194.082031 74.5 L 194.082031 85.449219 L 203.566406 90.925781 Z M 213.050781 85.449219 "/>
<path style=" stroke:none;fill-rule:nonzero;fill:rgb(62.721252%,18.426514%,57.868958%);fill-opacity:1;" d="M 241.503906 101.882813 L 241.503906 90.933594 L 232.019531 85.457031 L 222.53125 90.933594 L 222.53125 101.882813 L 232.019531 107.359375 Z M 241.503906 101.882813 "/>
<path style=" stroke:none;fill-rule:nonzero;fill:rgb(89.286804%,20.097351%,23.339844%);fill-opacity:1;" d="M 203.566406 101.882813 L 203.566406 90.933594 L 194.082031 85.457031 L 184.597656 90.933594 L 184.597656 101.882813 L 194.082031 107.359375 Z M 203.566406 101.882813 "/>
<path style=" stroke:none;fill-rule:nonzero;fill:rgb(25.12207%,71.409607%,27.058411%);fill-opacity:1;" d="M 222.53125 101.882813 L 222.53125 90.933594 L 213.050781 85.457031 L 203.566406 90.933594 L 203.566406 101.882813 L 213.050781 107.359375 Z M 222.53125 101.882813 "/>
<path style=" stroke:none;fill-rule:nonzero;fill:rgb(95.20874%,37.837219%,12.135315%);fill-opacity:1;" d="M 222.53125 69.035156 L 222.53125 58.082031 L 213.050781 52.609375 L 203.566406 58.082031 L 203.566406 69.035156 L 213.050781 74.511719 Z M 222.53125 69.035156 "/>
<path style=" stroke:none;fill-rule:nonzero;fill:rgb(89.286804%,20.097351%,23.339844%);fill-opacity:1;" d="M 203.566406 36.207031 L 203.566406 25.253906 L 194.082031 19.777344 L 184.597656 25.253906 L 184.597656 36.207031 L 194.082031 41.683594 Z M 203.566406 36.207031 "/>
<path style=" stroke:none;fill-rule:nonzero;fill:rgb(97.064209%,60.020447%,8.348083%);fill-opacity:1;" d="M 232.019531 52.640625 L 232.019531 41.6875 L 222.496094 36.210938 L 212.976563 41.6875 L 212.976563 52.640625 L 222.496094 58.117188 Z M 232.019531 52.640625 "/>
<path style=" stroke:none;fill-rule:nonzero;fill:rgb(7.49054%,55.050659%,33.782959%);fill-opacity:1;" d="M 194.082031 52.640625 L 194.082031 41.6875 L 184.597656 36.210938 L 175.113281 41.6875 L 175.113281 52.640625 L 184.597656 58.117188 Z M 194.082031 52.640625 "/>
<path style=" stroke:none;fill-rule:nonzero;fill:rgb(25.12207%,71.409607%,27.058411%);fill-opacity:1;" d="M 213.050781 52.640625 L 213.050781 41.6875 L 203.566406 36.210938 L 194.082031 41.6875 L 194.082031 52.640625 L 203.566406 58.117188 Z M 213.050781 52.640625 "/>
<path style=" stroke:none;fill-rule:nonzero;fill:rgb(62.721252%,18.426514%,57.868958%);fill-opacity:1;" d="M 175.160156 52.621094 L 175.160156 41.667969 L 165.675781 36.195313 L 156.195313 41.667969 L 156.195313 52.621094 L 165.675781 58.097656 Z M 175.160156 52.621094 "/>
<path style=" stroke:none;fill-rule:nonzero;fill:rgb(97.064209%,60.020447%,8.348083%);fill-opacity:1;" d="M 175.160156 19.792969 L 175.160156 8.839844 L 165.675781 3.363281 L 156.195313 8.839844 L 156.195313 19.792969 L 165.675781 25.269531 Z M 175.160156 19.792969 "/>
<path style=" stroke:none;fill-rule:nonzero;fill:rgb(45.167542%,19.999695%,44.943237%);fill-opacity:1;" d="M 156.195313 19.792969 L 156.195313 8.839844 L 146.710938 3.363281 L 137.226563 8.839844 L 137.226563 19.792969 L 146.710938 25.269531 Z M 156.195313 19.792969 "/>
<path style=" stroke:none;fill-rule:nonzero;fill:rgb(13.847351%,41.20636%,60.192871%);fill-opacity:1;" d="M 184.644531 36.226563 L 184.644531 25.273438 L 175.160156 19.796875 L 165.679688 25.273438 L 165.679688 36.226563 L 175.160156 41.703125 Z M 184.644531 36.226563 "/>
<path style=" stroke:none;fill-rule:nonzero;fill:rgb(63.987732%,14.164734%,43.786621%);fill-opacity:1;" d="M 146.710938 36.226563 L 146.710938 25.273438 L 137.226563 19.796875 L 127.742188 25.273438 L 127.742188 36.226563 L 137.226563 41.703125 Z M 146.710938 36.226563 "/>
<path style=" stroke:none;fill-rule:nonzero;fill:rgb(7.49054%,55.050659%,33.782959%);fill-opacity:1;" d="M 165.679688 36.226563 L 165.679688 25.273438 L 156.195313 19.796875 L 146.710938 25.273438 L 146.710938 36.226563 L 156.195313 41.703125 Z M 165.679688 36.226563 "/>
<path style=" stroke:none;fill-rule:nonzero;fill:rgb(63.987732%,14.164734%,43.786621%);fill-opacity:1;" d="M 156.167969 183.953125 L 156.167969 173.003906 L 146.683594 167.527344 L 137.203125 173.003906 L 137.203125 183.953125 L 146.683594 189.429688 Z M 156.167969 183.953125 "/>
<path style=" stroke:none;fill-rule:nonzero;fill:rgb(62.721252%,18.426514%,57.868958%);fill-opacity:1;" d="M 137.203125 151.125 L 137.203125 140.171875 L 127.71875 134.699219 L 118.234375 140.171875 L 118.234375 151.125 L 127.71875 156.601563 Z M 137.203125 151.125 "/>
<path style=" stroke:none;fill-rule:nonzero;fill:rgb(97.064209%,60.020447%,8.348083%);fill-opacity:1;" d="M 127.71875 167.558594 L 127.71875 156.609375 L 118.234375 151.132813 L 108.75 156.609375 L 108.75 167.558594 L 118.234375 173.035156 Z M 127.71875 167.558594 "/>
<path style=" stroke:none;fill-rule:nonzero;fill:rgb(7.49054%,55.050659%,33.782959%);fill-opacity:1;" d="M 146.683594 167.558594 L 146.683594 156.609375 L 137.199219 151.132813 L 127.71875 156.609375 L 127.71875 167.558594 L 137.199219 173.035156 Z M 146.683594 167.558594 "/>
<path style=" stroke:none;fill-rule:nonzero;fill:rgb(13.847351%,41.20636%,60.192871%);fill-opacity:1;" d="M 203.589844 167.539063 L 203.589844 156.589844 L 194.105469 151.113281 L 184.621094 156.589844 L 184.621094 167.539063 L 194.105469 173.015625 Z M 203.589844 167.539063 "/>
<path style=" stroke:none;fill-rule:nonzero;fill:rgb(62.721252%,18.426514%,57.868958%);fill-opacity:1;" d="M 184.621094 167.539063 L 184.621094 156.589844 L 175.136719 151.113281 L 165.652344 156.589844 L 165.652344 167.539063 L 175.136719 173.015625 Z M 184.621094 167.539063 "/>
<path style=" stroke:none;fill-rule:nonzero;fill:rgb(25.12207%,71.409607%,27.058411%);fill-opacity:1;" d="M 213.074219 183.972656 L 213.074219 173.023438 L 203.589844 167.546875 L 194.105469 173.023438 L 194.105469 183.972656 L 203.589844 189.449219 Z M 213.074219 183.972656 "/>
<path style=" stroke:none;fill-rule:nonzero;fill:rgb(45.167542%,19.999695%,44.943237%);fill-opacity:1;" d="M 175.136719 183.972656 L 175.136719 173.023438 L 165.652344 167.546875 L 156.167969 173.023438 L 156.167969 183.972656 L 165.652344 189.449219 Z M 175.136719 183.972656 "/>
<path style=" stroke:none;fill-rule:nonzero;fill:rgb(89.286804%,20.097351%,23.339844%);fill-opacity:1;" d="M 194.105469 183.972656 L 194.105469 173.023438 L 184.621094 167.546875 L 175.136719 173.023438 L 175.136719 183.972656 L 184.621094 189.449219 Z M 194.105469 183.972656 "/>
<path style=" stroke:none;fill-rule:nonzero;fill:rgb(89.286804%,20.097351%,23.339844%);fill-opacity:1;" d="M 175.136719 151.125 L 175.136719 140.171875 L 165.652344 134.699219 L 156.167969 140.171875 L 156.167969 151.125 L 165.652344 156.601563 Z M 175.136719 151.125 "/>
<path style=" stroke:none;fill-rule:nonzero;fill:rgb(95.20874%,37.837219%,12.135315%);fill-opacity:1;" d="M 194.105469 151.125 L 194.105469 140.171875 L 184.621094 134.699219 L 175.136719 140.171875 L 175.136719 151.125 L 184.621094 156.601563 Z M 194.105469 151.125 "/>
<path style=" stroke:none;fill-rule:nonzero;fill:rgb(63.987732%,14.164734%,43.786621%);fill-opacity:1;" d="M 194.105469 118.296875 L 194.105469 107.34375 L 184.621094 101.871094 L 175.136719 107.34375 L 175.136719 118.296875 L 184.621094 123.773438 Z M 194.105469 118.296875 "/>
<path style=" stroke:none;fill-rule:nonzero;fill:rgb(10.18219%,66.847229%,63.191223%);fill-opacity:1;" d="M 175.136719 118.296875 L 175.136719 107.34375 L 165.652344 101.871094 L 156.167969 107.34375 L 156.167969 118.296875 L 165.652344 123.773438 Z M 175.136719 118.296875 "/>
<path style=" stroke:none;fill-rule:nonzero;fill:rgb(63.987732%,14.164734%,43.786621%);fill-opacity:1;" d="M 165.652344 134.730469 L 165.652344 123.78125 L 156.167969 118.304688 L 146.683594 123.78125 L 146.683594 134.730469 L 156.167969 140.207031 Z M 165.652344 134.730469 "/>
<path style=" stroke:none;fill-rule:nonzero;fill:rgb(63.987732%,14.164734%,43.786621%);fill-opacity:1;" d="M 127.765625 134.710938 L 127.765625 123.761719 L 118.28125 118.285156 L 108.796875 123.761719 L 108.796875 134.710938 L 118.28125 140.1875 Z M 127.765625 134.710938 "/>
<path style=" stroke:none;fill-rule:nonzero;fill:rgb(97.064209%,60.020447%,8.348083%);fill-opacity:1;" d="M 146.734375 134.710938 L 146.734375 123.761719 L 137.25 118.285156 L 127.765625 123.761719 L 127.765625 134.710938 L 137.25 140.1875 Z M 146.734375 134.710938 "/>
<path style=" stroke:none;fill-rule:nonzero;fill:rgb(62.721252%,18.426514%,57.868958%);fill-opacity:1;" d="M 146.734375 101.882813 L 146.734375 90.933594 L 137.25 85.457031 L 127.765625 90.933594 L 127.765625 101.882813 L 137.25 107.359375 Z M 146.734375 101.882813 "/>
<path style=" stroke:none;fill-rule:nonzero;fill:rgb(89.286804%,20.097351%,23.339844%);fill-opacity:1;" d="M 127.765625 101.882813 L 127.765625 90.933594 L 118.28125 85.457031 L 108.796875 90.933594 L 108.796875 101.882813 L 118.28125 107.359375 Z M 127.765625 101.882813 "/>
<path style=" stroke:none;fill-rule:nonzero;fill:rgb(13.847351%,41.20636%,60.192871%);fill-opacity:1;" d="M 156.21875 118.316406 L 156.21875 107.367188 L 146.734375 101.890625 L 137.25 107.367188 L 137.25 118.316406 L 146.734375 123.792969 Z M 156.21875 118.316406 "/>
<path style=" stroke:none;fill-rule:nonzero;fill:rgb(10.18219%,66.847229%,63.191223%);fill-opacity:1;" d="M 118.28125 118.316406 L 118.28125 107.367188 L 108.796875 101.890625 L 99.3125 107.367188 L 99.3125 118.316406 L 108.796875 123.792969 Z M 118.28125 118.316406 "/>
<path style=" stroke:none;fill-rule:nonzero;fill:rgb(7.49054%,55.050659%,33.782959%);fill-opacity:1;" d="M 137.25 118.316406 L 137.25 107.367188 L 127.765625 101.890625 L 118.28125 107.367188 L 118.28125 118.316406 L 127.765625 123.792969 Z M 137.25 118.316406 "/>
<path style=" stroke:none;fill-rule:nonzero;fill:rgb(45.167542%,19.999695%,44.943237%);fill-opacity:1;" d="M 231.96875 183.972656 L 231.96875 173.023438 L 222.484375 167.546875 L 213 173.023438 L 213 183.972656 L 222.484375 189.449219 Z M 231.96875 183.972656 "/>
<path style=" stroke:none;fill-rule:nonzero;fill:rgb(97.064209%,60.020447%,8.348083%);fill-opacity:1;" d="M 222.53125 167.558594 L 222.53125 156.609375 L 213.050781 151.132813 L 203.566406 156.609375 L 203.566406 167.558594 L 213.050781 173.035156 Z M 222.53125 167.558594 "/>
<path style=" stroke:none;fill-rule:nonzero;fill:rgb(89.286804%,20.097351%,23.339844%);fill-opacity:1;" d="M 241.503906 167.558594 L 241.503906 156.609375 L 232.019531 151.132813 L 222.53125 156.609375 L 222.53125 167.558594 L 232.019531 173.035156 Z M 241.503906 167.558594 "/>
<path style=" stroke:none;fill-rule:nonzero;fill:rgb(7.49054%,55.050659%,33.782959%);fill-opacity:1;" d="M 222.53125 134.730469 L 222.53125 123.78125 L 213.050781 118.304688 L 203.566406 123.78125 L 203.566406 134.730469 L 213.050781 140.207031 Z M 222.53125 134.730469 "/>
<path style=" stroke:none;fill-rule:nonzero;fill:rgb(63.987732%,14.164734%,43.786621%);fill-opacity:1;" d="M 213.050781 151.164063 L 213.050781 140.214844 L 203.566406 134.738281 L 194.082031 140.214844 L 194.082031 151.164063 L 203.566406 156.640625 Z M 213.050781 151.164063 "/>
<path style=" stroke:none;fill-rule:nonzero;fill:rgb(25.12207%,71.409607%,27.058411%);fill-opacity:1;" d="M 232.019531 151.164063 L 232.019531 140.214844 L 222.535156 134.738281 L 213.050781 140.214844 L 213.050781 151.164063 L 222.535156 156.640625 Z M 232.019531 151.164063 "/>
<path style=" stroke:none;fill-rule:nonzero;fill:rgb(95.20874%,37.837219%,12.135315%);fill-opacity:1;" d="M 336.21875 68.6875 L 336.21875 57.738281 L 326.738281 52.261719 L 317.253906 57.738281 L 317.253906 68.6875 L 326.738281 74.164063 Z M 336.21875 68.6875 "/>
<path style=" stroke:none;fill-rule:nonzero;fill:rgb(45.167542%,19.999695%,44.943237%);fill-opacity:1;" d="M 307.769531 52.273438 L 307.769531 41.324219 L 298.285156 35.847656 L 288.800781 41.324219 L 288.800781 52.273438 L 298.285156 57.75 Z M 307.769531 52.273438 "/>
<path style=" stroke:none;fill-rule:nonzero;fill:rgb(13.847351%,41.20636%,60.192871%);fill-opacity:1;" d="M 288.800781 19.445313 L 288.800781 8.496094 L 279.316406 3.019531 L 269.832031 8.496094 L 269.832031 19.445313 L 279.316406 24.921875 Z M 288.800781 19.445313 "/>
<path style=" stroke:none;fill-rule:nonzero;fill:rgb(7.49054%,55.050659%,33.782959%);fill-opacity:1;" d="M 317.253906 35.878906 L 317.253906 24.925781 L 307.769531 19.453125 L 298.285156 24.925781 L 298.285156 35.878906 L 307.769531 41.355469 Z M 317.253906 35.878906 "/>
<path style=" stroke:none;fill-rule:nonzero;fill:rgb(89.286804%,20.097351%,23.339844%);fill-opacity:1;" d="M 279.316406 35.878906 L 279.316406 24.925781 L 269.832031 19.453125 L 260.347656 24.925781 L 260.347656 35.878906 L 269.832031 41.355469 Z M 279.316406 35.878906 "/>
<path style=" stroke:none;fill-rule:nonzero;fill:rgb(10.18219%,66.847229%,63.191223%);fill-opacity:1;" d="M 298.285156 35.878906 L 298.285156 24.925781 L 288.800781 19.453125 L 279.316406 24.925781 L 279.316406 35.878906 L 288.800781 41.355469 Z M 298.285156 35.878906 "/>
<path style=" stroke:none;fill-rule:nonzero;fill:rgb(95.20874%,37.837219%,12.135315%);fill-opacity:1;" d="M 336.21875 68.6875 L 336.21875 57.738281 L 326.738281 52.261719 L 317.253906 57.738281 L 317.253906 68.6875 L 326.738281 74.164063 Z M 336.21875 68.6875 "/>
<path style=" stroke:none;fill-rule:nonzero;fill:rgb(97.064209%,60.020447%,8.348083%);fill-opacity:1;" d="M 355.191406 68.6875 L 355.191406 57.738281 L 345.707031 52.261719 L 336.21875 57.738281 L 336.21875 68.6875 L 345.707031 74.164063 Z M 355.191406 68.6875 "/>
<path style=" stroke:none;fill-rule:nonzero;fill:rgb(13.847351%,41.20636%,60.192871%);fill-opacity:1;" d="M 326.738281 52.292969 L 326.738281 41.34375 L 317.253906 35.867188 L 307.769531 41.34375 L 307.769531 52.292969 L 317.253906 57.769531 Z M 326.738281 52.292969 "/>
<path style=" stroke:none;fill-rule:nonzero;fill:rgb(25.12207%,71.409607%,27.058411%);fill-opacity:1;" d="M 345.707031 52.292969 L 345.707031 41.34375 L 336.222656 35.867188 L 326.734375 41.34375 L 326.734375 52.292969 L 336.222656 57.769531 Z M 345.707031 52.292969 "/>
<path style=" stroke:none;fill-rule:nonzero;fill:rgb(89.286804%,20.097351%,23.339844%);fill-opacity:1;" d="M 260.371094 101.535156 L 260.371094 90.585938 L 250.890625 85.109375 L 241.402344 90.585938 L 241.402344 101.535156 L 250.890625 107.011719 Z M 260.371094 101.535156 "/>
<path style=" stroke:none;fill-rule:nonzero;fill:rgb(95.20874%,37.837219%,12.135315%);fill-opacity:1;" d="M 250.890625 117.96875 L 250.890625 107.019531 L 241.40625 101.542969 L 231.917969 107.019531 L 231.917969 117.96875 L 241.40625 123.445313 Z M 250.890625 117.96875 "/>
<path style=" stroke:none;fill-rule:nonzero;fill:rgb(97.064209%,60.020447%,8.348083%);fill-opacity:1;" d="M 298.308594 101.535156 L 298.308594 90.585938 L 288.824219 85.109375 L 279.339844 90.585938 L 279.339844 101.535156 L 288.824219 107.011719 Z M 298.308594 101.535156 "/>
<path style=" stroke:none;fill-rule:nonzero;fill:rgb(95.20874%,37.837219%,12.135315%);fill-opacity:1;" d="M 317.277344 101.535156 L 317.277344 90.585938 L 307.792969 85.109375 L 298.308594 90.585938 L 298.308594 101.535156 L 307.792969 107.011719 Z M 317.277344 101.535156 "/>
<path style=" stroke:none;fill-rule:nonzero;fill:rgb(63.987732%,14.164734%,43.786621%);fill-opacity:1;" d="M 317.277344 68.707031 L 317.277344 57.757813 L 307.792969 52.28125 L 298.308594 57.757813 L 298.308594 68.707031 L 307.792969 74.183594 Z M 317.277344 68.707031 "/>
<path style=" stroke:none;fill-rule:nonzero;fill:rgb(10.18219%,66.847229%,63.191223%);fill-opacity:1;" d="M 298.308594 68.707031 L 298.308594 57.757813 L 288.824219 52.28125 L 279.339844 57.757813 L 279.339844 68.707031 L 288.824219 74.183594 Z M 298.308594 68.707031 "/>
<path style=" stroke:none;fill-rule:nonzero;fill:rgb(89.286804%,20.097351%,23.339844%);fill-opacity:1;" d="M 326.761719 85.140625 L 326.761719 74.191406 L 317.277344 68.714844 L 307.792969 74.191406 L 307.792969 85.140625 L 317.277344 90.617188 Z M 326.761719 85.140625 "/>
<path style=" stroke:none;fill-rule:nonzero;fill:rgb(62.721252%,18.426514%,57.868958%);fill-opacity:1;" d="M 288.824219 85.140625 L 288.824219 74.191406 L 279.339844 68.714844 L 269.855469 74.191406 L 269.855469 85.140625 L 279.339844 90.617188 Z M 288.824219 85.140625 "/>
<path style=" stroke:none;fill-rule:nonzero;fill:rgb(13.847351%,41.20636%,60.192871%);fill-opacity:1;" d="M 307.792969 85.140625 L 307.792969 74.191406 L 298.308594 68.714844 L 288.824219 74.191406 L 288.824219 85.140625 L 298.308594 90.617188 Z M 307.792969 85.140625 "/>
<path style=" stroke:none;fill-rule:nonzero;fill:rgb(7.49054%,55.050659%,33.782959%);fill-opacity:1;" d="M 250.9375 85.371094 L 250.9375 74.253906 L 241.453125 68.695313 L 231.96875 74.253906 L 231.96875 85.371094 L 241.453125 90.929688 Z M 250.9375 85.371094 "/>
<path style=" stroke:none;fill-rule:nonzero;fill:rgb(25.12207%,71.409607%,27.058411%);fill-opacity:1;" d="M 269.90625 85.121094 L 269.90625 74.171875 L 260.421875 68.695313 L 250.9375 74.171875 L 250.9375 85.121094 L 260.421875 90.597656 Z M 269.90625 85.121094 "/>
<path style=" stroke:none;fill-rule:nonzero;fill:rgb(25.12207%,71.409607%,27.058411%);fill-opacity:1;" d="M 269.90625 52.292969 L 269.90625 41.34375 L 260.421875 35.867188 L 250.9375 41.34375 L 250.9375 52.292969 L 260.421875 57.769531 Z M 269.90625 52.292969 "/>
<path style=" stroke:none;fill-rule:nonzero;fill:rgb(97.064209%,60.020447%,8.348083%);fill-opacity:1;" d="M 279.390625 68.726563 L 279.390625 57.777344 L 269.90625 52.300781 L 260.421875 57.777344 L 260.421875 68.726563 L 269.90625 74.203125 Z M 279.390625 68.726563 "/>
<path style=" stroke:none;fill-rule:nonzero;fill:rgb(45.167542%,19.999695%,44.943237%);fill-opacity:1;" d="M 241.453125 68.949219 L 241.453125 57.847656 L 231.96875 52.300781 L 222.484375 57.847656 L 222.484375 68.949219 L 231.96875 74.496094 Z M 241.453125 68.949219 "/>
<path style=" stroke:none;fill-rule:nonzero;fill:rgb(95.20874%,37.837219%,12.135315%);fill-opacity:1;" d="M 260.421875 68.726563 L 260.421875 57.777344 L 250.9375 52.300781 L 241.453125 57.777344 L 241.453125 68.726563 L 250.9375 74.203125 Z M 260.421875 68.726563 "/>
<path style=" stroke:none;fill-rule:nonzero;fill:rgb(95.20874%,37.837219%,12.135315%);fill-opacity:1;" d="M 345.707031 117.96875 L 345.707031 107.019531 L 336.222656 101.542969 L 326.738281 107.019531 L 326.738281 117.96875 L 336.222656 123.445313 Z M 345.707031 117.96875 "/>
<path style=" stroke:none;fill-rule:nonzero;fill:rgb(7.49054%,55.050659%,33.782959%);fill-opacity:1;" d="M 364.671875 85.140625 L 364.671875 74.191406 L 355.191406 68.714844 L 345.703125 74.191406 L 345.703125 85.140625 L 355.191406 90.617188 Z M 364.671875 85.140625 "/>
<path style=" stroke:none;fill-rule:nonzero;fill:rgb(62.721252%,18.426514%,57.868958%);fill-opacity:1;" d="M 345.707031 85.140625 L 345.707031 74.191406 L 336.222656 68.714844 L 326.738281 74.191406 L 326.738281 85.140625 L 336.222656 90.617188 Z M 345.707031 85.140625 "/>
<path style=" stroke:none;fill-rule:nonzero;fill:rgb(45.167542%,19.999695%,44.943237%);fill-opacity:1;" d="M 336.21875 101.574219 L 336.21875 90.625 L 326.738281 85.148438 L 317.253906 90.625 L 317.253906 101.574219 L 326.738281 107.050781 Z M 336.21875 101.574219 "/>
<path style=" stroke:none;fill-rule:nonzero;fill:rgb(10.18219%,66.847229%,63.191223%);fill-opacity:1;" d="M 355.191406 101.574219 L 355.191406 90.625 L 345.707031 85.148438 L 336.21875 90.625 L 336.21875 101.574219 L 345.707031 107.050781 Z M 355.191406 101.574219 "/>
<path style=" stroke:none;fill-rule:nonzero;fill:rgb(25.12207%,71.409607%,27.058411%);fill-opacity:1;" d="M 212.976563 19.832031 L 212.976563 8.878906 L 203.492188 3.402344 L 194.007813 8.878906 L 194.007813 19.832031 L 203.492188 25.304688 Z M 212.976563 19.832031 "/>
<path style=" stroke:none;fill-rule:nonzero;fill:rgb(63.987732%,14.164734%,43.786621%);fill-opacity:1;" d="M 260.347656 35.917969 L 260.347656 24.96875 L 250.863281 19.492188 L 241.378906 24.96875 L 241.378906 35.917969 L 250.863281 41.394531 Z M 260.347656 35.917969 "/>
<path style=" stroke:none;fill-rule:nonzero;fill:rgb(97.064209%,60.020447%,8.348083%);fill-opacity:1;" d="M 269.832031 19.523438 L 269.832031 8.574219 L 260.347656 3.097656 L 250.863281 8.574219 L 250.863281 19.523438 L 260.347656 25 Z M 269.832031 19.523438 "/>
<path style=" stroke:none;fill-rule:nonzero;fill:rgb(10.18219%,66.847229%,63.191223%);fill-opacity:1;" d="M 231.894531 19.523438 L 231.894531 8.574219 L 222.414063 3.097656 L 212.925781 8.574219 L 212.925781 19.523438 L 222.414063 25 Z M 231.894531 19.523438 "/>
<path style=" stroke:none;fill-rule:nonzero;fill:rgb(13.847351%,41.20636%,60.192871%);fill-opacity:1;" d="M 250.863281 19.523438 L 250.863281 8.574219 L 241.378906 3.097656 L 231.894531 8.574219 L 231.894531 19.523438 L 241.378906 25 Z M 250.863281 19.523438 "/>
<path style=" stroke:none;fill-rule:nonzero;fill:rgb(10.18219%,66.847229%,63.191223%);fill-opacity:1;" d="M 194.082031 19.792969 L 194.082031 8.839844 L 184.597656 3.363281 L 175.113281 8.839844 L 175.113281 19.792969 L 184.597656 25.269531 Z M 194.082031 19.792969 "/>
<path style=" stroke:none;fill-rule:nonzero;fill:rgb(13.847351%,41.20636%,60.192871%);fill-opacity:1;" d="M 108.796875 68.667969 L 108.796875 57.71875 L 99.3125 52.242188 L 89.828125 57.71875 L 89.828125 68.667969 L 99.3125 74.144531 Z M 108.796875 68.667969 "/>
<path style=" stroke:none;fill-rule:nonzero;fill:rgb(97.064209%,60.020447%,8.348083%);fill-opacity:1;" d="M 118.28125 85.375 L 118.28125 74.242188 L 108.796875 68.675781 L 99.3125 74.242188 L 99.3125 85.375 L 108.796875 90.945313 Z M 118.28125 85.375 "/>
<path style=" stroke:none;fill-rule:nonzero;fill:rgb(13.847351%,41.20636%,60.192871%);fill-opacity:1;" d="M 137.25 85.371094 L 137.25 74.226563 L 127.765625 68.65625 L 118.28125 74.226563 L 118.28125 85.371094 L 127.765625 90.945313 Z M 137.25 85.371094 "/>
<path style=" stroke:none;fill-rule:nonzero;fill:rgb(45.167542%,19.999695%,44.943237%);fill-opacity:1;" d="M 127.765625 68.667969 L 127.765625 57.71875 L 118.28125 52.242188 L 108.796875 57.71875 L 108.796875 68.667969 L 118.28125 74.144531 Z M 127.765625 68.667969 "/>
<path style=" stroke:none;fill-rule:nonzero;fill:rgb(10.18219%,66.847229%,63.191223%);fill-opacity:1;" d="M 146.734375 68.667969 L 146.734375 57.71875 L 137.25 52.242188 L 127.765625 57.71875 L 127.765625 68.667969 L 137.25 74.144531 Z M 146.734375 68.667969 "/>
<path style=" stroke:none;fill-rule:nonzero;fill:rgb(89.286804%,20.097351%,23.339844%);fill-opacity:1;" d="M 118.28125 52.273438 L 118.28125 41.324219 L 108.796875 35.847656 L 99.3125 41.324219 L 99.3125 52.273438 L 108.796875 57.75 Z M 118.28125 52.273438 "/>
<path style=" stroke:none;fill-rule:nonzero;fill:rgb(95.20874%,37.837219%,12.135315%);fill-opacity:1;" d="M 137.25 52.273438 L 137.25 41.324219 L 127.765625 35.847656 L 118.28125 41.324219 L 118.28125 52.273438 L 127.765625 57.75 Z M 137.25 52.273438 "/>
<path style=" stroke:none;fill-rule:nonzero;fill:rgb(63.987732%,14.164734%,43.786621%);fill-opacity:1;" d="M 89.828125 69.09375 L 89.828125 58.140625 L 80.34375 52.664063 L 70.859375 58.140625 L 70.859375 69.09375 L 80.34375 74.570313 Z M 89.828125 69.09375 "/>
<path style=" stroke:none;fill-rule:nonzero;fill:rgb(95.20874%,37.837219%,12.135315%);fill-opacity:1;" d="M 70.859375 69.09375 L 70.859375 58.140625 L 61.375 52.664063 L 51.894531 58.140625 L 51.894531 69.09375 L 61.375 74.570313 Z M 70.859375 69.09375 "/>
<path style=" stroke:none;fill-rule:nonzero;fill:rgb(25.12207%,71.409607%,27.058411%);fill-opacity:1;" d="M 99.289063 52.621094 L 99.289063 41.667969 L 89.804688 36.195313 L 80.320313 41.667969 L 80.320313 52.621094 L 89.804688 58.097656 Z M 99.289063 52.621094 "/>
<path style=" stroke:none;fill-rule:nonzero;fill:rgb(97.064209%,60.020447%,8.348083%);fill-opacity:1;" d="M 127.71875 35.917969 L 127.71875 24.96875 L 118.234375 19.492188 L 108.75 24.96875 L 108.75 35.917969 L 118.234375 41.394531 Z M 127.71875 35.917969 "/>
<path style=" stroke:none;fill-rule:nonzero;fill:rgb(13.847351%,41.20636%,60.192871%);fill-opacity:1;" d="M 156.144531 151.261719 L 156.144531 140.117188 L 146.660156 134.546875 L 137.175781 140.117188 L 137.175781 151.261719 L 146.660156 156.832031 Z M 156.144531 151.261719 "/>
<path style=" stroke:none;fill-rule:nonzero;fill:rgb(13.847351%,41.20636%,60.192871%);fill-opacity:1;" d="M 118.28125 184.089844 L 118.28125 172.945313 L 108.796875 167.375 L 99.3125 172.945313 L 99.3125 184.089844 L 108.796875 189.660156 Z M 118.28125 184.089844 "/>
<path style=" stroke:none;fill-rule:nonzero;fill:rgb(97.064209%,60.020447%,8.348083%);fill-opacity:1;" d="M 203.589844 134.644531 L 203.589844 123.519531 L 194.058594 117.957031 L 184.523438 123.519531 L 184.523438 134.644531 L 194.058594 140.207031 Z M 203.589844 134.644531 "/>
<path style=" stroke:none;fill-rule:nonzero;fill:rgb(62.721252%,18.426514%,57.868958%);fill-opacity:1;" d="M 213.074219 118.316406 L 213.074219 107.367188 L 203.589844 101.890625 L 194.105469 107.367188 L 194.105469 118.316406 L 203.589844 123.792969 Z M 213.074219 118.316406 "/>
<path style=" stroke:none;fill-rule:nonzero;fill:rgb(25.12207%,71.409607%,27.058411%);fill-opacity:1;" d="M 184.597656 134.730469 L 184.597656 123.78125 L 175.113281 118.304688 L 165.628906 123.78125 L 165.628906 134.730469 L 175.113281 140.207031 Z M 184.597656 134.730469 "/>
<path style=" stroke:none;fill-rule:nonzero;fill:rgb(10.18219%,66.847229%,63.191223%);fill-opacity:1;" d="M 279.316406 101.820313 L 279.316406 90.699219 L 269.832031 85.140625 L 260.347656 90.699219 L 260.347656 101.820313 L 269.832031 107.378906 Z M 279.316406 101.820313 "/>
<path style=" stroke:none;fill-rule:nonzero;fill:rgb(89.286804%,20.097351%,23.339844%);fill-opacity:1;" d="M 89.855469 134.710938 L 89.855469 123.761719 L 80.371094 118.285156 L 70.886719 123.761719 L 70.886719 134.710938 L 80.371094 140.1875 Z M 89.855469 134.710938 "/>
<path style=" stroke:none;fill-rule:nonzero;fill:rgb(25.12207%,71.409607%,27.058411%);fill-opacity:1;" d="M 108.796875 134.730469 L 108.796875 123.78125 L 99.3125 118.304688 L 89.828125 123.78125 L 89.828125 134.730469 L 99.3125 140.207031 Z M 108.796875 134.730469 "/>
<path style=" stroke:none;fill-rule:nonzero;fill:rgb(10.18219%,66.847229%,63.191223%);fill-opacity:1;" d="M 89.828125 167.539063 L 89.828125 156.589844 L 80.34375 151.113281 L 70.859375 156.589844 L 70.859375 167.539063 L 80.34375 173.015625 Z M 89.828125 167.539063 "/>
<path style=" stroke:none;fill-rule:nonzero;fill:rgb(89.286804%,20.097351%,23.339844%);fill-opacity:1;" d="M 89.855469 200.386719 L 89.855469 189.4375 L 80.371094 183.960938 L 70.886719 189.4375 L 70.886719 200.386719 L 80.371094 205.863281 Z M 89.855469 200.386719 "/>
<path style=" stroke:none;fill-rule:nonzero;fill:rgb(97.064209%,60.020447%,8.348083%);fill-opacity:1;" d="M 165.703125 167.539063 L 165.703125 156.589844 L 156.21875 151.113281 L 146.734375 156.589844 L 146.734375 167.539063 L 156.21875 173.015625 Z M 165.703125 167.539063 "/>
<path style=" stroke:none;fill-rule:nonzero;fill:rgb(95.20874%,37.837219%,12.135315%);fill-opacity:1;" d="M 137.25 183.953125 L 137.25 173.003906 L 127.765625 167.527344 L 118.28125 173.003906 L 118.28125 183.953125 L 127.765625 189.429688 Z M 137.25 183.953125 "/>
<path style=" stroke:none;fill-rule:nonzero;fill:rgb(25.12207%,71.409607%,27.058411%);fill-opacity:1;" d="M 61.378906 118.316406 L 61.378906 107.367188 L 51.894531 101.890625 L 42.410156 107.367188 L 42.410156 118.316406 L 51.894531 123.792969 Z M 61.378906 118.316406 "/>
<path style=" stroke:none;fill-rule:nonzero;fill:rgb(45.167542%,19.999695%,44.943237%);fill-opacity:1;" d="M 99.289063 85.390625 L 99.289063 74.242188 L 89.804688 68.667969 L 80.320313 74.242188 L 80.320313 85.390625 L 89.804688 90.964844 Z M 99.289063 85.390625 "/>
<path style=" stroke:none;fill-rule:nonzero;fill:rgb(13.847351%,41.20636%,60.192871%);fill-opacity:1;" d="M 108.773438 102 L 108.773438 90.855469 L 99.289063 85.285156 L 89.804688 90.855469 L 89.804688 102 L 99.289063 107.570313 Z M 108.773438 102 "/>
<path style=" stroke:none;fill-rule:nonzero;fill:rgb(95.20874%,37.837219%,12.135315%);fill-opacity:1;" d="M 184.597656 101.902344 L 184.597656 90.949219 L 175.113281 85.476563 L 165.628906 90.949219 L 165.628906 101.902344 L 175.113281 107.378906 Z M 184.597656 101.902344 "/>
<path style=" stroke:none;fill-rule:nonzero;fill:rgb(25.12207%,71.409607%,27.058411%);fill-opacity:1;" d="M 156.144531 85.363281 L 156.144531 74.226563 L 146.660156 68.65625 L 137.175781 74.226563 L 137.175781 85.363281 L 146.660156 90.929688 Z M 156.144531 85.363281 "/>
<path style=" stroke:none;fill-rule:nonzero;fill:rgb(97.064209%,60.020447%,8.348083%);fill-opacity:1;" d="M 156.21875 52.640625 L 156.21875 41.6875 L 146.734375 36.210938 L 137.25 41.6875 L 137.25 52.640625 L 146.734375 58.117188 Z M 156.21875 52.640625 "/>
<path style=" stroke:none;fill-rule:nonzero;fill:rgb(89.286804%,20.097351%,23.339844%);fill-opacity:1;" d="M 184.597656 69.09375 L 184.597656 58.140625 L 175.113281 52.664063 L 165.628906 58.140625 L 165.628906 69.09375 L 175.113281 74.570313 Z M 184.597656 69.09375 "/>
<path style=" stroke:none;fill-rule:nonzero;fill:rgb(63.987732%,14.164734%,43.786621%);fill-opacity:1;" d="M 203.566406 69.09375 L 203.566406 58.140625 L 194.082031 52.664063 L 184.597656 58.140625 L 184.597656 69.09375 L 194.082031 74.570313 Z M 203.566406 69.09375 "/>
<path style=" stroke:none;fill-rule:nonzero;fill:rgb(95.20874%,37.837219%,12.135315%);fill-opacity:1;" d="M 241.378906 36.125 L 241.378906 25.003906 L 231.894531 19.441406 L 222.410156 25.003906 L 222.410156 36.125 L 231.894531 41.6875 Z M 241.378906 36.125 "/>
<path style=" stroke:none;fill-rule:nonzero;fill:rgb(62.721252%,18.426514%,57.868958%);fill-opacity:1;" d="M 222.460938 36.15625 L 222.460938 25.066406 L 212.976563 19.523438 L 203.492188 25.066406 L 203.492188 36.15625 L 212.976563 41.699219 Z M 222.460938 36.15625 "/>
<path style=" stroke:none;fill-rule:nonzero;fill:rgb(10.18219%,66.847229%,63.191223%);fill-opacity:1;" d="M 250.9375 52.515625 L 250.9375 41.316406 L 241.417969 35.714844 L 231.894531 41.316406 L 231.894531 52.515625 L 241.417969 58.117188 Z M 250.9375 52.515625 "/>
<path style=" stroke:none;fill-rule:nonzero;fill:rgb(95.20874%,37.837219%,12.135315%);fill-opacity:1;" d="M 288.800781 52.273438 L 288.800781 41.324219 L 279.316406 35.847656 L 269.832031 41.324219 L 269.832031 52.273438 L 279.316406 57.75 Z M 288.800781 52.273438 "/>
</g>
</svg>
